%TF.GenerationSoftware,KiCad,Pcbnew,(5.1.10-1-10_14)*%
%TF.CreationDate,2021-10-26T14:16:26-07:00*%
%TF.ProjectId,adc,6164632e-6b69-4636-9164-5f7063625858,rev?*%
%TF.SameCoordinates,Original*%
%TF.FileFunction,Copper,L4,Bot*%
%TF.FilePolarity,Positive*%
%FSLAX46Y46*%
G04 Gerber Fmt 4.6, Leading zero omitted, Abs format (unit mm)*
G04 Created by KiCad (PCBNEW (5.1.10-1-10_14)) date 2021-10-26 14:16:26*
%MOMM*%
%LPD*%
G01*
G04 APERTURE LIST*
%TA.AperFunction,ComponentPad*%
%ADD10C,1.524000*%
%TD*%
%TA.AperFunction,ComponentPad*%
%ADD11O,1.700000X1.700000*%
%TD*%
%TA.AperFunction,ComponentPad*%
%ADD12R,1.700000X1.700000*%
%TD*%
%TA.AperFunction,WasherPad*%
%ADD13O,2.700000X4.400000*%
%TD*%
%TA.AperFunction,ComponentPad*%
%ADD14C,5.000000*%
%TD*%
%TA.AperFunction,ComponentPad*%
%ADD15C,2.400000*%
%TD*%
%TA.AperFunction,ViaPad*%
%ADD16C,0.600000*%
%TD*%
%TA.AperFunction,Conductor*%
%ADD17C,0.254000*%
%TD*%
%TA.AperFunction,Conductor*%
%ADD18C,0.100000*%
%TD*%
G04 APERTURE END LIST*
D10*
%TO.P,J5,1*%
%TO.N,Net-(J5-Pad1)*%
X140970000Y-27940000D03*
%TO.P,J5,2*%
%TO.N,Net-(J5-Pad2)*%
X143510000Y-27940000D03*
%TO.P,J5,3*%
%TO.N,GND*%
X140970000Y-30480000D03*
%TO.P,J5,4*%
%TO.N,Net-(J5-Pad4)*%
X143510000Y-30480000D03*
%TO.P,J5,5*%
%TO.N,+5V*%
X140970000Y-33020000D03*
%TO.P,J5,6*%
%TO.N,Net-(J5-Pad6)*%
X143510000Y-33020000D03*
%TO.P,J5,7*%
%TO.N,GND*%
X140970000Y-35560000D03*
%TO.P,J5,8*%
%TO.N,Net-(J5-Pad8)*%
X143510000Y-35560000D03*
%TO.P,J5,9*%
%TO.N,+3V3*%
X140970000Y-38100000D03*
%TO.P,J5,10*%
%TO.N,Net-(J5-Pad10)*%
X143510000Y-38100000D03*
%TO.P,J5,11*%
%TO.N,GND*%
X140970000Y-40640000D03*
%TO.P,J5,12*%
%TO.N,Net-(J5-Pad12)*%
X143510000Y-40640000D03*
%TO.P,J5,13*%
%TO.N,Net-(J5-Pad13)*%
X140970000Y-43180000D03*
%TO.P,J5,14*%
%TO.N,/PA5_H4*%
X143510000Y-43180000D03*
%TO.P,J5,15*%
%TO.N,GND*%
X140970000Y-45720000D03*
%TO.P,J5,16*%
%TO.N,/PA6_J1*%
X143510000Y-45720000D03*
%TO.P,J5,17*%
%TO.N,Net-(J5-Pad17)*%
X140970000Y-48260000D03*
%TO.P,J5,18*%
%TO.N,/PA7_J2*%
X143510000Y-48260000D03*
%TO.P,J5,19*%
%TO.N,GND*%
X140970000Y-50800000D03*
%TO.P,J5,20*%
%TO.N,/PB6_G12*%
X143510000Y-50800000D03*
%TO.P,J5,21*%
%TO.N,Net-(J5-Pad21)*%
X140970000Y-53340000D03*
%TO.P,J5,22*%
%TO.N,/PC7_H13*%
X143510000Y-53340000D03*
%TO.P,J5,23*%
%TO.N,/PA0*%
X140970000Y-55880000D03*
%TO.P,J5,24*%
%TO.N,/PA9_H10*%
X143510000Y-55880000D03*
%TO.P,J5,25*%
%TO.N,Net-(J5-Pad25)*%
X140970000Y-58420000D03*
%TO.P,J5,26*%
%TO.N,/PA8_J10*%
X143510000Y-58420000D03*
%TO.P,J5,27*%
%TO.N,Net-(J5-Pad27)*%
X140970000Y-60960000D03*
%TO.P,J5,28*%
%TO.N,Net-(J5-Pad28)*%
X143510000Y-60960000D03*
%TO.P,J5,29*%
%TO.N,Net-(J5-Pad29)*%
X140970000Y-63500000D03*
%TO.P,J5,30*%
%TO.N,Net-(J5-Pad30)*%
X143510000Y-63500000D03*
%TO.P,J5,31*%
%TO.N,Net-(J5-Pad31)*%
X140970000Y-66040000D03*
%TO.P,J5,32*%
%TO.N,Net-(J5-Pad32)*%
X143510000Y-66040000D03*
%TO.P,J5,33*%
%TO.N,Net-(J5-Pad33)*%
X140970000Y-68580000D03*
%TO.P,J5,34*%
%TO.N,Net-(J5-Pad34)*%
X143510000Y-68580000D03*
%TO.P,J5,35*%
%TO.N,Net-(J5-Pad35)*%
X140970000Y-71120000D03*
%TO.P,J5,36*%
%TO.N,Net-(J5-Pad36)*%
X143510000Y-71120000D03*
%TO.P,J5,37*%
%TO.N,Net-(J5-Pad37)*%
X140970000Y-73660000D03*
%TO.P,J5,38*%
%TO.N,Net-(J5-Pad38)*%
X143510000Y-73660000D03*
%TO.P,J5,39*%
%TO.N,Net-(J5-Pad39)*%
X140970000Y-76200000D03*
%TO.P,J5,40*%
%TO.N,Net-(J5-Pad40)*%
X143510000Y-76200000D03*
%TD*%
D11*
%TO.P,J8,3*%
%TO.N,GND*%
X148590000Y-35560000D03*
%TO.P,J8,2*%
%TO.N,+5V*%
X148590000Y-33020000D03*
D12*
%TO.P,J8,1*%
%TO.N,/PA0*%
X148590000Y-30480000D03*
%TD*%
D13*
%TO.P,J2,*%
%TO.N,*%
X182160000Y-37250000D03*
X206460000Y-37250000D03*
D14*
%TO.P,J2,3*%
%TO.N,GND*%
X187310000Y-37250000D03*
%TO.P,J2,1*%
X201310000Y-37250000D03*
D15*
%TO.P,J2,4*%
%TO.N,Net-(C2-Pad1)*%
X183310000Y-42000000D03*
%TO.P,J2,2*%
%TO.N,Net-(C1-Pad1)*%
X197310000Y-42000000D03*
%TD*%
D13*
%TO.P,J1,*%
%TO.N,*%
X206460000Y-64350000D03*
X182160000Y-64350000D03*
D14*
%TO.P,J1,3*%
%TO.N,GND*%
X201310000Y-64350000D03*
%TO.P,J1,1*%
X187310000Y-64350000D03*
D15*
%TO.P,J1,4*%
%TO.N,Net-(C2-Pad1)*%
X205310000Y-59600000D03*
%TO.P,J1,2*%
%TO.N,Net-(C1-Pad1)*%
X191310000Y-59600000D03*
%TD*%
D16*
%TO.N,GND*%
X149860000Y-54610000D03*
X149860000Y-55880000D03*
X149860000Y-57150000D03*
X149860000Y-58420000D03*
X149860000Y-59690000D03*
X149860000Y-60960000D03*
X151130000Y-62230000D03*
X152400000Y-63500000D03*
X146050000Y-44450000D03*
X148590000Y-44450000D03*
X151130000Y-44450000D03*
X152400000Y-45720000D03*
X146050000Y-46990000D03*
X148590000Y-46990000D03*
X160020000Y-41910000D03*
X157480000Y-43180000D03*
%TD*%
D17*
%TO.N,GND*%
X153184803Y-30919769D02*
X153205280Y-30944720D01*
X153304871Y-31026453D01*
X153418495Y-31087187D01*
X153541784Y-31124586D01*
X153637875Y-31134050D01*
X153637884Y-31134050D01*
X153669999Y-31137213D01*
X153702114Y-31134050D01*
X208895950Y-31134050D01*
X208895951Y-70465950D01*
X152442354Y-70465950D01*
X152420501Y-70463107D01*
X152378114Y-70465950D01*
X152367875Y-70465950D01*
X152346015Y-70468103D01*
X152291954Y-70471729D01*
X152282027Y-70474405D01*
X152271784Y-70475414D01*
X152219872Y-70491161D01*
X152167559Y-70505264D01*
X152158346Y-70509825D01*
X152148495Y-70512813D01*
X152100678Y-70538372D01*
X152052095Y-70562422D01*
X152043940Y-70568700D01*
X152034871Y-70573547D01*
X151992982Y-70607925D01*
X151950002Y-70641009D01*
X151943228Y-70648757D01*
X151935280Y-70655280D01*
X151900898Y-70697175D01*
X151886449Y-70713701D01*
X151880503Y-70722025D01*
X151853547Y-70754871D01*
X151843155Y-70774312D01*
X145713415Y-79355950D01*
X137845000Y-79355950D01*
X137845000Y-50872017D01*
X139568090Y-50872017D01*
X139609078Y-51144133D01*
X139702364Y-51403023D01*
X139764344Y-51518980D01*
X140004435Y-51585960D01*
X140790395Y-50800000D01*
X140004435Y-50014040D01*
X139764344Y-50081020D01*
X139647244Y-50330048D01*
X139580977Y-50597135D01*
X139568090Y-50872017D01*
X137845000Y-50872017D01*
X137845000Y-45792017D01*
X139568090Y-45792017D01*
X139609078Y-46064133D01*
X139702364Y-46323023D01*
X139764344Y-46438980D01*
X140004435Y-46505960D01*
X140790395Y-45720000D01*
X140004435Y-44934040D01*
X139764344Y-45001020D01*
X139647244Y-45250048D01*
X139580977Y-45517135D01*
X139568090Y-45792017D01*
X137845000Y-45792017D01*
X137845000Y-40712017D01*
X139568090Y-40712017D01*
X139609078Y-40984133D01*
X139702364Y-41243023D01*
X139764344Y-41358980D01*
X140004435Y-41425960D01*
X140790395Y-40640000D01*
X140004435Y-39854040D01*
X139764344Y-39921020D01*
X139647244Y-40170048D01*
X139580977Y-40437135D01*
X139568090Y-40712017D01*
X137845000Y-40712017D01*
X137845000Y-35632017D01*
X139568090Y-35632017D01*
X139609078Y-35904133D01*
X139702364Y-36163023D01*
X139764344Y-36278980D01*
X140004435Y-36345960D01*
X140790395Y-35560000D01*
X140004435Y-34774040D01*
X139764344Y-34841020D01*
X139647244Y-35090048D01*
X139580977Y-35357135D01*
X139568090Y-35632017D01*
X137845000Y-35632017D01*
X137845000Y-30552017D01*
X139568090Y-30552017D01*
X139609078Y-30824133D01*
X139702364Y-31083023D01*
X139764344Y-31198980D01*
X140004435Y-31265960D01*
X140790395Y-30480000D01*
X140004435Y-29694040D01*
X139764344Y-29761020D01*
X139647244Y-30010048D01*
X139580977Y-30277135D01*
X139568090Y-30552017D01*
X137845000Y-30552017D01*
X137845000Y-27802408D01*
X139573000Y-27802408D01*
X139573000Y-28077592D01*
X139626686Y-28347490D01*
X139731995Y-28601727D01*
X139884880Y-28830535D01*
X140079465Y-29025120D01*
X140308273Y-29178005D01*
X140379943Y-29207692D01*
X140366977Y-29212364D01*
X140251020Y-29274344D01*
X140184040Y-29514435D01*
X140970000Y-30300395D01*
X141755960Y-29514435D01*
X141688980Y-29274344D01*
X141553240Y-29210515D01*
X141631727Y-29178005D01*
X141860535Y-29025120D01*
X142055120Y-28830535D01*
X142208005Y-28601727D01*
X142240000Y-28524485D01*
X142271995Y-28601727D01*
X142424880Y-28830535D01*
X142619465Y-29025120D01*
X142848273Y-29178005D01*
X142925515Y-29210000D01*
X142848273Y-29241995D01*
X142619465Y-29394880D01*
X142424880Y-29589465D01*
X142271995Y-29818273D01*
X142242308Y-29889943D01*
X142237636Y-29876977D01*
X142175656Y-29761020D01*
X141935565Y-29694040D01*
X141149605Y-30480000D01*
X141935565Y-31265960D01*
X142175656Y-31198980D01*
X142239485Y-31063240D01*
X142271995Y-31141727D01*
X142424880Y-31370535D01*
X142619465Y-31565120D01*
X142848273Y-31718005D01*
X142925515Y-31750000D01*
X142848273Y-31781995D01*
X142619465Y-31934880D01*
X142424880Y-32129465D01*
X142271995Y-32358273D01*
X142240000Y-32435515D01*
X142208005Y-32358273D01*
X142055120Y-32129465D01*
X141860535Y-31934880D01*
X141631727Y-31781995D01*
X141560057Y-31752308D01*
X141573023Y-31747636D01*
X141688980Y-31685656D01*
X141755960Y-31445565D01*
X140970000Y-30659605D01*
X140184040Y-31445565D01*
X140251020Y-31685656D01*
X140386760Y-31749485D01*
X140308273Y-31781995D01*
X140079465Y-31934880D01*
X139884880Y-32129465D01*
X139731995Y-32358273D01*
X139626686Y-32612510D01*
X139573000Y-32882408D01*
X139573000Y-33157592D01*
X139626686Y-33427490D01*
X139731995Y-33681727D01*
X139884880Y-33910535D01*
X140079465Y-34105120D01*
X140308273Y-34258005D01*
X140379943Y-34287692D01*
X140366977Y-34292364D01*
X140251020Y-34354344D01*
X140184040Y-34594435D01*
X140970000Y-35380395D01*
X141755960Y-34594435D01*
X141688980Y-34354344D01*
X141553240Y-34290515D01*
X141631727Y-34258005D01*
X141860535Y-34105120D01*
X142055120Y-33910535D01*
X142208005Y-33681727D01*
X142240000Y-33604485D01*
X142271995Y-33681727D01*
X142424880Y-33910535D01*
X142619465Y-34105120D01*
X142848273Y-34258005D01*
X142925515Y-34290000D01*
X142848273Y-34321995D01*
X142619465Y-34474880D01*
X142424880Y-34669465D01*
X142271995Y-34898273D01*
X142242308Y-34969943D01*
X142237636Y-34956977D01*
X142175656Y-34841020D01*
X141935565Y-34774040D01*
X141149605Y-35560000D01*
X141935565Y-36345960D01*
X142175656Y-36278980D01*
X142239485Y-36143240D01*
X142271995Y-36221727D01*
X142424880Y-36450535D01*
X142619465Y-36645120D01*
X142848273Y-36798005D01*
X142925515Y-36830000D01*
X142848273Y-36861995D01*
X142619465Y-37014880D01*
X142424880Y-37209465D01*
X142271995Y-37438273D01*
X142240000Y-37515515D01*
X142208005Y-37438273D01*
X142055120Y-37209465D01*
X141860535Y-37014880D01*
X141631727Y-36861995D01*
X141560057Y-36832308D01*
X141573023Y-36827636D01*
X141688980Y-36765656D01*
X141755960Y-36525565D01*
X140970000Y-35739605D01*
X140184040Y-36525565D01*
X140251020Y-36765656D01*
X140386760Y-36829485D01*
X140308273Y-36861995D01*
X140079465Y-37014880D01*
X139884880Y-37209465D01*
X139731995Y-37438273D01*
X139626686Y-37692510D01*
X139573000Y-37962408D01*
X139573000Y-38237592D01*
X139626686Y-38507490D01*
X139731995Y-38761727D01*
X139884880Y-38990535D01*
X140079465Y-39185120D01*
X140308273Y-39338005D01*
X140379943Y-39367692D01*
X140366977Y-39372364D01*
X140251020Y-39434344D01*
X140184040Y-39674435D01*
X140970000Y-40460395D01*
X141755960Y-39674435D01*
X141688980Y-39434344D01*
X141553240Y-39370515D01*
X141631727Y-39338005D01*
X141860535Y-39185120D01*
X142055120Y-38990535D01*
X142208005Y-38761727D01*
X142240000Y-38684485D01*
X142271995Y-38761727D01*
X142424880Y-38990535D01*
X142619465Y-39185120D01*
X142848273Y-39338005D01*
X142925515Y-39370000D01*
X142848273Y-39401995D01*
X142619465Y-39554880D01*
X142424880Y-39749465D01*
X142271995Y-39978273D01*
X142242308Y-40049943D01*
X142237636Y-40036977D01*
X142175656Y-39921020D01*
X141935565Y-39854040D01*
X141149605Y-40640000D01*
X141935565Y-41425960D01*
X142175656Y-41358980D01*
X142239485Y-41223240D01*
X142271995Y-41301727D01*
X142424880Y-41530535D01*
X142619465Y-41725120D01*
X142848273Y-41878005D01*
X142925515Y-41910000D01*
X142848273Y-41941995D01*
X142619465Y-42094880D01*
X142424880Y-42289465D01*
X142271995Y-42518273D01*
X142240000Y-42595515D01*
X142208005Y-42518273D01*
X142055120Y-42289465D01*
X141860535Y-42094880D01*
X141631727Y-41941995D01*
X141560057Y-41912308D01*
X141573023Y-41907636D01*
X141688980Y-41845656D01*
X141755960Y-41605565D01*
X140970000Y-40819605D01*
X140184040Y-41605565D01*
X140251020Y-41845656D01*
X140386760Y-41909485D01*
X140308273Y-41941995D01*
X140079465Y-42094880D01*
X139884880Y-42289465D01*
X139731995Y-42518273D01*
X139626686Y-42772510D01*
X139573000Y-43042408D01*
X139573000Y-43317592D01*
X139626686Y-43587490D01*
X139731995Y-43841727D01*
X139884880Y-44070535D01*
X140079465Y-44265120D01*
X140308273Y-44418005D01*
X140379943Y-44447692D01*
X140366977Y-44452364D01*
X140251020Y-44514344D01*
X140184040Y-44754435D01*
X140970000Y-45540395D01*
X141755960Y-44754435D01*
X141688980Y-44514344D01*
X141553240Y-44450515D01*
X141631727Y-44418005D01*
X141860535Y-44265120D01*
X142055120Y-44070535D01*
X142208005Y-43841727D01*
X142240000Y-43764485D01*
X142271995Y-43841727D01*
X142424880Y-44070535D01*
X142619465Y-44265120D01*
X142848273Y-44418005D01*
X142925515Y-44450000D01*
X142848273Y-44481995D01*
X142619465Y-44634880D01*
X142424880Y-44829465D01*
X142271995Y-45058273D01*
X142242308Y-45129943D01*
X142237636Y-45116977D01*
X142175656Y-45001020D01*
X141935565Y-44934040D01*
X141149605Y-45720000D01*
X141935565Y-46505960D01*
X142175656Y-46438980D01*
X142239485Y-46303240D01*
X142271995Y-46381727D01*
X142424880Y-46610535D01*
X142619465Y-46805120D01*
X142848273Y-46958005D01*
X142925515Y-46990000D01*
X142848273Y-47021995D01*
X142619465Y-47174880D01*
X142424880Y-47369465D01*
X142271995Y-47598273D01*
X142240000Y-47675515D01*
X142208005Y-47598273D01*
X142055120Y-47369465D01*
X141860535Y-47174880D01*
X141631727Y-47021995D01*
X141560057Y-46992308D01*
X141573023Y-46987636D01*
X141688980Y-46925656D01*
X141755960Y-46685565D01*
X140970000Y-45899605D01*
X140184040Y-46685565D01*
X140251020Y-46925656D01*
X140386760Y-46989485D01*
X140308273Y-47021995D01*
X140079465Y-47174880D01*
X139884880Y-47369465D01*
X139731995Y-47598273D01*
X139626686Y-47852510D01*
X139573000Y-48122408D01*
X139573000Y-48397592D01*
X139626686Y-48667490D01*
X139731995Y-48921727D01*
X139884880Y-49150535D01*
X140079465Y-49345120D01*
X140308273Y-49498005D01*
X140379943Y-49527692D01*
X140366977Y-49532364D01*
X140251020Y-49594344D01*
X140184040Y-49834435D01*
X140970000Y-50620395D01*
X141755960Y-49834435D01*
X141688980Y-49594344D01*
X141553240Y-49530515D01*
X141631727Y-49498005D01*
X141860535Y-49345120D01*
X142055120Y-49150535D01*
X142208005Y-48921727D01*
X142240000Y-48844485D01*
X142271995Y-48921727D01*
X142424880Y-49150535D01*
X142619465Y-49345120D01*
X142848273Y-49498005D01*
X142925515Y-49530000D01*
X142848273Y-49561995D01*
X142619465Y-49714880D01*
X142424880Y-49909465D01*
X142271995Y-50138273D01*
X142242308Y-50209943D01*
X142237636Y-50196977D01*
X142175656Y-50081020D01*
X141935565Y-50014040D01*
X141149605Y-50800000D01*
X141935565Y-51585960D01*
X142175656Y-51518980D01*
X142239485Y-51383240D01*
X142271995Y-51461727D01*
X142424880Y-51690535D01*
X142619465Y-51885120D01*
X142848273Y-52038005D01*
X142925515Y-52070000D01*
X142848273Y-52101995D01*
X142619465Y-52254880D01*
X142424880Y-52449465D01*
X142271995Y-52678273D01*
X142240000Y-52755515D01*
X142208005Y-52678273D01*
X142055120Y-52449465D01*
X141860535Y-52254880D01*
X141631727Y-52101995D01*
X141560057Y-52072308D01*
X141573023Y-52067636D01*
X141688980Y-52005656D01*
X141755960Y-51765565D01*
X140970000Y-50979605D01*
X140184040Y-51765565D01*
X140251020Y-52005656D01*
X140386760Y-52069485D01*
X140308273Y-52101995D01*
X140079465Y-52254880D01*
X139884880Y-52449465D01*
X139731995Y-52678273D01*
X139626686Y-52932510D01*
X139573000Y-53202408D01*
X139573000Y-53477592D01*
X139626686Y-53747490D01*
X139731995Y-54001727D01*
X139884880Y-54230535D01*
X140079465Y-54425120D01*
X140308273Y-54578005D01*
X140385515Y-54610000D01*
X140308273Y-54641995D01*
X140079465Y-54794880D01*
X139884880Y-54989465D01*
X139731995Y-55218273D01*
X139626686Y-55472510D01*
X139573000Y-55742408D01*
X139573000Y-56017592D01*
X139626686Y-56287490D01*
X139731995Y-56541727D01*
X139884880Y-56770535D01*
X140079465Y-56965120D01*
X140308273Y-57118005D01*
X140385515Y-57150000D01*
X140308273Y-57181995D01*
X140079465Y-57334880D01*
X139884880Y-57529465D01*
X139731995Y-57758273D01*
X139626686Y-58012510D01*
X139573000Y-58282408D01*
X139573000Y-58557592D01*
X139626686Y-58827490D01*
X139731995Y-59081727D01*
X139884880Y-59310535D01*
X140079465Y-59505120D01*
X140308273Y-59658005D01*
X140385515Y-59690000D01*
X140308273Y-59721995D01*
X140079465Y-59874880D01*
X139884880Y-60069465D01*
X139731995Y-60298273D01*
X139626686Y-60552510D01*
X139573000Y-60822408D01*
X139573000Y-61097592D01*
X139626686Y-61367490D01*
X139731995Y-61621727D01*
X139884880Y-61850535D01*
X140079465Y-62045120D01*
X140308273Y-62198005D01*
X140385515Y-62230000D01*
X140308273Y-62261995D01*
X140079465Y-62414880D01*
X139884880Y-62609465D01*
X139731995Y-62838273D01*
X139626686Y-63092510D01*
X139573000Y-63362408D01*
X139573000Y-63637592D01*
X139626686Y-63907490D01*
X139731995Y-64161727D01*
X139884880Y-64390535D01*
X140079465Y-64585120D01*
X140308273Y-64738005D01*
X140385515Y-64770000D01*
X140308273Y-64801995D01*
X140079465Y-64954880D01*
X139884880Y-65149465D01*
X139731995Y-65378273D01*
X139626686Y-65632510D01*
X139573000Y-65902408D01*
X139573000Y-66177592D01*
X139626686Y-66447490D01*
X139731995Y-66701727D01*
X139884880Y-66930535D01*
X140079465Y-67125120D01*
X140308273Y-67278005D01*
X140385515Y-67310000D01*
X140308273Y-67341995D01*
X140079465Y-67494880D01*
X139884880Y-67689465D01*
X139731995Y-67918273D01*
X139626686Y-68172510D01*
X139573000Y-68442408D01*
X139573000Y-68717592D01*
X139626686Y-68987490D01*
X139731995Y-69241727D01*
X139884880Y-69470535D01*
X140079465Y-69665120D01*
X140308273Y-69818005D01*
X140385515Y-69850000D01*
X140308273Y-69881995D01*
X140079465Y-70034880D01*
X139884880Y-70229465D01*
X139731995Y-70458273D01*
X139626686Y-70712510D01*
X139573000Y-70982408D01*
X139573000Y-71257592D01*
X139626686Y-71527490D01*
X139731995Y-71781727D01*
X139884880Y-72010535D01*
X140079465Y-72205120D01*
X140308273Y-72358005D01*
X140385515Y-72390000D01*
X140308273Y-72421995D01*
X140079465Y-72574880D01*
X139884880Y-72769465D01*
X139731995Y-72998273D01*
X139626686Y-73252510D01*
X139573000Y-73522408D01*
X139573000Y-73797592D01*
X139626686Y-74067490D01*
X139731995Y-74321727D01*
X139884880Y-74550535D01*
X140079465Y-74745120D01*
X140308273Y-74898005D01*
X140385515Y-74930000D01*
X140308273Y-74961995D01*
X140079465Y-75114880D01*
X139884880Y-75309465D01*
X139731995Y-75538273D01*
X139626686Y-75792510D01*
X139573000Y-76062408D01*
X139573000Y-76337592D01*
X139626686Y-76607490D01*
X139731995Y-76861727D01*
X139884880Y-77090535D01*
X140079465Y-77285120D01*
X140308273Y-77438005D01*
X140562510Y-77543314D01*
X140832408Y-77597000D01*
X141107592Y-77597000D01*
X141377490Y-77543314D01*
X141631727Y-77438005D01*
X141860535Y-77285120D01*
X142055120Y-77090535D01*
X142208005Y-76861727D01*
X142240000Y-76784485D01*
X142271995Y-76861727D01*
X142424880Y-77090535D01*
X142619465Y-77285120D01*
X142848273Y-77438005D01*
X143102510Y-77543314D01*
X143372408Y-77597000D01*
X143647592Y-77597000D01*
X143917490Y-77543314D01*
X144171727Y-77438005D01*
X144400535Y-77285120D01*
X144595120Y-77090535D01*
X144748005Y-76861727D01*
X144853314Y-76607490D01*
X144907000Y-76337592D01*
X144907000Y-76062408D01*
X144853314Y-75792510D01*
X144748005Y-75538273D01*
X144595120Y-75309465D01*
X144400535Y-75114880D01*
X144171727Y-74961995D01*
X144094485Y-74930000D01*
X144171727Y-74898005D01*
X144400535Y-74745120D01*
X144595120Y-74550535D01*
X144748005Y-74321727D01*
X144853314Y-74067490D01*
X144907000Y-73797592D01*
X144907000Y-73522408D01*
X144853314Y-73252510D01*
X144748005Y-72998273D01*
X144595120Y-72769465D01*
X144400535Y-72574880D01*
X144171727Y-72421995D01*
X144094485Y-72390000D01*
X144171727Y-72358005D01*
X144400535Y-72205120D01*
X144595120Y-72010535D01*
X144748005Y-71781727D01*
X144853314Y-71527490D01*
X144907000Y-71257592D01*
X144907000Y-70982408D01*
X144853314Y-70712510D01*
X144748005Y-70458273D01*
X144595120Y-70229465D01*
X144400535Y-70034880D01*
X144171727Y-69881995D01*
X144094485Y-69850000D01*
X144171727Y-69818005D01*
X144400535Y-69665120D01*
X144595120Y-69470535D01*
X144748005Y-69241727D01*
X144853314Y-68987490D01*
X144907000Y-68717592D01*
X144907000Y-68442408D01*
X144853314Y-68172510D01*
X144748005Y-67918273D01*
X144595120Y-67689465D01*
X144400535Y-67494880D01*
X144171727Y-67341995D01*
X144094485Y-67310000D01*
X144171727Y-67278005D01*
X144400535Y-67125120D01*
X144595120Y-66930535D01*
X144748005Y-66701727D01*
X144853314Y-66447490D01*
X144907000Y-66177592D01*
X144907000Y-65902408D01*
X144853314Y-65632510D01*
X144748005Y-65378273D01*
X144595120Y-65149465D01*
X144400535Y-64954880D01*
X144171727Y-64801995D01*
X144094485Y-64770000D01*
X144171727Y-64738005D01*
X144400535Y-64585120D01*
X144595120Y-64390535D01*
X144748005Y-64161727D01*
X144853314Y-63907490D01*
X144907000Y-63637592D01*
X144907000Y-63362408D01*
X144897320Y-63313740D01*
X169965000Y-63313740D01*
X169965000Y-63606260D01*
X170022068Y-63893158D01*
X170134010Y-64163411D01*
X170296525Y-64406632D01*
X170503368Y-64613475D01*
X170746589Y-64775990D01*
X171016842Y-64887932D01*
X171303740Y-64945000D01*
X171596260Y-64945000D01*
X171883158Y-64887932D01*
X172153411Y-64775990D01*
X172396632Y-64613475D01*
X172603475Y-64406632D01*
X172765990Y-64163411D01*
X172877932Y-63893158D01*
X172935000Y-63606260D01*
X172935000Y-63402490D01*
X180175000Y-63402490D01*
X180175000Y-65297509D01*
X180203722Y-65589127D01*
X180317226Y-65963301D01*
X180501547Y-66308143D01*
X180749602Y-66610398D01*
X181051857Y-66858453D01*
X181396698Y-67042774D01*
X181770872Y-67156278D01*
X182160000Y-67194604D01*
X182549127Y-67156278D01*
X182923301Y-67042774D01*
X183268143Y-66858453D01*
X183570398Y-66610398D01*
X183617381Y-66553148D01*
X185286457Y-66553148D01*
X185562627Y-66971118D01*
X186107557Y-67261649D01*
X186698696Y-67440287D01*
X187313328Y-67500168D01*
X187927831Y-67438990D01*
X188518592Y-67259103D01*
X189057373Y-66971118D01*
X189333543Y-66553148D01*
X199286457Y-66553148D01*
X199562627Y-66971118D01*
X200107557Y-67261649D01*
X200698696Y-67440287D01*
X201313328Y-67500168D01*
X201927831Y-67438990D01*
X202518592Y-67259103D01*
X203057373Y-66971118D01*
X203333543Y-66553148D01*
X201310000Y-64529605D01*
X199286457Y-66553148D01*
X189333543Y-66553148D01*
X187310000Y-64529605D01*
X185286457Y-66553148D01*
X183617381Y-66553148D01*
X183818453Y-66308143D01*
X184002774Y-65963302D01*
X184116278Y-65589128D01*
X184145000Y-65297510D01*
X184145000Y-64353328D01*
X184159832Y-64353328D01*
X184221010Y-64967831D01*
X184400897Y-65558592D01*
X184688882Y-66097373D01*
X185106852Y-66373543D01*
X187130395Y-64350000D01*
X187489605Y-64350000D01*
X189513148Y-66373543D01*
X189931118Y-66097373D01*
X190221649Y-65552443D01*
X190400287Y-64961304D01*
X190459519Y-64353328D01*
X198159832Y-64353328D01*
X198221010Y-64967831D01*
X198400897Y-65558592D01*
X198688882Y-66097373D01*
X199106852Y-66373543D01*
X201130395Y-64350000D01*
X201489605Y-64350000D01*
X203513148Y-66373543D01*
X203931118Y-66097373D01*
X204221649Y-65552443D01*
X204400287Y-64961304D01*
X204460168Y-64346672D01*
X204398990Y-63732169D01*
X204298603Y-63402490D01*
X204475000Y-63402490D01*
X204475000Y-65297509D01*
X204503722Y-65589127D01*
X204617226Y-65963301D01*
X204801547Y-66308143D01*
X205049602Y-66610398D01*
X205351857Y-66858453D01*
X205696698Y-67042774D01*
X206070872Y-67156278D01*
X206460000Y-67194604D01*
X206849127Y-67156278D01*
X207223301Y-67042774D01*
X207568143Y-66858453D01*
X207870398Y-66610398D01*
X208118453Y-66308143D01*
X208302774Y-65963302D01*
X208416278Y-65589128D01*
X208445000Y-65297510D01*
X208445000Y-63402491D01*
X208416278Y-63110873D01*
X208302774Y-62736698D01*
X208118453Y-62391857D01*
X207870398Y-62089602D01*
X207568143Y-61841547D01*
X207223302Y-61657226D01*
X206849128Y-61543722D01*
X206460000Y-61505396D01*
X206070873Y-61543722D01*
X205696699Y-61657226D01*
X205351858Y-61841547D01*
X205049603Y-62089602D01*
X204801548Y-62391857D01*
X204617227Y-62736698D01*
X204503723Y-63110872D01*
X204475000Y-63402490D01*
X204298603Y-63402490D01*
X204219103Y-63141408D01*
X203931118Y-62602627D01*
X203513148Y-62326457D01*
X201489605Y-64350000D01*
X201130395Y-64350000D01*
X199106852Y-62326457D01*
X198688882Y-62602627D01*
X198398351Y-63147557D01*
X198219713Y-63738696D01*
X198159832Y-64353328D01*
X190459519Y-64353328D01*
X190460168Y-64346672D01*
X190398990Y-63732169D01*
X190219103Y-63141408D01*
X189931118Y-62602627D01*
X189513148Y-62326457D01*
X187489605Y-64350000D01*
X187130395Y-64350000D01*
X185106852Y-62326457D01*
X184688882Y-62602627D01*
X184398351Y-63147557D01*
X184219713Y-63738696D01*
X184159832Y-64353328D01*
X184145000Y-64353328D01*
X184145000Y-63402491D01*
X184116278Y-63110873D01*
X184002774Y-62736698D01*
X183818453Y-62391857D01*
X183617382Y-62146852D01*
X185286457Y-62146852D01*
X187310000Y-64170395D01*
X189333543Y-62146852D01*
X199286457Y-62146852D01*
X201310000Y-64170395D01*
X203333543Y-62146852D01*
X203057373Y-61728882D01*
X202512443Y-61438351D01*
X201921304Y-61259713D01*
X201306672Y-61199832D01*
X200692169Y-61261010D01*
X200101408Y-61440897D01*
X199562627Y-61728882D01*
X199286457Y-62146852D01*
X189333543Y-62146852D01*
X189057373Y-61728882D01*
X188512443Y-61438351D01*
X187921304Y-61259713D01*
X187306672Y-61199832D01*
X186692169Y-61261010D01*
X186101408Y-61440897D01*
X185562627Y-61728882D01*
X185286457Y-62146852D01*
X183617382Y-62146852D01*
X183570398Y-62089602D01*
X183268143Y-61841547D01*
X182923302Y-61657226D01*
X182549128Y-61543722D01*
X182160000Y-61505396D01*
X181770873Y-61543722D01*
X181396699Y-61657226D01*
X181051858Y-61841547D01*
X180749603Y-62089602D01*
X180501548Y-62391857D01*
X180317227Y-62736698D01*
X180203723Y-63110872D01*
X180175000Y-63402490D01*
X172935000Y-63402490D01*
X172935000Y-63313740D01*
X172877932Y-63026842D01*
X172765990Y-62756589D01*
X172603475Y-62513368D01*
X172396632Y-62306525D01*
X172153411Y-62144010D01*
X171883158Y-62032068D01*
X171596260Y-61975000D01*
X171303740Y-61975000D01*
X171016842Y-62032068D01*
X170746589Y-62144010D01*
X170503368Y-62306525D01*
X170296525Y-62513368D01*
X170134010Y-62756589D01*
X170022068Y-63026842D01*
X169965000Y-63313740D01*
X144897320Y-63313740D01*
X144853314Y-63092510D01*
X144748005Y-62838273D01*
X144595120Y-62609465D01*
X144400535Y-62414880D01*
X144171727Y-62261995D01*
X144094485Y-62230000D01*
X144171727Y-62198005D01*
X144400535Y-62045120D01*
X144595120Y-61850535D01*
X144748005Y-61621727D01*
X144853314Y-61367490D01*
X144907000Y-61097592D01*
X144907000Y-60822408D01*
X144853314Y-60552510D01*
X144748005Y-60298273D01*
X144595120Y-60069465D01*
X144400535Y-59874880D01*
X144171727Y-59721995D01*
X144094485Y-59690000D01*
X144171727Y-59658005D01*
X144400535Y-59505120D01*
X144486387Y-59419268D01*
X189475000Y-59419268D01*
X189475000Y-59780732D01*
X189545518Y-60135250D01*
X189683844Y-60469199D01*
X189884662Y-60769744D01*
X190140256Y-61025338D01*
X190440801Y-61226156D01*
X190774750Y-61364482D01*
X191129268Y-61435000D01*
X191490732Y-61435000D01*
X191845250Y-61364482D01*
X192179199Y-61226156D01*
X192479744Y-61025338D01*
X192735338Y-60769744D01*
X192936156Y-60469199D01*
X193074482Y-60135250D01*
X193145000Y-59780732D01*
X193145000Y-59419268D01*
X203475000Y-59419268D01*
X203475000Y-59780732D01*
X203545518Y-60135250D01*
X203683844Y-60469199D01*
X203884662Y-60769744D01*
X204140256Y-61025338D01*
X204440801Y-61226156D01*
X204774750Y-61364482D01*
X205129268Y-61435000D01*
X205490732Y-61435000D01*
X205845250Y-61364482D01*
X206179199Y-61226156D01*
X206479744Y-61025338D01*
X206735338Y-60769744D01*
X206936156Y-60469199D01*
X207074482Y-60135250D01*
X207145000Y-59780732D01*
X207145000Y-59419268D01*
X207074482Y-59064750D01*
X206936156Y-58730801D01*
X206735338Y-58430256D01*
X206479744Y-58174662D01*
X206179199Y-57973844D01*
X205845250Y-57835518D01*
X205490732Y-57765000D01*
X205129268Y-57765000D01*
X204774750Y-57835518D01*
X204440801Y-57973844D01*
X204140256Y-58174662D01*
X203884662Y-58430256D01*
X203683844Y-58730801D01*
X203545518Y-59064750D01*
X203475000Y-59419268D01*
X193145000Y-59419268D01*
X193074482Y-59064750D01*
X192936156Y-58730801D01*
X192735338Y-58430256D01*
X192479744Y-58174662D01*
X192179199Y-57973844D01*
X191845250Y-57835518D01*
X191490732Y-57765000D01*
X191129268Y-57765000D01*
X190774750Y-57835518D01*
X190440801Y-57973844D01*
X190140256Y-58174662D01*
X189884662Y-58430256D01*
X189683844Y-58730801D01*
X189545518Y-59064750D01*
X189475000Y-59419268D01*
X144486387Y-59419268D01*
X144595120Y-59310535D01*
X144748005Y-59081727D01*
X144853314Y-58827490D01*
X144907000Y-58557592D01*
X144907000Y-58282408D01*
X144853314Y-58012510D01*
X144748005Y-57758273D01*
X144595120Y-57529465D01*
X144400535Y-57334880D01*
X144171727Y-57181995D01*
X144094485Y-57150000D01*
X144171727Y-57118005D01*
X144400535Y-56965120D01*
X144595120Y-56770535D01*
X144748005Y-56541727D01*
X144842440Y-56313740D01*
X169965000Y-56313740D01*
X169965000Y-56606260D01*
X170022068Y-56893158D01*
X170134010Y-57163411D01*
X170296525Y-57406632D01*
X170503368Y-57613475D01*
X170746589Y-57775990D01*
X171016842Y-57887932D01*
X171303740Y-57945000D01*
X171596260Y-57945000D01*
X171883158Y-57887932D01*
X172153411Y-57775990D01*
X172396632Y-57613475D01*
X172603475Y-57406632D01*
X172765990Y-57163411D01*
X172877932Y-56893158D01*
X172935000Y-56606260D01*
X172935000Y-56313740D01*
X172877932Y-56026842D01*
X172765990Y-55756589D01*
X172603475Y-55513368D01*
X172396632Y-55306525D01*
X172153411Y-55144010D01*
X171883158Y-55032068D01*
X171596260Y-54975000D01*
X171303740Y-54975000D01*
X171016842Y-55032068D01*
X170746589Y-55144010D01*
X170503368Y-55306525D01*
X170296525Y-55513368D01*
X170134010Y-55756589D01*
X170022068Y-56026842D01*
X169965000Y-56313740D01*
X144842440Y-56313740D01*
X144853314Y-56287490D01*
X144907000Y-56017592D01*
X144907000Y-55742408D01*
X144853314Y-55472510D01*
X144748005Y-55218273D01*
X144595120Y-54989465D01*
X144400535Y-54794880D01*
X144171727Y-54641995D01*
X144094485Y-54610000D01*
X144171727Y-54578005D01*
X144400535Y-54425120D01*
X144595120Y-54230535D01*
X144748005Y-54001727D01*
X144853314Y-53747490D01*
X144907000Y-53477592D01*
X144907000Y-53202408D01*
X144853314Y-52932510D01*
X144748005Y-52678273D01*
X144595120Y-52449465D01*
X144400535Y-52254880D01*
X144171727Y-52101995D01*
X144094485Y-52070000D01*
X144171727Y-52038005D01*
X144400535Y-51885120D01*
X144595120Y-51690535D01*
X144748005Y-51461727D01*
X144853314Y-51207490D01*
X144907000Y-50937592D01*
X144907000Y-50662408D01*
X144853314Y-50392510D01*
X144748005Y-50138273D01*
X144595120Y-49909465D01*
X144400535Y-49714880D01*
X144171727Y-49561995D01*
X144094485Y-49530000D01*
X144171727Y-49498005D01*
X144400535Y-49345120D01*
X144595120Y-49150535D01*
X144748005Y-48921727D01*
X144853314Y-48667490D01*
X144907000Y-48397592D01*
X144907000Y-48122408D01*
X144853314Y-47852510D01*
X144748005Y-47598273D01*
X144595120Y-47369465D01*
X144400535Y-47174880D01*
X144171727Y-47021995D01*
X144094485Y-46990000D01*
X144171727Y-46958005D01*
X144400535Y-46805120D01*
X144595120Y-46610535D01*
X144748005Y-46381727D01*
X144853314Y-46127490D01*
X144907000Y-45857592D01*
X144907000Y-45582408D01*
X144853314Y-45312510D01*
X144748005Y-45058273D01*
X144704886Y-44993740D01*
X169965000Y-44993740D01*
X169965000Y-45286260D01*
X170022068Y-45573158D01*
X170134010Y-45843411D01*
X170296525Y-46086632D01*
X170503368Y-46293475D01*
X170746589Y-46455990D01*
X171016842Y-46567932D01*
X171303740Y-46625000D01*
X171596260Y-46625000D01*
X171883158Y-46567932D01*
X172153411Y-46455990D01*
X172396632Y-46293475D01*
X172603475Y-46086632D01*
X172765990Y-45843411D01*
X172877932Y-45573158D01*
X172935000Y-45286260D01*
X172935000Y-44993740D01*
X172877932Y-44706842D01*
X172765990Y-44436589D01*
X172603475Y-44193368D01*
X172396632Y-43986525D01*
X172153411Y-43824010D01*
X171883158Y-43712068D01*
X171596260Y-43655000D01*
X171303740Y-43655000D01*
X171016842Y-43712068D01*
X170746589Y-43824010D01*
X170503368Y-43986525D01*
X170296525Y-44193368D01*
X170134010Y-44436589D01*
X170022068Y-44706842D01*
X169965000Y-44993740D01*
X144704886Y-44993740D01*
X144595120Y-44829465D01*
X144400535Y-44634880D01*
X144171727Y-44481995D01*
X144094485Y-44450000D01*
X144171727Y-44418005D01*
X144400535Y-44265120D01*
X144595120Y-44070535D01*
X144748005Y-43841727D01*
X144853314Y-43587490D01*
X144907000Y-43317592D01*
X144907000Y-43042408D01*
X144853314Y-42772510D01*
X144748005Y-42518273D01*
X144595120Y-42289465D01*
X144400535Y-42094880D01*
X144171727Y-41941995D01*
X144094485Y-41910000D01*
X144171727Y-41878005D01*
X144259632Y-41819268D01*
X181475000Y-41819268D01*
X181475000Y-42180732D01*
X181545518Y-42535250D01*
X181683844Y-42869199D01*
X181884662Y-43169744D01*
X182140256Y-43425338D01*
X182440801Y-43626156D01*
X182774750Y-43764482D01*
X183129268Y-43835000D01*
X183490732Y-43835000D01*
X183845250Y-43764482D01*
X184179199Y-43626156D01*
X184479744Y-43425338D01*
X184735338Y-43169744D01*
X184936156Y-42869199D01*
X185074482Y-42535250D01*
X185145000Y-42180732D01*
X185145000Y-41819268D01*
X195475000Y-41819268D01*
X195475000Y-42180732D01*
X195545518Y-42535250D01*
X195683844Y-42869199D01*
X195884662Y-43169744D01*
X196140256Y-43425338D01*
X196440801Y-43626156D01*
X196774750Y-43764482D01*
X197129268Y-43835000D01*
X197490732Y-43835000D01*
X197845250Y-43764482D01*
X198179199Y-43626156D01*
X198479744Y-43425338D01*
X198735338Y-43169744D01*
X198936156Y-42869199D01*
X199074482Y-42535250D01*
X199145000Y-42180732D01*
X199145000Y-41819268D01*
X199074482Y-41464750D01*
X198936156Y-41130801D01*
X198735338Y-40830256D01*
X198479744Y-40574662D01*
X198179199Y-40373844D01*
X197845250Y-40235518D01*
X197490732Y-40165000D01*
X197129268Y-40165000D01*
X196774750Y-40235518D01*
X196440801Y-40373844D01*
X196140256Y-40574662D01*
X195884662Y-40830256D01*
X195683844Y-41130801D01*
X195545518Y-41464750D01*
X195475000Y-41819268D01*
X185145000Y-41819268D01*
X185074482Y-41464750D01*
X184936156Y-41130801D01*
X184735338Y-40830256D01*
X184479744Y-40574662D01*
X184179199Y-40373844D01*
X183845250Y-40235518D01*
X183490732Y-40165000D01*
X183129268Y-40165000D01*
X182774750Y-40235518D01*
X182440801Y-40373844D01*
X182140256Y-40574662D01*
X181884662Y-40830256D01*
X181683844Y-41130801D01*
X181545518Y-41464750D01*
X181475000Y-41819268D01*
X144259632Y-41819268D01*
X144400535Y-41725120D01*
X144595120Y-41530535D01*
X144748005Y-41301727D01*
X144853314Y-41047490D01*
X144907000Y-40777592D01*
X144907000Y-40502408D01*
X144853314Y-40232510D01*
X144748005Y-39978273D01*
X144595120Y-39749465D01*
X144400535Y-39554880D01*
X144171727Y-39401995D01*
X144094485Y-39370000D01*
X144171727Y-39338005D01*
X144400535Y-39185120D01*
X144595120Y-38990535D01*
X144748005Y-38761727D01*
X144853314Y-38507490D01*
X144907000Y-38237592D01*
X144907000Y-37993740D01*
X169965000Y-37993740D01*
X169965000Y-38286260D01*
X170022068Y-38573158D01*
X170134010Y-38843411D01*
X170296525Y-39086632D01*
X170503368Y-39293475D01*
X170746589Y-39455990D01*
X171016842Y-39567932D01*
X171303740Y-39625000D01*
X171596260Y-39625000D01*
X171883158Y-39567932D01*
X172153411Y-39455990D01*
X172396632Y-39293475D01*
X172603475Y-39086632D01*
X172765990Y-38843411D01*
X172877932Y-38573158D01*
X172935000Y-38286260D01*
X172935000Y-37993740D01*
X172877932Y-37706842D01*
X172765990Y-37436589D01*
X172603475Y-37193368D01*
X172396632Y-36986525D01*
X172153411Y-36824010D01*
X171883158Y-36712068D01*
X171596260Y-36655000D01*
X171303740Y-36655000D01*
X171016842Y-36712068D01*
X170746589Y-36824010D01*
X170503368Y-36986525D01*
X170296525Y-37193368D01*
X170134010Y-37436589D01*
X170022068Y-37706842D01*
X169965000Y-37993740D01*
X144907000Y-37993740D01*
X144907000Y-37962408D01*
X144853314Y-37692510D01*
X144748005Y-37438273D01*
X144595120Y-37209465D01*
X144400535Y-37014880D01*
X144171727Y-36861995D01*
X144094485Y-36830000D01*
X144171727Y-36798005D01*
X144400535Y-36645120D01*
X144595120Y-36450535D01*
X144748005Y-36221727D01*
X144853314Y-35967490D01*
X144863378Y-35916890D01*
X147148524Y-35916890D01*
X147193175Y-36064099D01*
X147318359Y-36326920D01*
X147492412Y-36560269D01*
X147708645Y-36755178D01*
X147958748Y-36904157D01*
X148233109Y-37001481D01*
X148463000Y-36880814D01*
X148463000Y-35687000D01*
X148717000Y-35687000D01*
X148717000Y-36880814D01*
X148946891Y-37001481D01*
X149221252Y-36904157D01*
X149471355Y-36755178D01*
X149687588Y-36560269D01*
X149861641Y-36326920D01*
X149873276Y-36302491D01*
X180175000Y-36302491D01*
X180175000Y-38197510D01*
X180203723Y-38489128D01*
X180317227Y-38863302D01*
X180501548Y-39208143D01*
X180749603Y-39510398D01*
X181051858Y-39758453D01*
X181396699Y-39942774D01*
X181770873Y-40056278D01*
X182160000Y-40094604D01*
X182549128Y-40056278D01*
X182923302Y-39942774D01*
X183268143Y-39758453D01*
X183570398Y-39510398D01*
X183617381Y-39453148D01*
X185286457Y-39453148D01*
X185562627Y-39871118D01*
X186107557Y-40161649D01*
X186698696Y-40340287D01*
X187313328Y-40400168D01*
X187927831Y-40338990D01*
X188518592Y-40159103D01*
X189057373Y-39871118D01*
X189333543Y-39453148D01*
X199286457Y-39453148D01*
X199562627Y-39871118D01*
X200107557Y-40161649D01*
X200698696Y-40340287D01*
X201313328Y-40400168D01*
X201927831Y-40338990D01*
X202518592Y-40159103D01*
X203057373Y-39871118D01*
X203333543Y-39453148D01*
X201310000Y-37429605D01*
X199286457Y-39453148D01*
X189333543Y-39453148D01*
X187310000Y-37429605D01*
X185286457Y-39453148D01*
X183617381Y-39453148D01*
X183818453Y-39208143D01*
X184002774Y-38863302D01*
X184116278Y-38489127D01*
X184145000Y-38197509D01*
X184145000Y-37253328D01*
X184159832Y-37253328D01*
X184221010Y-37867831D01*
X184400897Y-38458592D01*
X184688882Y-38997373D01*
X185106852Y-39273543D01*
X187130395Y-37250000D01*
X187489605Y-37250000D01*
X189513148Y-39273543D01*
X189931118Y-38997373D01*
X190221649Y-38452443D01*
X190400287Y-37861304D01*
X190459519Y-37253328D01*
X198159832Y-37253328D01*
X198221010Y-37867831D01*
X198400897Y-38458592D01*
X198688882Y-38997373D01*
X199106852Y-39273543D01*
X201130395Y-37250000D01*
X201489605Y-37250000D01*
X203513148Y-39273543D01*
X203931118Y-38997373D01*
X204221649Y-38452443D01*
X204400287Y-37861304D01*
X204460168Y-37246672D01*
X204398990Y-36632169D01*
X204298603Y-36302491D01*
X204475000Y-36302491D01*
X204475000Y-38197510D01*
X204503723Y-38489128D01*
X204617227Y-38863302D01*
X204801548Y-39208143D01*
X205049603Y-39510398D01*
X205351858Y-39758453D01*
X205696699Y-39942774D01*
X206070873Y-40056278D01*
X206460000Y-40094604D01*
X206849128Y-40056278D01*
X207223302Y-39942774D01*
X207568143Y-39758453D01*
X207870398Y-39510398D01*
X208118453Y-39208143D01*
X208302774Y-38863302D01*
X208416278Y-38489127D01*
X208445000Y-38197509D01*
X208445000Y-36302490D01*
X208416278Y-36010872D01*
X208302774Y-35636698D01*
X208118453Y-35291857D01*
X207870398Y-34989602D01*
X207568143Y-34741547D01*
X207223301Y-34557226D01*
X206849127Y-34443722D01*
X206460000Y-34405396D01*
X206070872Y-34443722D01*
X205696698Y-34557226D01*
X205351857Y-34741547D01*
X205049602Y-34989602D01*
X204801547Y-35291857D01*
X204617226Y-35636699D01*
X204503722Y-36010873D01*
X204475000Y-36302491D01*
X204298603Y-36302491D01*
X204219103Y-36041408D01*
X203931118Y-35502627D01*
X203513148Y-35226457D01*
X201489605Y-37250000D01*
X201130395Y-37250000D01*
X199106852Y-35226457D01*
X198688882Y-35502627D01*
X198398351Y-36047557D01*
X198219713Y-36638696D01*
X198159832Y-37253328D01*
X190459519Y-37253328D01*
X190460168Y-37246672D01*
X190398990Y-36632169D01*
X190219103Y-36041408D01*
X189931118Y-35502627D01*
X189513148Y-35226457D01*
X187489605Y-37250000D01*
X187130395Y-37250000D01*
X185106852Y-35226457D01*
X184688882Y-35502627D01*
X184398351Y-36047557D01*
X184219713Y-36638696D01*
X184159832Y-37253328D01*
X184145000Y-37253328D01*
X184145000Y-36302490D01*
X184116278Y-36010872D01*
X184002774Y-35636698D01*
X183818453Y-35291857D01*
X183617382Y-35046852D01*
X185286457Y-35046852D01*
X187310000Y-37070395D01*
X189333543Y-35046852D01*
X199286457Y-35046852D01*
X201310000Y-37070395D01*
X203333543Y-35046852D01*
X203057373Y-34628882D01*
X202512443Y-34338351D01*
X201921304Y-34159713D01*
X201306672Y-34099832D01*
X200692169Y-34161010D01*
X200101408Y-34340897D01*
X199562627Y-34628882D01*
X199286457Y-35046852D01*
X189333543Y-35046852D01*
X189057373Y-34628882D01*
X188512443Y-34338351D01*
X187921304Y-34159713D01*
X187306672Y-34099832D01*
X186692169Y-34161010D01*
X186101408Y-34340897D01*
X185562627Y-34628882D01*
X185286457Y-35046852D01*
X183617382Y-35046852D01*
X183570398Y-34989602D01*
X183268143Y-34741547D01*
X182923301Y-34557226D01*
X182549127Y-34443722D01*
X182160000Y-34405396D01*
X181770872Y-34443722D01*
X181396698Y-34557226D01*
X181051857Y-34741547D01*
X180749602Y-34989602D01*
X180501547Y-35291857D01*
X180317226Y-35636699D01*
X180203722Y-36010873D01*
X180175000Y-36302491D01*
X149873276Y-36302491D01*
X149986825Y-36064099D01*
X150031476Y-35916890D01*
X149910155Y-35687000D01*
X148717000Y-35687000D01*
X148463000Y-35687000D01*
X147269845Y-35687000D01*
X147148524Y-35916890D01*
X144863378Y-35916890D01*
X144907000Y-35697592D01*
X144907000Y-35422408D01*
X144853314Y-35152510D01*
X144748005Y-34898273D01*
X144595120Y-34669465D01*
X144400535Y-34474880D01*
X144171727Y-34321995D01*
X144094485Y-34290000D01*
X144171727Y-34258005D01*
X144400535Y-34105120D01*
X144595120Y-33910535D01*
X144748005Y-33681727D01*
X144853314Y-33427490D01*
X144907000Y-33157592D01*
X144907000Y-32882408D01*
X144853314Y-32612510D01*
X144748005Y-32358273D01*
X144595120Y-32129465D01*
X144400535Y-31934880D01*
X144171727Y-31781995D01*
X144094485Y-31750000D01*
X144171727Y-31718005D01*
X144400535Y-31565120D01*
X144595120Y-31370535D01*
X144748005Y-31141727D01*
X144853314Y-30887490D01*
X144907000Y-30617592D01*
X144907000Y-30342408D01*
X144853314Y-30072510D01*
X144748005Y-29818273D01*
X144622205Y-29630000D01*
X147101928Y-29630000D01*
X147101928Y-31330000D01*
X147114188Y-31454482D01*
X147150498Y-31574180D01*
X147209463Y-31684494D01*
X147288815Y-31781185D01*
X147385506Y-31860537D01*
X147495820Y-31919502D01*
X147568380Y-31941513D01*
X147436525Y-32073368D01*
X147274010Y-32316589D01*
X147162068Y-32586842D01*
X147105000Y-32873740D01*
X147105000Y-33166260D01*
X147162068Y-33453158D01*
X147274010Y-33723411D01*
X147436525Y-33966632D01*
X147643368Y-34173475D01*
X147825534Y-34295195D01*
X147708645Y-34364822D01*
X147492412Y-34559731D01*
X147318359Y-34793080D01*
X147193175Y-35055901D01*
X147148524Y-35203110D01*
X147269845Y-35433000D01*
X148463000Y-35433000D01*
X148463000Y-35413000D01*
X148717000Y-35413000D01*
X148717000Y-35433000D01*
X149910155Y-35433000D01*
X150031476Y-35203110D01*
X149986825Y-35055901D01*
X149861641Y-34793080D01*
X149687588Y-34559731D01*
X149471355Y-34364822D01*
X149354466Y-34295195D01*
X149536632Y-34173475D01*
X149743475Y-33966632D01*
X149905990Y-33723411D01*
X150017932Y-33453158D01*
X150075000Y-33166260D01*
X150075000Y-32873740D01*
X150017932Y-32586842D01*
X149905990Y-32316589D01*
X149743475Y-32073368D01*
X149611620Y-31941513D01*
X149684180Y-31919502D01*
X149794494Y-31860537D01*
X149891185Y-31781185D01*
X149970537Y-31684494D01*
X150029502Y-31574180D01*
X150065812Y-31454482D01*
X150078072Y-31330000D01*
X150078072Y-29630000D01*
X150065812Y-29505518D01*
X150029502Y-29385820D01*
X149970537Y-29275506D01*
X149891185Y-29178815D01*
X149794494Y-29099463D01*
X149684180Y-29040498D01*
X149564482Y-29004188D01*
X149440000Y-28991928D01*
X147740000Y-28991928D01*
X147615518Y-29004188D01*
X147495820Y-29040498D01*
X147385506Y-29099463D01*
X147288815Y-29178815D01*
X147209463Y-29275506D01*
X147150498Y-29385820D01*
X147114188Y-29505518D01*
X147101928Y-29630000D01*
X144622205Y-29630000D01*
X144595120Y-29589465D01*
X144400535Y-29394880D01*
X144171727Y-29241995D01*
X144094485Y-29210000D01*
X144171727Y-29178005D01*
X144400535Y-29025120D01*
X144595120Y-28830535D01*
X144748005Y-28601727D01*
X144853314Y-28347490D01*
X144907000Y-28077592D01*
X144907000Y-27802408D01*
X144853314Y-27532510D01*
X144748005Y-27278273D01*
X144595120Y-27049465D01*
X144400535Y-26854880D01*
X144171727Y-26701995D01*
X143917490Y-26596686D01*
X143647592Y-26543000D01*
X143372408Y-26543000D01*
X143102510Y-26596686D01*
X142848273Y-26701995D01*
X142619465Y-26854880D01*
X142424880Y-27049465D01*
X142271995Y-27278273D01*
X142240000Y-27355515D01*
X142208005Y-27278273D01*
X142055120Y-27049465D01*
X141860535Y-26854880D01*
X141631727Y-26701995D01*
X141377490Y-26596686D01*
X141107592Y-26543000D01*
X140832408Y-26543000D01*
X140562510Y-26596686D01*
X140308273Y-26701995D01*
X140079465Y-26854880D01*
X139884880Y-27049465D01*
X139731995Y-27278273D01*
X139626686Y-27532510D01*
X139573000Y-27802408D01*
X137845000Y-27802408D01*
X137845000Y-24784050D01*
X147049085Y-24784050D01*
X153184803Y-30919769D01*
%TA.AperFunction,Conductor*%
D18*
G36*
X153184803Y-30919769D02*
G01*
X153205280Y-30944720D01*
X153304871Y-31026453D01*
X153418495Y-31087187D01*
X153541784Y-31124586D01*
X153637875Y-31134050D01*
X153637884Y-31134050D01*
X153669999Y-31137213D01*
X153702114Y-31134050D01*
X208895950Y-31134050D01*
X208895951Y-70465950D01*
X152442354Y-70465950D01*
X152420501Y-70463107D01*
X152378114Y-70465950D01*
X152367875Y-70465950D01*
X152346015Y-70468103D01*
X152291954Y-70471729D01*
X152282027Y-70474405D01*
X152271784Y-70475414D01*
X152219872Y-70491161D01*
X152167559Y-70505264D01*
X152158346Y-70509825D01*
X152148495Y-70512813D01*
X152100678Y-70538372D01*
X152052095Y-70562422D01*
X152043940Y-70568700D01*
X152034871Y-70573547D01*
X151992982Y-70607925D01*
X151950002Y-70641009D01*
X151943228Y-70648757D01*
X151935280Y-70655280D01*
X151900898Y-70697175D01*
X151886449Y-70713701D01*
X151880503Y-70722025D01*
X151853547Y-70754871D01*
X151843155Y-70774312D01*
X145713415Y-79355950D01*
X137845000Y-79355950D01*
X137845000Y-50872017D01*
X139568090Y-50872017D01*
X139609078Y-51144133D01*
X139702364Y-51403023D01*
X139764344Y-51518980D01*
X140004435Y-51585960D01*
X140790395Y-50800000D01*
X140004435Y-50014040D01*
X139764344Y-50081020D01*
X139647244Y-50330048D01*
X139580977Y-50597135D01*
X139568090Y-50872017D01*
X137845000Y-50872017D01*
X137845000Y-45792017D01*
X139568090Y-45792017D01*
X139609078Y-46064133D01*
X139702364Y-46323023D01*
X139764344Y-46438980D01*
X140004435Y-46505960D01*
X140790395Y-45720000D01*
X140004435Y-44934040D01*
X139764344Y-45001020D01*
X139647244Y-45250048D01*
X139580977Y-45517135D01*
X139568090Y-45792017D01*
X137845000Y-45792017D01*
X137845000Y-40712017D01*
X139568090Y-40712017D01*
X139609078Y-40984133D01*
X139702364Y-41243023D01*
X139764344Y-41358980D01*
X140004435Y-41425960D01*
X140790395Y-40640000D01*
X140004435Y-39854040D01*
X139764344Y-39921020D01*
X139647244Y-40170048D01*
X139580977Y-40437135D01*
X139568090Y-40712017D01*
X137845000Y-40712017D01*
X137845000Y-35632017D01*
X139568090Y-35632017D01*
X139609078Y-35904133D01*
X139702364Y-36163023D01*
X139764344Y-36278980D01*
X140004435Y-36345960D01*
X140790395Y-35560000D01*
X140004435Y-34774040D01*
X139764344Y-34841020D01*
X139647244Y-35090048D01*
X139580977Y-35357135D01*
X139568090Y-35632017D01*
X137845000Y-35632017D01*
X137845000Y-30552017D01*
X139568090Y-30552017D01*
X139609078Y-30824133D01*
X139702364Y-31083023D01*
X139764344Y-31198980D01*
X140004435Y-31265960D01*
X140790395Y-30480000D01*
X140004435Y-29694040D01*
X139764344Y-29761020D01*
X139647244Y-30010048D01*
X139580977Y-30277135D01*
X139568090Y-30552017D01*
X137845000Y-30552017D01*
X137845000Y-27802408D01*
X139573000Y-27802408D01*
X139573000Y-28077592D01*
X139626686Y-28347490D01*
X139731995Y-28601727D01*
X139884880Y-28830535D01*
X140079465Y-29025120D01*
X140308273Y-29178005D01*
X140379943Y-29207692D01*
X140366977Y-29212364D01*
X140251020Y-29274344D01*
X140184040Y-29514435D01*
X140970000Y-30300395D01*
X141755960Y-29514435D01*
X141688980Y-29274344D01*
X141553240Y-29210515D01*
X141631727Y-29178005D01*
X141860535Y-29025120D01*
X142055120Y-28830535D01*
X142208005Y-28601727D01*
X142240000Y-28524485D01*
X142271995Y-28601727D01*
X142424880Y-28830535D01*
X142619465Y-29025120D01*
X142848273Y-29178005D01*
X142925515Y-29210000D01*
X142848273Y-29241995D01*
X142619465Y-29394880D01*
X142424880Y-29589465D01*
X142271995Y-29818273D01*
X142242308Y-29889943D01*
X142237636Y-29876977D01*
X142175656Y-29761020D01*
X141935565Y-29694040D01*
X141149605Y-30480000D01*
X141935565Y-31265960D01*
X142175656Y-31198980D01*
X142239485Y-31063240D01*
X142271995Y-31141727D01*
X142424880Y-31370535D01*
X142619465Y-31565120D01*
X142848273Y-31718005D01*
X142925515Y-31750000D01*
X142848273Y-31781995D01*
X142619465Y-31934880D01*
X142424880Y-32129465D01*
X142271995Y-32358273D01*
X142240000Y-32435515D01*
X142208005Y-32358273D01*
X142055120Y-32129465D01*
X141860535Y-31934880D01*
X141631727Y-31781995D01*
X141560057Y-31752308D01*
X141573023Y-31747636D01*
X141688980Y-31685656D01*
X141755960Y-31445565D01*
X140970000Y-30659605D01*
X140184040Y-31445565D01*
X140251020Y-31685656D01*
X140386760Y-31749485D01*
X140308273Y-31781995D01*
X140079465Y-31934880D01*
X139884880Y-32129465D01*
X139731995Y-32358273D01*
X139626686Y-32612510D01*
X139573000Y-32882408D01*
X139573000Y-33157592D01*
X139626686Y-33427490D01*
X139731995Y-33681727D01*
X139884880Y-33910535D01*
X140079465Y-34105120D01*
X140308273Y-34258005D01*
X140379943Y-34287692D01*
X140366977Y-34292364D01*
X140251020Y-34354344D01*
X140184040Y-34594435D01*
X140970000Y-35380395D01*
X141755960Y-34594435D01*
X141688980Y-34354344D01*
X141553240Y-34290515D01*
X141631727Y-34258005D01*
X141860535Y-34105120D01*
X142055120Y-33910535D01*
X142208005Y-33681727D01*
X142240000Y-33604485D01*
X142271995Y-33681727D01*
X142424880Y-33910535D01*
X142619465Y-34105120D01*
X142848273Y-34258005D01*
X142925515Y-34290000D01*
X142848273Y-34321995D01*
X142619465Y-34474880D01*
X142424880Y-34669465D01*
X142271995Y-34898273D01*
X142242308Y-34969943D01*
X142237636Y-34956977D01*
X142175656Y-34841020D01*
X141935565Y-34774040D01*
X141149605Y-35560000D01*
X141935565Y-36345960D01*
X142175656Y-36278980D01*
X142239485Y-36143240D01*
X142271995Y-36221727D01*
X142424880Y-36450535D01*
X142619465Y-36645120D01*
X142848273Y-36798005D01*
X142925515Y-36830000D01*
X142848273Y-36861995D01*
X142619465Y-37014880D01*
X142424880Y-37209465D01*
X142271995Y-37438273D01*
X142240000Y-37515515D01*
X142208005Y-37438273D01*
X142055120Y-37209465D01*
X141860535Y-37014880D01*
X141631727Y-36861995D01*
X141560057Y-36832308D01*
X141573023Y-36827636D01*
X141688980Y-36765656D01*
X141755960Y-36525565D01*
X140970000Y-35739605D01*
X140184040Y-36525565D01*
X140251020Y-36765656D01*
X140386760Y-36829485D01*
X140308273Y-36861995D01*
X140079465Y-37014880D01*
X139884880Y-37209465D01*
X139731995Y-37438273D01*
X139626686Y-37692510D01*
X139573000Y-37962408D01*
X139573000Y-38237592D01*
X139626686Y-38507490D01*
X139731995Y-38761727D01*
X139884880Y-38990535D01*
X140079465Y-39185120D01*
X140308273Y-39338005D01*
X140379943Y-39367692D01*
X140366977Y-39372364D01*
X140251020Y-39434344D01*
X140184040Y-39674435D01*
X140970000Y-40460395D01*
X141755960Y-39674435D01*
X141688980Y-39434344D01*
X141553240Y-39370515D01*
X141631727Y-39338005D01*
X141860535Y-39185120D01*
X142055120Y-38990535D01*
X142208005Y-38761727D01*
X142240000Y-38684485D01*
X142271995Y-38761727D01*
X142424880Y-38990535D01*
X142619465Y-39185120D01*
X142848273Y-39338005D01*
X142925515Y-39370000D01*
X142848273Y-39401995D01*
X142619465Y-39554880D01*
X142424880Y-39749465D01*
X142271995Y-39978273D01*
X142242308Y-40049943D01*
X142237636Y-40036977D01*
X142175656Y-39921020D01*
X141935565Y-39854040D01*
X141149605Y-40640000D01*
X141935565Y-41425960D01*
X142175656Y-41358980D01*
X142239485Y-41223240D01*
X142271995Y-41301727D01*
X142424880Y-41530535D01*
X142619465Y-41725120D01*
X142848273Y-41878005D01*
X142925515Y-41910000D01*
X142848273Y-41941995D01*
X142619465Y-42094880D01*
X142424880Y-42289465D01*
X142271995Y-42518273D01*
X142240000Y-42595515D01*
X142208005Y-42518273D01*
X142055120Y-42289465D01*
X141860535Y-42094880D01*
X141631727Y-41941995D01*
X141560057Y-41912308D01*
X141573023Y-41907636D01*
X141688980Y-41845656D01*
X141755960Y-41605565D01*
X140970000Y-40819605D01*
X140184040Y-41605565D01*
X140251020Y-41845656D01*
X140386760Y-41909485D01*
X140308273Y-41941995D01*
X140079465Y-42094880D01*
X139884880Y-42289465D01*
X139731995Y-42518273D01*
X139626686Y-42772510D01*
X139573000Y-43042408D01*
X139573000Y-43317592D01*
X139626686Y-43587490D01*
X139731995Y-43841727D01*
X139884880Y-44070535D01*
X140079465Y-44265120D01*
X140308273Y-44418005D01*
X140379943Y-44447692D01*
X140366977Y-44452364D01*
X140251020Y-44514344D01*
X140184040Y-44754435D01*
X140970000Y-45540395D01*
X141755960Y-44754435D01*
X141688980Y-44514344D01*
X141553240Y-44450515D01*
X141631727Y-44418005D01*
X141860535Y-44265120D01*
X142055120Y-44070535D01*
X142208005Y-43841727D01*
X142240000Y-43764485D01*
X142271995Y-43841727D01*
X142424880Y-44070535D01*
X142619465Y-44265120D01*
X142848273Y-44418005D01*
X142925515Y-44450000D01*
X142848273Y-44481995D01*
X142619465Y-44634880D01*
X142424880Y-44829465D01*
X142271995Y-45058273D01*
X142242308Y-45129943D01*
X142237636Y-45116977D01*
X142175656Y-45001020D01*
X141935565Y-44934040D01*
X141149605Y-45720000D01*
X141935565Y-46505960D01*
X142175656Y-46438980D01*
X142239485Y-46303240D01*
X142271995Y-46381727D01*
X142424880Y-46610535D01*
X142619465Y-46805120D01*
X142848273Y-46958005D01*
X142925515Y-46990000D01*
X142848273Y-47021995D01*
X142619465Y-47174880D01*
X142424880Y-47369465D01*
X142271995Y-47598273D01*
X142240000Y-47675515D01*
X142208005Y-47598273D01*
X142055120Y-47369465D01*
X141860535Y-47174880D01*
X141631727Y-47021995D01*
X141560057Y-46992308D01*
X141573023Y-46987636D01*
X141688980Y-46925656D01*
X141755960Y-46685565D01*
X140970000Y-45899605D01*
X140184040Y-46685565D01*
X140251020Y-46925656D01*
X140386760Y-46989485D01*
X140308273Y-47021995D01*
X140079465Y-47174880D01*
X139884880Y-47369465D01*
X139731995Y-47598273D01*
X139626686Y-47852510D01*
X139573000Y-48122408D01*
X139573000Y-48397592D01*
X139626686Y-48667490D01*
X139731995Y-48921727D01*
X139884880Y-49150535D01*
X140079465Y-49345120D01*
X140308273Y-49498005D01*
X140379943Y-49527692D01*
X140366977Y-49532364D01*
X140251020Y-49594344D01*
X140184040Y-49834435D01*
X140970000Y-50620395D01*
X141755960Y-49834435D01*
X141688980Y-49594344D01*
X141553240Y-49530515D01*
X141631727Y-49498005D01*
X141860535Y-49345120D01*
X142055120Y-49150535D01*
X142208005Y-48921727D01*
X142240000Y-48844485D01*
X142271995Y-48921727D01*
X142424880Y-49150535D01*
X142619465Y-49345120D01*
X142848273Y-49498005D01*
X142925515Y-49530000D01*
X142848273Y-49561995D01*
X142619465Y-49714880D01*
X142424880Y-49909465D01*
X142271995Y-50138273D01*
X142242308Y-50209943D01*
X142237636Y-50196977D01*
X142175656Y-50081020D01*
X141935565Y-50014040D01*
X141149605Y-50800000D01*
X141935565Y-51585960D01*
X142175656Y-51518980D01*
X142239485Y-51383240D01*
X142271995Y-51461727D01*
X142424880Y-51690535D01*
X142619465Y-51885120D01*
X142848273Y-52038005D01*
X142925515Y-52070000D01*
X142848273Y-52101995D01*
X142619465Y-52254880D01*
X142424880Y-52449465D01*
X142271995Y-52678273D01*
X142240000Y-52755515D01*
X142208005Y-52678273D01*
X142055120Y-52449465D01*
X141860535Y-52254880D01*
X141631727Y-52101995D01*
X141560057Y-52072308D01*
X141573023Y-52067636D01*
X141688980Y-52005656D01*
X141755960Y-51765565D01*
X140970000Y-50979605D01*
X140184040Y-51765565D01*
X140251020Y-52005656D01*
X140386760Y-52069485D01*
X140308273Y-52101995D01*
X140079465Y-52254880D01*
X139884880Y-52449465D01*
X139731995Y-52678273D01*
X139626686Y-52932510D01*
X139573000Y-53202408D01*
X139573000Y-53477592D01*
X139626686Y-53747490D01*
X139731995Y-54001727D01*
X139884880Y-54230535D01*
X140079465Y-54425120D01*
X140308273Y-54578005D01*
X140385515Y-54610000D01*
X140308273Y-54641995D01*
X140079465Y-54794880D01*
X139884880Y-54989465D01*
X139731995Y-55218273D01*
X139626686Y-55472510D01*
X139573000Y-55742408D01*
X139573000Y-56017592D01*
X139626686Y-56287490D01*
X139731995Y-56541727D01*
X139884880Y-56770535D01*
X140079465Y-56965120D01*
X140308273Y-57118005D01*
X140385515Y-57150000D01*
X140308273Y-57181995D01*
X140079465Y-57334880D01*
X139884880Y-57529465D01*
X139731995Y-57758273D01*
X139626686Y-58012510D01*
X139573000Y-58282408D01*
X139573000Y-58557592D01*
X139626686Y-58827490D01*
X139731995Y-59081727D01*
X139884880Y-59310535D01*
X140079465Y-59505120D01*
X140308273Y-59658005D01*
X140385515Y-59690000D01*
X140308273Y-59721995D01*
X140079465Y-59874880D01*
X139884880Y-60069465D01*
X139731995Y-60298273D01*
X139626686Y-60552510D01*
X139573000Y-60822408D01*
X139573000Y-61097592D01*
X139626686Y-61367490D01*
X139731995Y-61621727D01*
X139884880Y-61850535D01*
X140079465Y-62045120D01*
X140308273Y-62198005D01*
X140385515Y-62230000D01*
X140308273Y-62261995D01*
X140079465Y-62414880D01*
X139884880Y-62609465D01*
X139731995Y-62838273D01*
X139626686Y-63092510D01*
X139573000Y-63362408D01*
X139573000Y-63637592D01*
X139626686Y-63907490D01*
X139731995Y-64161727D01*
X139884880Y-64390535D01*
X140079465Y-64585120D01*
X140308273Y-64738005D01*
X140385515Y-64770000D01*
X140308273Y-64801995D01*
X140079465Y-64954880D01*
X139884880Y-65149465D01*
X139731995Y-65378273D01*
X139626686Y-65632510D01*
X139573000Y-65902408D01*
X139573000Y-66177592D01*
X139626686Y-66447490D01*
X139731995Y-66701727D01*
X139884880Y-66930535D01*
X140079465Y-67125120D01*
X140308273Y-67278005D01*
X140385515Y-67310000D01*
X140308273Y-67341995D01*
X140079465Y-67494880D01*
X139884880Y-67689465D01*
X139731995Y-67918273D01*
X139626686Y-68172510D01*
X139573000Y-68442408D01*
X139573000Y-68717592D01*
X139626686Y-68987490D01*
X139731995Y-69241727D01*
X139884880Y-69470535D01*
X140079465Y-69665120D01*
X140308273Y-69818005D01*
X140385515Y-69850000D01*
X140308273Y-69881995D01*
X140079465Y-70034880D01*
X139884880Y-70229465D01*
X139731995Y-70458273D01*
X139626686Y-70712510D01*
X139573000Y-70982408D01*
X139573000Y-71257592D01*
X139626686Y-71527490D01*
X139731995Y-71781727D01*
X139884880Y-72010535D01*
X140079465Y-72205120D01*
X140308273Y-72358005D01*
X140385515Y-72390000D01*
X140308273Y-72421995D01*
X140079465Y-72574880D01*
X139884880Y-72769465D01*
X139731995Y-72998273D01*
X139626686Y-73252510D01*
X139573000Y-73522408D01*
X139573000Y-73797592D01*
X139626686Y-74067490D01*
X139731995Y-74321727D01*
X139884880Y-74550535D01*
X140079465Y-74745120D01*
X140308273Y-74898005D01*
X140385515Y-74930000D01*
X140308273Y-74961995D01*
X140079465Y-75114880D01*
X139884880Y-75309465D01*
X139731995Y-75538273D01*
X139626686Y-75792510D01*
X139573000Y-76062408D01*
X139573000Y-76337592D01*
X139626686Y-76607490D01*
X139731995Y-76861727D01*
X139884880Y-77090535D01*
X140079465Y-77285120D01*
X140308273Y-77438005D01*
X140562510Y-77543314D01*
X140832408Y-77597000D01*
X141107592Y-77597000D01*
X141377490Y-77543314D01*
X141631727Y-77438005D01*
X141860535Y-77285120D01*
X142055120Y-77090535D01*
X142208005Y-76861727D01*
X142240000Y-76784485D01*
X142271995Y-76861727D01*
X142424880Y-77090535D01*
X142619465Y-77285120D01*
X142848273Y-77438005D01*
X143102510Y-77543314D01*
X143372408Y-77597000D01*
X143647592Y-77597000D01*
X143917490Y-77543314D01*
X144171727Y-77438005D01*
X144400535Y-77285120D01*
X144595120Y-77090535D01*
X144748005Y-76861727D01*
X144853314Y-76607490D01*
X144907000Y-76337592D01*
X144907000Y-76062408D01*
X144853314Y-75792510D01*
X144748005Y-75538273D01*
X144595120Y-75309465D01*
X144400535Y-75114880D01*
X144171727Y-74961995D01*
X144094485Y-74930000D01*
X144171727Y-74898005D01*
X144400535Y-74745120D01*
X144595120Y-74550535D01*
X144748005Y-74321727D01*
X144853314Y-74067490D01*
X144907000Y-73797592D01*
X144907000Y-73522408D01*
X144853314Y-73252510D01*
X144748005Y-72998273D01*
X144595120Y-72769465D01*
X144400535Y-72574880D01*
X144171727Y-72421995D01*
X144094485Y-72390000D01*
X144171727Y-72358005D01*
X144400535Y-72205120D01*
X144595120Y-72010535D01*
X144748005Y-71781727D01*
X144853314Y-71527490D01*
X144907000Y-71257592D01*
X144907000Y-70982408D01*
X144853314Y-70712510D01*
X144748005Y-70458273D01*
X144595120Y-70229465D01*
X144400535Y-70034880D01*
X144171727Y-69881995D01*
X144094485Y-69850000D01*
X144171727Y-69818005D01*
X144400535Y-69665120D01*
X144595120Y-69470535D01*
X144748005Y-69241727D01*
X144853314Y-68987490D01*
X144907000Y-68717592D01*
X144907000Y-68442408D01*
X144853314Y-68172510D01*
X144748005Y-67918273D01*
X144595120Y-67689465D01*
X144400535Y-67494880D01*
X144171727Y-67341995D01*
X144094485Y-67310000D01*
X144171727Y-67278005D01*
X144400535Y-67125120D01*
X144595120Y-66930535D01*
X144748005Y-66701727D01*
X144853314Y-66447490D01*
X144907000Y-66177592D01*
X144907000Y-65902408D01*
X144853314Y-65632510D01*
X144748005Y-65378273D01*
X144595120Y-65149465D01*
X144400535Y-64954880D01*
X144171727Y-64801995D01*
X144094485Y-64770000D01*
X144171727Y-64738005D01*
X144400535Y-64585120D01*
X144595120Y-64390535D01*
X144748005Y-64161727D01*
X144853314Y-63907490D01*
X144907000Y-63637592D01*
X144907000Y-63362408D01*
X144897320Y-63313740D01*
X169965000Y-63313740D01*
X169965000Y-63606260D01*
X170022068Y-63893158D01*
X170134010Y-64163411D01*
X170296525Y-64406632D01*
X170503368Y-64613475D01*
X170746589Y-64775990D01*
X171016842Y-64887932D01*
X171303740Y-64945000D01*
X171596260Y-64945000D01*
X171883158Y-64887932D01*
X172153411Y-64775990D01*
X172396632Y-64613475D01*
X172603475Y-64406632D01*
X172765990Y-64163411D01*
X172877932Y-63893158D01*
X172935000Y-63606260D01*
X172935000Y-63402490D01*
X180175000Y-63402490D01*
X180175000Y-65297509D01*
X180203722Y-65589127D01*
X180317226Y-65963301D01*
X180501547Y-66308143D01*
X180749602Y-66610398D01*
X181051857Y-66858453D01*
X181396698Y-67042774D01*
X181770872Y-67156278D01*
X182160000Y-67194604D01*
X182549127Y-67156278D01*
X182923301Y-67042774D01*
X183268143Y-66858453D01*
X183570398Y-66610398D01*
X183617381Y-66553148D01*
X185286457Y-66553148D01*
X185562627Y-66971118D01*
X186107557Y-67261649D01*
X186698696Y-67440287D01*
X187313328Y-67500168D01*
X187927831Y-67438990D01*
X188518592Y-67259103D01*
X189057373Y-66971118D01*
X189333543Y-66553148D01*
X199286457Y-66553148D01*
X199562627Y-66971118D01*
X200107557Y-67261649D01*
X200698696Y-67440287D01*
X201313328Y-67500168D01*
X201927831Y-67438990D01*
X202518592Y-67259103D01*
X203057373Y-66971118D01*
X203333543Y-66553148D01*
X201310000Y-64529605D01*
X199286457Y-66553148D01*
X189333543Y-66553148D01*
X187310000Y-64529605D01*
X185286457Y-66553148D01*
X183617381Y-66553148D01*
X183818453Y-66308143D01*
X184002774Y-65963302D01*
X184116278Y-65589128D01*
X184145000Y-65297510D01*
X184145000Y-64353328D01*
X184159832Y-64353328D01*
X184221010Y-64967831D01*
X184400897Y-65558592D01*
X184688882Y-66097373D01*
X185106852Y-66373543D01*
X187130395Y-64350000D01*
X187489605Y-64350000D01*
X189513148Y-66373543D01*
X189931118Y-66097373D01*
X190221649Y-65552443D01*
X190400287Y-64961304D01*
X190459519Y-64353328D01*
X198159832Y-64353328D01*
X198221010Y-64967831D01*
X198400897Y-65558592D01*
X198688882Y-66097373D01*
X199106852Y-66373543D01*
X201130395Y-64350000D01*
X201489605Y-64350000D01*
X203513148Y-66373543D01*
X203931118Y-66097373D01*
X204221649Y-65552443D01*
X204400287Y-64961304D01*
X204460168Y-64346672D01*
X204398990Y-63732169D01*
X204298603Y-63402490D01*
X204475000Y-63402490D01*
X204475000Y-65297509D01*
X204503722Y-65589127D01*
X204617226Y-65963301D01*
X204801547Y-66308143D01*
X205049602Y-66610398D01*
X205351857Y-66858453D01*
X205696698Y-67042774D01*
X206070872Y-67156278D01*
X206460000Y-67194604D01*
X206849127Y-67156278D01*
X207223301Y-67042774D01*
X207568143Y-66858453D01*
X207870398Y-66610398D01*
X208118453Y-66308143D01*
X208302774Y-65963302D01*
X208416278Y-65589128D01*
X208445000Y-65297510D01*
X208445000Y-63402491D01*
X208416278Y-63110873D01*
X208302774Y-62736698D01*
X208118453Y-62391857D01*
X207870398Y-62089602D01*
X207568143Y-61841547D01*
X207223302Y-61657226D01*
X206849128Y-61543722D01*
X206460000Y-61505396D01*
X206070873Y-61543722D01*
X205696699Y-61657226D01*
X205351858Y-61841547D01*
X205049603Y-62089602D01*
X204801548Y-62391857D01*
X204617227Y-62736698D01*
X204503723Y-63110872D01*
X204475000Y-63402490D01*
X204298603Y-63402490D01*
X204219103Y-63141408D01*
X203931118Y-62602627D01*
X203513148Y-62326457D01*
X201489605Y-64350000D01*
X201130395Y-64350000D01*
X199106852Y-62326457D01*
X198688882Y-62602627D01*
X198398351Y-63147557D01*
X198219713Y-63738696D01*
X198159832Y-64353328D01*
X190459519Y-64353328D01*
X190460168Y-64346672D01*
X190398990Y-63732169D01*
X190219103Y-63141408D01*
X189931118Y-62602627D01*
X189513148Y-62326457D01*
X187489605Y-64350000D01*
X187130395Y-64350000D01*
X185106852Y-62326457D01*
X184688882Y-62602627D01*
X184398351Y-63147557D01*
X184219713Y-63738696D01*
X184159832Y-64353328D01*
X184145000Y-64353328D01*
X184145000Y-63402491D01*
X184116278Y-63110873D01*
X184002774Y-62736698D01*
X183818453Y-62391857D01*
X183617382Y-62146852D01*
X185286457Y-62146852D01*
X187310000Y-64170395D01*
X189333543Y-62146852D01*
X199286457Y-62146852D01*
X201310000Y-64170395D01*
X203333543Y-62146852D01*
X203057373Y-61728882D01*
X202512443Y-61438351D01*
X201921304Y-61259713D01*
X201306672Y-61199832D01*
X200692169Y-61261010D01*
X200101408Y-61440897D01*
X199562627Y-61728882D01*
X199286457Y-62146852D01*
X189333543Y-62146852D01*
X189057373Y-61728882D01*
X188512443Y-61438351D01*
X187921304Y-61259713D01*
X187306672Y-61199832D01*
X186692169Y-61261010D01*
X186101408Y-61440897D01*
X185562627Y-61728882D01*
X185286457Y-62146852D01*
X183617382Y-62146852D01*
X183570398Y-62089602D01*
X183268143Y-61841547D01*
X182923302Y-61657226D01*
X182549128Y-61543722D01*
X182160000Y-61505396D01*
X181770873Y-61543722D01*
X181396699Y-61657226D01*
X181051858Y-61841547D01*
X180749603Y-62089602D01*
X180501548Y-62391857D01*
X180317227Y-62736698D01*
X180203723Y-63110872D01*
X180175000Y-63402490D01*
X172935000Y-63402490D01*
X172935000Y-63313740D01*
X172877932Y-63026842D01*
X172765990Y-62756589D01*
X172603475Y-62513368D01*
X172396632Y-62306525D01*
X172153411Y-62144010D01*
X171883158Y-62032068D01*
X171596260Y-61975000D01*
X171303740Y-61975000D01*
X171016842Y-62032068D01*
X170746589Y-62144010D01*
X170503368Y-62306525D01*
X170296525Y-62513368D01*
X170134010Y-62756589D01*
X170022068Y-63026842D01*
X169965000Y-63313740D01*
X144897320Y-63313740D01*
X144853314Y-63092510D01*
X144748005Y-62838273D01*
X144595120Y-62609465D01*
X144400535Y-62414880D01*
X144171727Y-62261995D01*
X144094485Y-62230000D01*
X144171727Y-62198005D01*
X144400535Y-62045120D01*
X144595120Y-61850535D01*
X144748005Y-61621727D01*
X144853314Y-61367490D01*
X144907000Y-61097592D01*
X144907000Y-60822408D01*
X144853314Y-60552510D01*
X144748005Y-60298273D01*
X144595120Y-60069465D01*
X144400535Y-59874880D01*
X144171727Y-59721995D01*
X144094485Y-59690000D01*
X144171727Y-59658005D01*
X144400535Y-59505120D01*
X144486387Y-59419268D01*
X189475000Y-59419268D01*
X189475000Y-59780732D01*
X189545518Y-60135250D01*
X189683844Y-60469199D01*
X189884662Y-60769744D01*
X190140256Y-61025338D01*
X190440801Y-61226156D01*
X190774750Y-61364482D01*
X191129268Y-61435000D01*
X191490732Y-61435000D01*
X191845250Y-61364482D01*
X192179199Y-61226156D01*
X192479744Y-61025338D01*
X192735338Y-60769744D01*
X192936156Y-60469199D01*
X193074482Y-60135250D01*
X193145000Y-59780732D01*
X193145000Y-59419268D01*
X203475000Y-59419268D01*
X203475000Y-59780732D01*
X203545518Y-60135250D01*
X203683844Y-60469199D01*
X203884662Y-60769744D01*
X204140256Y-61025338D01*
X204440801Y-61226156D01*
X204774750Y-61364482D01*
X205129268Y-61435000D01*
X205490732Y-61435000D01*
X205845250Y-61364482D01*
X206179199Y-61226156D01*
X206479744Y-61025338D01*
X206735338Y-60769744D01*
X206936156Y-60469199D01*
X207074482Y-60135250D01*
X207145000Y-59780732D01*
X207145000Y-59419268D01*
X207074482Y-59064750D01*
X206936156Y-58730801D01*
X206735338Y-58430256D01*
X206479744Y-58174662D01*
X206179199Y-57973844D01*
X205845250Y-57835518D01*
X205490732Y-57765000D01*
X205129268Y-57765000D01*
X204774750Y-57835518D01*
X204440801Y-57973844D01*
X204140256Y-58174662D01*
X203884662Y-58430256D01*
X203683844Y-58730801D01*
X203545518Y-59064750D01*
X203475000Y-59419268D01*
X193145000Y-59419268D01*
X193074482Y-59064750D01*
X192936156Y-58730801D01*
X192735338Y-58430256D01*
X192479744Y-58174662D01*
X192179199Y-57973844D01*
X191845250Y-57835518D01*
X191490732Y-57765000D01*
X191129268Y-57765000D01*
X190774750Y-57835518D01*
X190440801Y-57973844D01*
X190140256Y-58174662D01*
X189884662Y-58430256D01*
X189683844Y-58730801D01*
X189545518Y-59064750D01*
X189475000Y-59419268D01*
X144486387Y-59419268D01*
X144595120Y-59310535D01*
X144748005Y-59081727D01*
X144853314Y-58827490D01*
X144907000Y-58557592D01*
X144907000Y-58282408D01*
X144853314Y-58012510D01*
X144748005Y-57758273D01*
X144595120Y-57529465D01*
X144400535Y-57334880D01*
X144171727Y-57181995D01*
X144094485Y-57150000D01*
X144171727Y-57118005D01*
X144400535Y-56965120D01*
X144595120Y-56770535D01*
X144748005Y-56541727D01*
X144842440Y-56313740D01*
X169965000Y-56313740D01*
X169965000Y-56606260D01*
X170022068Y-56893158D01*
X170134010Y-57163411D01*
X170296525Y-57406632D01*
X170503368Y-57613475D01*
X170746589Y-57775990D01*
X171016842Y-57887932D01*
X171303740Y-57945000D01*
X171596260Y-57945000D01*
X171883158Y-57887932D01*
X172153411Y-57775990D01*
X172396632Y-57613475D01*
X172603475Y-57406632D01*
X172765990Y-57163411D01*
X172877932Y-56893158D01*
X172935000Y-56606260D01*
X172935000Y-56313740D01*
X172877932Y-56026842D01*
X172765990Y-55756589D01*
X172603475Y-55513368D01*
X172396632Y-55306525D01*
X172153411Y-55144010D01*
X171883158Y-55032068D01*
X171596260Y-54975000D01*
X171303740Y-54975000D01*
X171016842Y-55032068D01*
X170746589Y-55144010D01*
X170503368Y-55306525D01*
X170296525Y-55513368D01*
X170134010Y-55756589D01*
X170022068Y-56026842D01*
X169965000Y-56313740D01*
X144842440Y-56313740D01*
X144853314Y-56287490D01*
X144907000Y-56017592D01*
X144907000Y-55742408D01*
X144853314Y-55472510D01*
X144748005Y-55218273D01*
X144595120Y-54989465D01*
X144400535Y-54794880D01*
X144171727Y-54641995D01*
X144094485Y-54610000D01*
X144171727Y-54578005D01*
X144400535Y-54425120D01*
X144595120Y-54230535D01*
X144748005Y-54001727D01*
X144853314Y-53747490D01*
X144907000Y-53477592D01*
X144907000Y-53202408D01*
X144853314Y-52932510D01*
X144748005Y-52678273D01*
X144595120Y-52449465D01*
X144400535Y-52254880D01*
X144171727Y-52101995D01*
X144094485Y-52070000D01*
X144171727Y-52038005D01*
X144400535Y-51885120D01*
X144595120Y-51690535D01*
X144748005Y-51461727D01*
X144853314Y-51207490D01*
X144907000Y-50937592D01*
X144907000Y-50662408D01*
X144853314Y-50392510D01*
X144748005Y-50138273D01*
X144595120Y-49909465D01*
X144400535Y-49714880D01*
X144171727Y-49561995D01*
X144094485Y-49530000D01*
X144171727Y-49498005D01*
X144400535Y-49345120D01*
X144595120Y-49150535D01*
X144748005Y-48921727D01*
X144853314Y-48667490D01*
X144907000Y-48397592D01*
X144907000Y-48122408D01*
X144853314Y-47852510D01*
X144748005Y-47598273D01*
X144595120Y-47369465D01*
X144400535Y-47174880D01*
X144171727Y-47021995D01*
X144094485Y-46990000D01*
X144171727Y-46958005D01*
X144400535Y-46805120D01*
X144595120Y-46610535D01*
X144748005Y-46381727D01*
X144853314Y-46127490D01*
X144907000Y-45857592D01*
X144907000Y-45582408D01*
X144853314Y-45312510D01*
X144748005Y-45058273D01*
X144704886Y-44993740D01*
X169965000Y-44993740D01*
X169965000Y-45286260D01*
X170022068Y-45573158D01*
X170134010Y-45843411D01*
X170296525Y-46086632D01*
X170503368Y-46293475D01*
X170746589Y-46455990D01*
X171016842Y-46567932D01*
X171303740Y-46625000D01*
X171596260Y-46625000D01*
X171883158Y-46567932D01*
X172153411Y-46455990D01*
X172396632Y-46293475D01*
X172603475Y-46086632D01*
X172765990Y-45843411D01*
X172877932Y-45573158D01*
X172935000Y-45286260D01*
X172935000Y-44993740D01*
X172877932Y-44706842D01*
X172765990Y-44436589D01*
X172603475Y-44193368D01*
X172396632Y-43986525D01*
X172153411Y-43824010D01*
X171883158Y-43712068D01*
X171596260Y-43655000D01*
X171303740Y-43655000D01*
X171016842Y-43712068D01*
X170746589Y-43824010D01*
X170503368Y-43986525D01*
X170296525Y-44193368D01*
X170134010Y-44436589D01*
X170022068Y-44706842D01*
X169965000Y-44993740D01*
X144704886Y-44993740D01*
X144595120Y-44829465D01*
X144400535Y-44634880D01*
X144171727Y-44481995D01*
X144094485Y-44450000D01*
X144171727Y-44418005D01*
X144400535Y-44265120D01*
X144595120Y-44070535D01*
X144748005Y-43841727D01*
X144853314Y-43587490D01*
X144907000Y-43317592D01*
X144907000Y-43042408D01*
X144853314Y-42772510D01*
X144748005Y-42518273D01*
X144595120Y-42289465D01*
X144400535Y-42094880D01*
X144171727Y-41941995D01*
X144094485Y-41910000D01*
X144171727Y-41878005D01*
X144259632Y-41819268D01*
X181475000Y-41819268D01*
X181475000Y-42180732D01*
X181545518Y-42535250D01*
X181683844Y-42869199D01*
X181884662Y-43169744D01*
X182140256Y-43425338D01*
X182440801Y-43626156D01*
X182774750Y-43764482D01*
X183129268Y-43835000D01*
X183490732Y-43835000D01*
X183845250Y-43764482D01*
X184179199Y-43626156D01*
X184479744Y-43425338D01*
X184735338Y-43169744D01*
X184936156Y-42869199D01*
X185074482Y-42535250D01*
X185145000Y-42180732D01*
X185145000Y-41819268D01*
X195475000Y-41819268D01*
X195475000Y-42180732D01*
X195545518Y-42535250D01*
X195683844Y-42869199D01*
X195884662Y-43169744D01*
X196140256Y-43425338D01*
X196440801Y-43626156D01*
X196774750Y-43764482D01*
X197129268Y-43835000D01*
X197490732Y-43835000D01*
X197845250Y-43764482D01*
X198179199Y-43626156D01*
X198479744Y-43425338D01*
X198735338Y-43169744D01*
X198936156Y-42869199D01*
X199074482Y-42535250D01*
X199145000Y-42180732D01*
X199145000Y-41819268D01*
X199074482Y-41464750D01*
X198936156Y-41130801D01*
X198735338Y-40830256D01*
X198479744Y-40574662D01*
X198179199Y-40373844D01*
X197845250Y-40235518D01*
X197490732Y-40165000D01*
X197129268Y-40165000D01*
X196774750Y-40235518D01*
X196440801Y-40373844D01*
X196140256Y-40574662D01*
X195884662Y-40830256D01*
X195683844Y-41130801D01*
X195545518Y-41464750D01*
X195475000Y-41819268D01*
X185145000Y-41819268D01*
X185074482Y-41464750D01*
X184936156Y-41130801D01*
X184735338Y-40830256D01*
X184479744Y-40574662D01*
X184179199Y-40373844D01*
X183845250Y-40235518D01*
X183490732Y-40165000D01*
X183129268Y-40165000D01*
X182774750Y-40235518D01*
X182440801Y-40373844D01*
X182140256Y-40574662D01*
X181884662Y-40830256D01*
X181683844Y-41130801D01*
X181545518Y-41464750D01*
X181475000Y-41819268D01*
X144259632Y-41819268D01*
X144400535Y-41725120D01*
X144595120Y-41530535D01*
X144748005Y-41301727D01*
X144853314Y-41047490D01*
X144907000Y-40777592D01*
X144907000Y-40502408D01*
X144853314Y-40232510D01*
X144748005Y-39978273D01*
X144595120Y-39749465D01*
X144400535Y-39554880D01*
X144171727Y-39401995D01*
X144094485Y-39370000D01*
X144171727Y-39338005D01*
X144400535Y-39185120D01*
X144595120Y-38990535D01*
X144748005Y-38761727D01*
X144853314Y-38507490D01*
X144907000Y-38237592D01*
X144907000Y-37993740D01*
X169965000Y-37993740D01*
X169965000Y-38286260D01*
X170022068Y-38573158D01*
X170134010Y-38843411D01*
X170296525Y-39086632D01*
X170503368Y-39293475D01*
X170746589Y-39455990D01*
X171016842Y-39567932D01*
X171303740Y-39625000D01*
X171596260Y-39625000D01*
X171883158Y-39567932D01*
X172153411Y-39455990D01*
X172396632Y-39293475D01*
X172603475Y-39086632D01*
X172765990Y-38843411D01*
X172877932Y-38573158D01*
X172935000Y-38286260D01*
X172935000Y-37993740D01*
X172877932Y-37706842D01*
X172765990Y-37436589D01*
X172603475Y-37193368D01*
X172396632Y-36986525D01*
X172153411Y-36824010D01*
X171883158Y-36712068D01*
X171596260Y-36655000D01*
X171303740Y-36655000D01*
X171016842Y-36712068D01*
X170746589Y-36824010D01*
X170503368Y-36986525D01*
X170296525Y-37193368D01*
X170134010Y-37436589D01*
X170022068Y-37706842D01*
X169965000Y-37993740D01*
X144907000Y-37993740D01*
X144907000Y-37962408D01*
X144853314Y-37692510D01*
X144748005Y-37438273D01*
X144595120Y-37209465D01*
X144400535Y-37014880D01*
X144171727Y-36861995D01*
X144094485Y-36830000D01*
X144171727Y-36798005D01*
X144400535Y-36645120D01*
X144595120Y-36450535D01*
X144748005Y-36221727D01*
X144853314Y-35967490D01*
X144863378Y-35916890D01*
X147148524Y-35916890D01*
X147193175Y-36064099D01*
X147318359Y-36326920D01*
X147492412Y-36560269D01*
X147708645Y-36755178D01*
X147958748Y-36904157D01*
X148233109Y-37001481D01*
X148463000Y-36880814D01*
X148463000Y-35687000D01*
X148717000Y-35687000D01*
X148717000Y-36880814D01*
X148946891Y-37001481D01*
X149221252Y-36904157D01*
X149471355Y-36755178D01*
X149687588Y-36560269D01*
X149861641Y-36326920D01*
X149873276Y-36302491D01*
X180175000Y-36302491D01*
X180175000Y-38197510D01*
X180203723Y-38489128D01*
X180317227Y-38863302D01*
X180501548Y-39208143D01*
X180749603Y-39510398D01*
X181051858Y-39758453D01*
X181396699Y-39942774D01*
X181770873Y-40056278D01*
X182160000Y-40094604D01*
X182549128Y-40056278D01*
X182923302Y-39942774D01*
X183268143Y-39758453D01*
X183570398Y-39510398D01*
X183617381Y-39453148D01*
X185286457Y-39453148D01*
X185562627Y-39871118D01*
X186107557Y-40161649D01*
X186698696Y-40340287D01*
X187313328Y-40400168D01*
X187927831Y-40338990D01*
X188518592Y-40159103D01*
X189057373Y-39871118D01*
X189333543Y-39453148D01*
X199286457Y-39453148D01*
X199562627Y-39871118D01*
X200107557Y-40161649D01*
X200698696Y-40340287D01*
X201313328Y-40400168D01*
X201927831Y-40338990D01*
X202518592Y-40159103D01*
X203057373Y-39871118D01*
X203333543Y-39453148D01*
X201310000Y-37429605D01*
X199286457Y-39453148D01*
X189333543Y-39453148D01*
X187310000Y-37429605D01*
X185286457Y-39453148D01*
X183617381Y-39453148D01*
X183818453Y-39208143D01*
X184002774Y-38863302D01*
X184116278Y-38489127D01*
X184145000Y-38197509D01*
X184145000Y-37253328D01*
X184159832Y-37253328D01*
X184221010Y-37867831D01*
X184400897Y-38458592D01*
X184688882Y-38997373D01*
X185106852Y-39273543D01*
X187130395Y-37250000D01*
X187489605Y-37250000D01*
X189513148Y-39273543D01*
X189931118Y-38997373D01*
X190221649Y-38452443D01*
X190400287Y-37861304D01*
X190459519Y-37253328D01*
X198159832Y-37253328D01*
X198221010Y-37867831D01*
X198400897Y-38458592D01*
X198688882Y-38997373D01*
X199106852Y-39273543D01*
X201130395Y-37250000D01*
X201489605Y-37250000D01*
X203513148Y-39273543D01*
X203931118Y-38997373D01*
X204221649Y-38452443D01*
X204400287Y-37861304D01*
X204460168Y-37246672D01*
X204398990Y-36632169D01*
X204298603Y-36302491D01*
X204475000Y-36302491D01*
X204475000Y-38197510D01*
X204503723Y-38489128D01*
X204617227Y-38863302D01*
X204801548Y-39208143D01*
X205049603Y-39510398D01*
X205351858Y-39758453D01*
X205696699Y-39942774D01*
X206070873Y-40056278D01*
X206460000Y-40094604D01*
X206849128Y-40056278D01*
X207223302Y-39942774D01*
X207568143Y-39758453D01*
X207870398Y-39510398D01*
X208118453Y-39208143D01*
X208302774Y-38863302D01*
X208416278Y-38489127D01*
X208445000Y-38197509D01*
X208445000Y-36302490D01*
X208416278Y-36010872D01*
X208302774Y-35636698D01*
X208118453Y-35291857D01*
X207870398Y-34989602D01*
X207568143Y-34741547D01*
X207223301Y-34557226D01*
X206849127Y-34443722D01*
X206460000Y-34405396D01*
X206070872Y-34443722D01*
X205696698Y-34557226D01*
X205351857Y-34741547D01*
X205049602Y-34989602D01*
X204801547Y-35291857D01*
X204617226Y-35636699D01*
X204503722Y-36010873D01*
X204475000Y-36302491D01*
X204298603Y-36302491D01*
X204219103Y-36041408D01*
X203931118Y-35502627D01*
X203513148Y-35226457D01*
X201489605Y-37250000D01*
X201130395Y-37250000D01*
X199106852Y-35226457D01*
X198688882Y-35502627D01*
X198398351Y-36047557D01*
X198219713Y-36638696D01*
X198159832Y-37253328D01*
X190459519Y-37253328D01*
X190460168Y-37246672D01*
X190398990Y-36632169D01*
X190219103Y-36041408D01*
X189931118Y-35502627D01*
X189513148Y-35226457D01*
X187489605Y-37250000D01*
X187130395Y-37250000D01*
X185106852Y-35226457D01*
X184688882Y-35502627D01*
X184398351Y-36047557D01*
X184219713Y-36638696D01*
X184159832Y-37253328D01*
X184145000Y-37253328D01*
X184145000Y-36302490D01*
X184116278Y-36010872D01*
X184002774Y-35636698D01*
X183818453Y-35291857D01*
X183617382Y-35046852D01*
X185286457Y-35046852D01*
X187310000Y-37070395D01*
X189333543Y-35046852D01*
X199286457Y-35046852D01*
X201310000Y-37070395D01*
X203333543Y-35046852D01*
X203057373Y-34628882D01*
X202512443Y-34338351D01*
X201921304Y-34159713D01*
X201306672Y-34099832D01*
X200692169Y-34161010D01*
X200101408Y-34340897D01*
X199562627Y-34628882D01*
X199286457Y-35046852D01*
X189333543Y-35046852D01*
X189057373Y-34628882D01*
X188512443Y-34338351D01*
X187921304Y-34159713D01*
X187306672Y-34099832D01*
X186692169Y-34161010D01*
X186101408Y-34340897D01*
X185562627Y-34628882D01*
X185286457Y-35046852D01*
X183617382Y-35046852D01*
X183570398Y-34989602D01*
X183268143Y-34741547D01*
X182923301Y-34557226D01*
X182549127Y-34443722D01*
X182160000Y-34405396D01*
X181770872Y-34443722D01*
X181396698Y-34557226D01*
X181051857Y-34741547D01*
X180749602Y-34989602D01*
X180501547Y-35291857D01*
X180317226Y-35636699D01*
X180203722Y-36010873D01*
X180175000Y-36302491D01*
X149873276Y-36302491D01*
X149986825Y-36064099D01*
X150031476Y-35916890D01*
X149910155Y-35687000D01*
X148717000Y-35687000D01*
X148463000Y-35687000D01*
X147269845Y-35687000D01*
X147148524Y-35916890D01*
X144863378Y-35916890D01*
X144907000Y-35697592D01*
X144907000Y-35422408D01*
X144853314Y-35152510D01*
X144748005Y-34898273D01*
X144595120Y-34669465D01*
X144400535Y-34474880D01*
X144171727Y-34321995D01*
X144094485Y-34290000D01*
X144171727Y-34258005D01*
X144400535Y-34105120D01*
X144595120Y-33910535D01*
X144748005Y-33681727D01*
X144853314Y-33427490D01*
X144907000Y-33157592D01*
X144907000Y-32882408D01*
X144853314Y-32612510D01*
X144748005Y-32358273D01*
X144595120Y-32129465D01*
X144400535Y-31934880D01*
X144171727Y-31781995D01*
X144094485Y-31750000D01*
X144171727Y-31718005D01*
X144400535Y-31565120D01*
X144595120Y-31370535D01*
X144748005Y-31141727D01*
X144853314Y-30887490D01*
X144907000Y-30617592D01*
X144907000Y-30342408D01*
X144853314Y-30072510D01*
X144748005Y-29818273D01*
X144622205Y-29630000D01*
X147101928Y-29630000D01*
X147101928Y-31330000D01*
X147114188Y-31454482D01*
X147150498Y-31574180D01*
X147209463Y-31684494D01*
X147288815Y-31781185D01*
X147385506Y-31860537D01*
X147495820Y-31919502D01*
X147568380Y-31941513D01*
X147436525Y-32073368D01*
X147274010Y-32316589D01*
X147162068Y-32586842D01*
X147105000Y-32873740D01*
X147105000Y-33166260D01*
X147162068Y-33453158D01*
X147274010Y-33723411D01*
X147436525Y-33966632D01*
X147643368Y-34173475D01*
X147825534Y-34295195D01*
X147708645Y-34364822D01*
X147492412Y-34559731D01*
X147318359Y-34793080D01*
X147193175Y-35055901D01*
X147148524Y-35203110D01*
X147269845Y-35433000D01*
X148463000Y-35433000D01*
X148463000Y-35413000D01*
X148717000Y-35413000D01*
X148717000Y-35433000D01*
X149910155Y-35433000D01*
X150031476Y-35203110D01*
X149986825Y-35055901D01*
X149861641Y-34793080D01*
X149687588Y-34559731D01*
X149471355Y-34364822D01*
X149354466Y-34295195D01*
X149536632Y-34173475D01*
X149743475Y-33966632D01*
X149905990Y-33723411D01*
X150017932Y-33453158D01*
X150075000Y-33166260D01*
X150075000Y-32873740D01*
X150017932Y-32586842D01*
X149905990Y-32316589D01*
X149743475Y-32073368D01*
X149611620Y-31941513D01*
X149684180Y-31919502D01*
X149794494Y-31860537D01*
X149891185Y-31781185D01*
X149970537Y-31684494D01*
X150029502Y-31574180D01*
X150065812Y-31454482D01*
X150078072Y-31330000D01*
X150078072Y-29630000D01*
X150065812Y-29505518D01*
X150029502Y-29385820D01*
X149970537Y-29275506D01*
X149891185Y-29178815D01*
X149794494Y-29099463D01*
X149684180Y-29040498D01*
X149564482Y-29004188D01*
X149440000Y-28991928D01*
X147740000Y-28991928D01*
X147615518Y-29004188D01*
X147495820Y-29040498D01*
X147385506Y-29099463D01*
X147288815Y-29178815D01*
X147209463Y-29275506D01*
X147150498Y-29385820D01*
X147114188Y-29505518D01*
X147101928Y-29630000D01*
X144622205Y-29630000D01*
X144595120Y-29589465D01*
X144400535Y-29394880D01*
X144171727Y-29241995D01*
X144094485Y-29210000D01*
X144171727Y-29178005D01*
X144400535Y-29025120D01*
X144595120Y-28830535D01*
X144748005Y-28601727D01*
X144853314Y-28347490D01*
X144907000Y-28077592D01*
X144907000Y-27802408D01*
X144853314Y-27532510D01*
X144748005Y-27278273D01*
X144595120Y-27049465D01*
X144400535Y-26854880D01*
X144171727Y-26701995D01*
X143917490Y-26596686D01*
X143647592Y-26543000D01*
X143372408Y-26543000D01*
X143102510Y-26596686D01*
X142848273Y-26701995D01*
X142619465Y-26854880D01*
X142424880Y-27049465D01*
X142271995Y-27278273D01*
X142240000Y-27355515D01*
X142208005Y-27278273D01*
X142055120Y-27049465D01*
X141860535Y-26854880D01*
X141631727Y-26701995D01*
X141377490Y-26596686D01*
X141107592Y-26543000D01*
X140832408Y-26543000D01*
X140562510Y-26596686D01*
X140308273Y-26701995D01*
X140079465Y-26854880D01*
X139884880Y-27049465D01*
X139731995Y-27278273D01*
X139626686Y-27532510D01*
X139573000Y-27802408D01*
X137845000Y-27802408D01*
X137845000Y-24784050D01*
X147049085Y-24784050D01*
X153184803Y-30919769D01*
G37*
%TD.AperFunction*%
%TD*%
M02*
