%TF.GenerationSoftware,KiCad,Pcbnew,(5.1.10-1-10_14)*%
%TF.CreationDate,2021-10-26T14:16:26-07:00*%
%TF.ProjectId,adc,6164632e-6b69-4636-9164-5f7063625858,rev?*%
%TF.SameCoordinates,Original*%
%TF.FileFunction,Copper,L1,Top*%
%TF.FilePolarity,Positive*%
%FSLAX46Y46*%
G04 Gerber Fmt 4.6, Leading zero omitted, Abs format (unit mm)*
G04 Created by KiCad (PCBNEW (5.1.10-1-10_14)) date 2021-10-26 14:16:26*
%MOMM*%
%LPD*%
G01*
G04 APERTURE LIST*
%TA.AperFunction,ComponentPad*%
%ADD10C,1.524000*%
%TD*%
%TA.AperFunction,ComponentPad*%
%ADD11O,1.700000X1.700000*%
%TD*%
%TA.AperFunction,ComponentPad*%
%ADD12R,1.700000X1.700000*%
%TD*%
%TA.AperFunction,SMDPad,CuDef*%
%ADD13R,2.800000X2.800000*%
%TD*%
%TA.AperFunction,SMDPad,CuDef*%
%ADD14R,2.800000X2.200000*%
%TD*%
%TA.AperFunction,WasherPad*%
%ADD15O,2.700000X4.400000*%
%TD*%
%TA.AperFunction,ComponentPad*%
%ADD16C,5.000000*%
%TD*%
%TA.AperFunction,ComponentPad*%
%ADD17C,2.400000*%
%TD*%
%TA.AperFunction,ViaPad*%
%ADD18C,0.600000*%
%TD*%
%TA.AperFunction,Conductor*%
%ADD19C,0.400000*%
%TD*%
%TA.AperFunction,Conductor*%
%ADD20C,0.127000*%
%TD*%
%TA.AperFunction,Conductor*%
%ADD21C,0.600000*%
%TD*%
%TA.AperFunction,Conductor*%
%ADD22C,0.200000*%
%TD*%
%TA.AperFunction,Conductor*%
%ADD23C,0.254000*%
%TD*%
%TA.AperFunction,Conductor*%
%ADD24C,0.100000*%
%TD*%
G04 APERTURE END LIST*
D10*
%TO.P,J5,1*%
%TO.N,Net-(J5-Pad1)*%
X140970000Y-27940000D03*
%TO.P,J5,2*%
%TO.N,Net-(J5-Pad2)*%
X143510000Y-27940000D03*
%TO.P,J5,3*%
%TO.N,GND*%
X140970000Y-30480000D03*
%TO.P,J5,4*%
%TO.N,Net-(J5-Pad4)*%
X143510000Y-30480000D03*
%TO.P,J5,5*%
%TO.N,+5V*%
X140970000Y-33020000D03*
%TO.P,J5,6*%
%TO.N,Net-(J5-Pad6)*%
X143510000Y-33020000D03*
%TO.P,J5,7*%
%TO.N,GND*%
X140970000Y-35560000D03*
%TO.P,J5,8*%
%TO.N,Net-(J5-Pad8)*%
X143510000Y-35560000D03*
%TO.P,J5,9*%
%TO.N,+3V3*%
X140970000Y-38100000D03*
%TO.P,J5,10*%
%TO.N,Net-(J5-Pad10)*%
X143510000Y-38100000D03*
%TO.P,J5,11*%
%TO.N,GND*%
X140970000Y-40640000D03*
%TO.P,J5,12*%
%TO.N,Net-(J5-Pad12)*%
X143510000Y-40640000D03*
%TO.P,J5,13*%
%TO.N,Net-(J5-Pad13)*%
X140970000Y-43180000D03*
%TO.P,J5,14*%
%TO.N,/PA5_H4*%
X143510000Y-43180000D03*
%TO.P,J5,15*%
%TO.N,GND*%
X140970000Y-45720000D03*
%TO.P,J5,16*%
%TO.N,/PA6_J1*%
X143510000Y-45720000D03*
%TO.P,J5,17*%
%TO.N,Net-(J5-Pad17)*%
X140970000Y-48260000D03*
%TO.P,J5,18*%
%TO.N,/PA7_J2*%
X143510000Y-48260000D03*
%TO.P,J5,19*%
%TO.N,GND*%
X140970000Y-50800000D03*
%TO.P,J5,20*%
%TO.N,/PB6_G12*%
X143510000Y-50800000D03*
%TO.P,J5,21*%
%TO.N,Net-(J5-Pad21)*%
X140970000Y-53340000D03*
%TO.P,J5,22*%
%TO.N,/PC7_H13*%
X143510000Y-53340000D03*
%TO.P,J5,23*%
%TO.N,/PA0*%
X140970000Y-55880000D03*
%TO.P,J5,24*%
%TO.N,/PA9_H10*%
X143510000Y-55880000D03*
%TO.P,J5,25*%
%TO.N,Net-(J5-Pad25)*%
X140970000Y-58420000D03*
%TO.P,J5,26*%
%TO.N,/PA8_J10*%
X143510000Y-58420000D03*
%TO.P,J5,27*%
%TO.N,Net-(J5-Pad27)*%
X140970000Y-60960000D03*
%TO.P,J5,28*%
%TO.N,Net-(J5-Pad28)*%
X143510000Y-60960000D03*
%TO.P,J5,29*%
%TO.N,Net-(J5-Pad29)*%
X140970000Y-63500000D03*
%TO.P,J5,30*%
%TO.N,Net-(J5-Pad30)*%
X143510000Y-63500000D03*
%TO.P,J5,31*%
%TO.N,Net-(J5-Pad31)*%
X140970000Y-66040000D03*
%TO.P,J5,32*%
%TO.N,Net-(J5-Pad32)*%
X143510000Y-66040000D03*
%TO.P,J5,33*%
%TO.N,Net-(J5-Pad33)*%
X140970000Y-68580000D03*
%TO.P,J5,34*%
%TO.N,Net-(J5-Pad34)*%
X143510000Y-68580000D03*
%TO.P,J5,35*%
%TO.N,Net-(J5-Pad35)*%
X140970000Y-71120000D03*
%TO.P,J5,36*%
%TO.N,Net-(J5-Pad36)*%
X143510000Y-71120000D03*
%TO.P,J5,37*%
%TO.N,Net-(J5-Pad37)*%
X140970000Y-73660000D03*
%TO.P,J5,38*%
%TO.N,Net-(J5-Pad38)*%
X143510000Y-73660000D03*
%TO.P,J5,39*%
%TO.N,Net-(J5-Pad39)*%
X140970000Y-76200000D03*
%TO.P,J5,40*%
%TO.N,Net-(J5-Pad40)*%
X143510000Y-76200000D03*
%TD*%
%TO.P,C6,2*%
%TO.N,GND*%
%TA.AperFunction,SMDPad,CuDef*%
G36*
G01*
X156685000Y-45037500D02*
X155735000Y-45037500D01*
G75*
G02*
X155485000Y-44787500I0J250000D01*
G01*
X155485000Y-44112500D01*
G75*
G02*
X155735000Y-43862500I250000J0D01*
G01*
X156685000Y-43862500D01*
G75*
G02*
X156935000Y-44112500I0J-250000D01*
G01*
X156935000Y-44787500D01*
G75*
G02*
X156685000Y-45037500I-250000J0D01*
G01*
G37*
%TD.AperFunction*%
%TO.P,C6,1*%
%TO.N,+3V3*%
%TA.AperFunction,SMDPad,CuDef*%
G36*
G01*
X156685000Y-47112500D02*
X155735000Y-47112500D01*
G75*
G02*
X155485000Y-46862500I0J250000D01*
G01*
X155485000Y-46187500D01*
G75*
G02*
X155735000Y-45937500I250000J0D01*
G01*
X156685000Y-45937500D01*
G75*
G02*
X156935000Y-46187500I0J-250000D01*
G01*
X156935000Y-46862500D01*
G75*
G02*
X156685000Y-47112500I-250000J0D01*
G01*
G37*
%TD.AperFunction*%
%TD*%
%TO.P,C7,2*%
%TO.N,GND*%
%TA.AperFunction,SMDPad,CuDef*%
G36*
G01*
X158275000Y-56330000D02*
X159225000Y-56330000D01*
G75*
G02*
X159475000Y-56580000I0J-250000D01*
G01*
X159475000Y-57255000D01*
G75*
G02*
X159225000Y-57505000I-250000J0D01*
G01*
X158275000Y-57505000D01*
G75*
G02*
X158025000Y-57255000I0J250000D01*
G01*
X158025000Y-56580000D01*
G75*
G02*
X158275000Y-56330000I250000J0D01*
G01*
G37*
%TD.AperFunction*%
%TO.P,C7,1*%
%TO.N,/VREF*%
%TA.AperFunction,SMDPad,CuDef*%
G36*
G01*
X158275000Y-54255000D02*
X159225000Y-54255000D01*
G75*
G02*
X159475000Y-54505000I0J-250000D01*
G01*
X159475000Y-55180000D01*
G75*
G02*
X159225000Y-55430000I-250000J0D01*
G01*
X158275000Y-55430000D01*
G75*
G02*
X158025000Y-55180000I0J250000D01*
G01*
X158025000Y-54505000D01*
G75*
G02*
X158275000Y-54255000I250000J0D01*
G01*
G37*
%TD.AperFunction*%
%TD*%
%TO.P,C5,2*%
%TO.N,GND*%
%TA.AperFunction,SMDPad,CuDef*%
G36*
G01*
X159225000Y-45037500D02*
X158275000Y-45037500D01*
G75*
G02*
X158025000Y-44787500I0J250000D01*
G01*
X158025000Y-44112500D01*
G75*
G02*
X158275000Y-43862500I250000J0D01*
G01*
X159225000Y-43862500D01*
G75*
G02*
X159475000Y-44112500I0J-250000D01*
G01*
X159475000Y-44787500D01*
G75*
G02*
X159225000Y-45037500I-250000J0D01*
G01*
G37*
%TD.AperFunction*%
%TO.P,C5,1*%
%TO.N,+3V3*%
%TA.AperFunction,SMDPad,CuDef*%
G36*
G01*
X159225000Y-47112500D02*
X158275000Y-47112500D01*
G75*
G02*
X158025000Y-46862500I0J250000D01*
G01*
X158025000Y-46187500D01*
G75*
G02*
X158275000Y-45937500I250000J0D01*
G01*
X159225000Y-45937500D01*
G75*
G02*
X159475000Y-46187500I0J-250000D01*
G01*
X159475000Y-46862500D01*
G75*
G02*
X159225000Y-47112500I-250000J0D01*
G01*
G37*
%TD.AperFunction*%
%TD*%
%TO.P,C3,2*%
%TO.N,GND*%
%TA.AperFunction,SMDPad,CuDef*%
G36*
G01*
X161507500Y-50005000D02*
X161507500Y-49055000D01*
G75*
G02*
X161757500Y-48805000I250000J0D01*
G01*
X162432500Y-48805000D01*
G75*
G02*
X162682500Y-49055000I0J-250000D01*
G01*
X162682500Y-50005000D01*
G75*
G02*
X162432500Y-50255000I-250000J0D01*
G01*
X161757500Y-50255000D01*
G75*
G02*
X161507500Y-50005000I0J250000D01*
G01*
G37*
%TD.AperFunction*%
%TO.P,C3,1*%
%TO.N,+5V*%
%TA.AperFunction,SMDPad,CuDef*%
G36*
G01*
X159432500Y-50005000D02*
X159432500Y-49055000D01*
G75*
G02*
X159682500Y-48805000I250000J0D01*
G01*
X160357500Y-48805000D01*
G75*
G02*
X160607500Y-49055000I0J-250000D01*
G01*
X160607500Y-50005000D01*
G75*
G02*
X160357500Y-50255000I-250000J0D01*
G01*
X159682500Y-50255000D01*
G75*
G02*
X159432500Y-50005000I0J250000D01*
G01*
G37*
%TD.AperFunction*%
%TD*%
%TO.P,U1,14*%
%TO.N,/VINR*%
%TA.AperFunction,SMDPad,CuDef*%
G36*
G01*
X149005000Y-52650000D02*
X149005000Y-52850000D01*
G75*
G02*
X148905000Y-52950000I-100000J0D01*
G01*
X147630000Y-52950000D01*
G75*
G02*
X147530000Y-52850000I0J100000D01*
G01*
X147530000Y-52650000D01*
G75*
G02*
X147630000Y-52550000I100000J0D01*
G01*
X148905000Y-52550000D01*
G75*
G02*
X149005000Y-52650000I0J-100000D01*
G01*
G37*
%TD.AperFunction*%
%TO.P,U1,13*%
%TO.N,/VINL*%
%TA.AperFunction,SMDPad,CuDef*%
G36*
G01*
X149005000Y-52000000D02*
X149005000Y-52200000D01*
G75*
G02*
X148905000Y-52300000I-100000J0D01*
G01*
X147630000Y-52300000D01*
G75*
G02*
X147530000Y-52200000I0J100000D01*
G01*
X147530000Y-52000000D01*
G75*
G02*
X147630000Y-51900000I100000J0D01*
G01*
X148905000Y-51900000D01*
G75*
G02*
X149005000Y-52000000I0J-100000D01*
G01*
G37*
%TD.AperFunction*%
%TO.P,U1,12*%
%TO.N,/PA8_J10*%
%TA.AperFunction,SMDPad,CuDef*%
G36*
G01*
X149005000Y-51350000D02*
X149005000Y-51550000D01*
G75*
G02*
X148905000Y-51650000I-100000J0D01*
G01*
X147630000Y-51650000D01*
G75*
G02*
X147530000Y-51550000I0J100000D01*
G01*
X147530000Y-51350000D01*
G75*
G02*
X147630000Y-51250000I100000J0D01*
G01*
X148905000Y-51250000D01*
G75*
G02*
X149005000Y-51350000I0J-100000D01*
G01*
G37*
%TD.AperFunction*%
%TO.P,U1,11*%
%TO.N,/PA9_H10*%
%TA.AperFunction,SMDPad,CuDef*%
G36*
G01*
X149005000Y-50700000D02*
X149005000Y-50900000D01*
G75*
G02*
X148905000Y-51000000I-100000J0D01*
G01*
X147630000Y-51000000D01*
G75*
G02*
X147530000Y-50900000I0J100000D01*
G01*
X147530000Y-50700000D01*
G75*
G02*
X147630000Y-50600000I100000J0D01*
G01*
X148905000Y-50600000D01*
G75*
G02*
X149005000Y-50700000I0J-100000D01*
G01*
G37*
%TD.AperFunction*%
%TO.P,U1,10*%
%TO.N,/PC7_H13*%
%TA.AperFunction,SMDPad,CuDef*%
G36*
G01*
X149005000Y-50050000D02*
X149005000Y-50250000D01*
G75*
G02*
X148905000Y-50350000I-100000J0D01*
G01*
X147630000Y-50350000D01*
G75*
G02*
X147530000Y-50250000I0J100000D01*
G01*
X147530000Y-50050000D01*
G75*
G02*
X147630000Y-49950000I100000J0D01*
G01*
X148905000Y-49950000D01*
G75*
G02*
X149005000Y-50050000I0J-100000D01*
G01*
G37*
%TD.AperFunction*%
%TO.P,U1,9*%
%TO.N,/PB6_G12*%
%TA.AperFunction,SMDPad,CuDef*%
G36*
G01*
X149005000Y-49400000D02*
X149005000Y-49600000D01*
G75*
G02*
X148905000Y-49700000I-100000J0D01*
G01*
X147630000Y-49700000D01*
G75*
G02*
X147530000Y-49600000I0J100000D01*
G01*
X147530000Y-49400000D01*
G75*
G02*
X147630000Y-49300000I100000J0D01*
G01*
X148905000Y-49300000D01*
G75*
G02*
X149005000Y-49400000I0J-100000D01*
G01*
G37*
%TD.AperFunction*%
%TO.P,U1,8*%
%TO.N,/PA7_J2*%
%TA.AperFunction,SMDPad,CuDef*%
G36*
G01*
X149005000Y-48750000D02*
X149005000Y-48950000D01*
G75*
G02*
X148905000Y-49050000I-100000J0D01*
G01*
X147630000Y-49050000D01*
G75*
G02*
X147530000Y-48950000I0J100000D01*
G01*
X147530000Y-48750000D01*
G75*
G02*
X147630000Y-48650000I100000J0D01*
G01*
X148905000Y-48650000D01*
G75*
G02*
X149005000Y-48750000I0J-100000D01*
G01*
G37*
%TD.AperFunction*%
%TO.P,U1,7*%
%TO.N,/PA6_J1*%
%TA.AperFunction,SMDPad,CuDef*%
G36*
G01*
X154730000Y-48750000D02*
X154730000Y-48950000D01*
G75*
G02*
X154630000Y-49050000I-100000J0D01*
G01*
X153355000Y-49050000D01*
G75*
G02*
X153255000Y-48950000I0J100000D01*
G01*
X153255000Y-48750000D01*
G75*
G02*
X153355000Y-48650000I100000J0D01*
G01*
X154630000Y-48650000D01*
G75*
G02*
X154730000Y-48750000I0J-100000D01*
G01*
G37*
%TD.AperFunction*%
%TO.P,U1,6*%
%TO.N,/PA5_H4*%
%TA.AperFunction,SMDPad,CuDef*%
G36*
G01*
X154730000Y-49400000D02*
X154730000Y-49600000D01*
G75*
G02*
X154630000Y-49700000I-100000J0D01*
G01*
X153355000Y-49700000D01*
G75*
G02*
X153255000Y-49600000I0J100000D01*
G01*
X153255000Y-49400000D01*
G75*
G02*
X153355000Y-49300000I100000J0D01*
G01*
X154630000Y-49300000D01*
G75*
G02*
X154730000Y-49400000I0J-100000D01*
G01*
G37*
%TD.AperFunction*%
%TO.P,U1,5*%
%TO.N,GND*%
%TA.AperFunction,SMDPad,CuDef*%
G36*
G01*
X154730000Y-50050000D02*
X154730000Y-50250000D01*
G75*
G02*
X154630000Y-50350000I-100000J0D01*
G01*
X153355000Y-50350000D01*
G75*
G02*
X153255000Y-50250000I0J100000D01*
G01*
X153255000Y-50050000D01*
G75*
G02*
X153355000Y-49950000I100000J0D01*
G01*
X154630000Y-49950000D01*
G75*
G02*
X154730000Y-50050000I0J-100000D01*
G01*
G37*
%TD.AperFunction*%
%TO.P,U1,4*%
%TO.N,+3V3*%
%TA.AperFunction,SMDPad,CuDef*%
G36*
G01*
X154730000Y-50700000D02*
X154730000Y-50900000D01*
G75*
G02*
X154630000Y-51000000I-100000J0D01*
G01*
X153355000Y-51000000D01*
G75*
G02*
X153255000Y-50900000I0J100000D01*
G01*
X153255000Y-50700000D01*
G75*
G02*
X153355000Y-50600000I100000J0D01*
G01*
X154630000Y-50600000D01*
G75*
G02*
X154730000Y-50700000I0J-100000D01*
G01*
G37*
%TD.AperFunction*%
%TO.P,U1,3*%
%TO.N,+5V*%
%TA.AperFunction,SMDPad,CuDef*%
G36*
G01*
X154730000Y-51350000D02*
X154730000Y-51550000D01*
G75*
G02*
X154630000Y-51650000I-100000J0D01*
G01*
X153355000Y-51650000D01*
G75*
G02*
X153255000Y-51550000I0J100000D01*
G01*
X153255000Y-51350000D01*
G75*
G02*
X153355000Y-51250000I100000J0D01*
G01*
X154630000Y-51250000D01*
G75*
G02*
X154730000Y-51350000I0J-100000D01*
G01*
G37*
%TD.AperFunction*%
%TO.P,U1,2*%
%TO.N,GND*%
%TA.AperFunction,SMDPad,CuDef*%
G36*
G01*
X154730000Y-52000000D02*
X154730000Y-52200000D01*
G75*
G02*
X154630000Y-52300000I-100000J0D01*
G01*
X153355000Y-52300000D01*
G75*
G02*
X153255000Y-52200000I0J100000D01*
G01*
X153255000Y-52000000D01*
G75*
G02*
X153355000Y-51900000I100000J0D01*
G01*
X154630000Y-51900000D01*
G75*
G02*
X154730000Y-52000000I0J-100000D01*
G01*
G37*
%TD.AperFunction*%
%TO.P,U1,1*%
%TO.N,/VREF*%
%TA.AperFunction,SMDPad,CuDef*%
G36*
G01*
X154730000Y-52650000D02*
X154730000Y-52850000D01*
G75*
G02*
X154630000Y-52950000I-100000J0D01*
G01*
X153355000Y-52950000D01*
G75*
G02*
X153255000Y-52850000I0J100000D01*
G01*
X153255000Y-52650000D01*
G75*
G02*
X153355000Y-52550000I100000J0D01*
G01*
X154630000Y-52550000D01*
G75*
G02*
X154730000Y-52650000I0J-100000D01*
G01*
G37*
%TD.AperFunction*%
%TD*%
D11*
%TO.P,J8,3*%
%TO.N,GND*%
X148590000Y-35560000D03*
%TO.P,J8,2*%
%TO.N,+5V*%
X148590000Y-33020000D03*
D12*
%TO.P,J8,1*%
%TO.N,/PA0*%
X148590000Y-30480000D03*
%TD*%
D13*
%TO.P,J4,T*%
%TO.N,Net-(C2-Pad1)*%
X167750000Y-46440000D03*
D14*
%TO.P,J4,S*%
%TO.N,GND*%
X167750000Y-37040000D03*
%TO.P,J4,R*%
%TO.N,Net-(C1-Pad1)*%
X175150000Y-39040000D03*
%TD*%
D13*
%TO.P,J3,T*%
%TO.N,Net-(C2-Pad1)*%
X175150000Y-55160000D03*
D14*
%TO.P,J3,S*%
%TO.N,GND*%
X175150000Y-64560000D03*
%TO.P,J3,R*%
%TO.N,Net-(C1-Pad1)*%
X167750000Y-62560000D03*
%TD*%
D15*
%TO.P,J2,*%
%TO.N,*%
X182160000Y-37250000D03*
X206460000Y-37250000D03*
D16*
%TO.P,J2,3*%
%TO.N,GND*%
X187310000Y-37250000D03*
%TO.P,J2,1*%
X201310000Y-37250000D03*
D17*
%TO.P,J2,4*%
%TO.N,Net-(C2-Pad1)*%
X183310000Y-42000000D03*
%TO.P,J2,2*%
%TO.N,Net-(C1-Pad1)*%
X197310000Y-42000000D03*
%TD*%
D15*
%TO.P,J1,*%
%TO.N,*%
X206460000Y-64350000D03*
X182160000Y-64350000D03*
D16*
%TO.P,J1,3*%
%TO.N,GND*%
X201310000Y-64350000D03*
%TO.P,J1,1*%
X187310000Y-64350000D03*
D17*
%TO.P,J1,4*%
%TO.N,Net-(C2-Pad1)*%
X205310000Y-59600000D03*
%TO.P,J1,2*%
%TO.N,Net-(C1-Pad1)*%
X191310000Y-59600000D03*
%TD*%
%TO.P,C8,2*%
%TO.N,GND*%
%TA.AperFunction,SMDPad,CuDef*%
G36*
G01*
X155735000Y-56330000D02*
X156685000Y-56330000D01*
G75*
G02*
X156935000Y-56580000I0J-250000D01*
G01*
X156935000Y-57255000D01*
G75*
G02*
X156685000Y-57505000I-250000J0D01*
G01*
X155735000Y-57505000D01*
G75*
G02*
X155485000Y-57255000I0J250000D01*
G01*
X155485000Y-56580000D01*
G75*
G02*
X155735000Y-56330000I250000J0D01*
G01*
G37*
%TD.AperFunction*%
%TO.P,C8,1*%
%TO.N,/VREF*%
%TA.AperFunction,SMDPad,CuDef*%
G36*
G01*
X155735000Y-54255000D02*
X156685000Y-54255000D01*
G75*
G02*
X156935000Y-54505000I0J-250000D01*
G01*
X156935000Y-55180000D01*
G75*
G02*
X156685000Y-55430000I-250000J0D01*
G01*
X155735000Y-55430000D01*
G75*
G02*
X155485000Y-55180000I0J250000D01*
G01*
X155485000Y-54505000D01*
G75*
G02*
X155735000Y-54255000I250000J0D01*
G01*
G37*
%TD.AperFunction*%
%TD*%
%TO.P,C4,2*%
%TO.N,GND*%
%TA.AperFunction,SMDPad,CuDef*%
G36*
G01*
X161507500Y-52545000D02*
X161507500Y-51595000D01*
G75*
G02*
X161757500Y-51345000I250000J0D01*
G01*
X162432500Y-51345000D01*
G75*
G02*
X162682500Y-51595000I0J-250000D01*
G01*
X162682500Y-52545000D01*
G75*
G02*
X162432500Y-52795000I-250000J0D01*
G01*
X161757500Y-52795000D01*
G75*
G02*
X161507500Y-52545000I0J250000D01*
G01*
G37*
%TD.AperFunction*%
%TO.P,C4,1*%
%TO.N,+5V*%
%TA.AperFunction,SMDPad,CuDef*%
G36*
G01*
X159432500Y-52545000D02*
X159432500Y-51595000D01*
G75*
G02*
X159682500Y-51345000I250000J0D01*
G01*
X160357500Y-51345000D01*
G75*
G02*
X160607500Y-51595000I0J-250000D01*
G01*
X160607500Y-52545000D01*
G75*
G02*
X160357500Y-52795000I-250000J0D01*
G01*
X159682500Y-52795000D01*
G75*
G02*
X159432500Y-52545000I0J250000D01*
G01*
G37*
%TD.AperFunction*%
%TD*%
%TO.P,C2,2*%
%TO.N,/VINL*%
%TA.AperFunction,SMDPad,CuDef*%
G36*
G01*
X154490000Y-61755000D02*
X154490000Y-62705000D01*
G75*
G02*
X154240000Y-62955000I-250000J0D01*
G01*
X153565000Y-62955000D01*
G75*
G02*
X153315000Y-62705000I0J250000D01*
G01*
X153315000Y-61755000D01*
G75*
G02*
X153565000Y-61505000I250000J0D01*
G01*
X154240000Y-61505000D01*
G75*
G02*
X154490000Y-61755000I0J-250000D01*
G01*
G37*
%TD.AperFunction*%
%TO.P,C2,1*%
%TO.N,Net-(C2-Pad1)*%
%TA.AperFunction,SMDPad,CuDef*%
G36*
G01*
X156565000Y-61755000D02*
X156565000Y-62705000D01*
G75*
G02*
X156315000Y-62955000I-250000J0D01*
G01*
X155640000Y-62955000D01*
G75*
G02*
X155390000Y-62705000I0J250000D01*
G01*
X155390000Y-61755000D01*
G75*
G02*
X155640000Y-61505000I250000J0D01*
G01*
X156315000Y-61505000D01*
G75*
G02*
X156565000Y-61755000I0J-250000D01*
G01*
G37*
%TD.AperFunction*%
%TD*%
%TO.P,C1,2*%
%TO.N,/VINR*%
%TA.AperFunction,SMDPad,CuDef*%
G36*
G01*
X154490000Y-65565000D02*
X154490000Y-66515000D01*
G75*
G02*
X154240000Y-66765000I-250000J0D01*
G01*
X153565000Y-66765000D01*
G75*
G02*
X153315000Y-66515000I0J250000D01*
G01*
X153315000Y-65565000D01*
G75*
G02*
X153565000Y-65315000I250000J0D01*
G01*
X154240000Y-65315000D01*
G75*
G02*
X154490000Y-65565000I0J-250000D01*
G01*
G37*
%TD.AperFunction*%
%TO.P,C1,1*%
%TO.N,Net-(C1-Pad1)*%
%TA.AperFunction,SMDPad,CuDef*%
G36*
G01*
X156565000Y-65565000D02*
X156565000Y-66515000D01*
G75*
G02*
X156315000Y-66765000I-250000J0D01*
G01*
X155640000Y-66765000D01*
G75*
G02*
X155390000Y-66515000I0J250000D01*
G01*
X155390000Y-65565000D01*
G75*
G02*
X155640000Y-65315000I250000J0D01*
G01*
X156315000Y-65315000D01*
G75*
G02*
X156565000Y-65565000I0J-250000D01*
G01*
G37*
%TD.AperFunction*%
%TD*%
D18*
%TO.N,GND*%
X149860000Y-54610000D03*
X149860000Y-55880000D03*
X149860000Y-57150000D03*
X149860000Y-58420000D03*
X149860000Y-59690000D03*
X149860000Y-60960000D03*
X151130000Y-62230000D03*
X152400000Y-63500000D03*
X146050000Y-44450000D03*
X148590000Y-44450000D03*
X151130000Y-44450000D03*
X152400000Y-45720000D03*
X146050000Y-46990000D03*
X148590000Y-46990000D03*
X160020000Y-41910000D03*
X157480000Y-43180000D03*
%TD*%
D19*
%TO.N,Net-(C1-Pad1)*%
X164270000Y-66040000D02*
X167750000Y-62560000D01*
X155977500Y-66040000D02*
X164270000Y-66040000D01*
X170710000Y-59600000D02*
X191310000Y-59600000D01*
X167750000Y-62560000D02*
X170710000Y-59600000D01*
X208280000Y-59690000D02*
X208280000Y-52970000D01*
X208280000Y-52970000D02*
X197310000Y-42000000D01*
X206842999Y-61127001D02*
X208280000Y-59690000D01*
X192837001Y-61127001D02*
X206842999Y-61127001D01*
X191310000Y-59600000D02*
X192837001Y-61127001D01*
X197310000Y-42000000D02*
X197310000Y-39830000D01*
X197310000Y-39830000D02*
X190500000Y-33020000D01*
X181170000Y-33020000D02*
X175150000Y-39040000D01*
X190500000Y-33020000D02*
X181170000Y-33020000D01*
%TO.N,Net-(C2-Pad1)*%
X167750000Y-50457500D02*
X167750000Y-46440000D01*
X155977500Y-62230000D02*
X167750000Y-50457500D01*
X175150000Y-55160000D02*
X175150000Y-51960000D01*
X173647500Y-50457500D02*
X167750000Y-50457500D01*
X175150000Y-51960000D02*
X173647500Y-50457500D01*
X174852500Y-50457500D02*
X183310000Y-42000000D01*
X173647500Y-50457500D02*
X174852500Y-50457500D01*
X187710000Y-42000000D02*
X205310000Y-59600000D01*
X183310000Y-42000000D02*
X187710000Y-42000000D01*
%TO.N,+5V*%
X155350000Y-52070000D02*
X160020000Y-52070000D01*
X154730000Y-51450000D02*
X155350000Y-52070000D01*
D20*
X153992500Y-51450000D02*
X154730000Y-51450000D01*
D19*
X160020000Y-52070000D02*
X160020000Y-49530000D01*
X147500999Y-34109001D02*
X148590000Y-33020000D01*
X142059001Y-34109001D02*
X147500999Y-34109001D01*
X140970000Y-33020000D02*
X142059001Y-34109001D01*
D21*
X148590000Y-33020000D02*
X153670000Y-33020000D01*
X162017010Y-47532990D02*
X160020000Y-49530000D01*
X162017010Y-41367010D02*
X162017010Y-47532990D01*
X153670000Y-33020000D02*
X162017010Y-41367010D01*
D19*
%TO.N,+3V3*%
X153992500Y-50800000D02*
X154730000Y-50800000D01*
X156210000Y-46525000D02*
X158750000Y-46525000D01*
X154940000Y-50800000D02*
X153992500Y-50800000D01*
X156210000Y-49530000D02*
X154940000Y-50800000D01*
X156210000Y-46525000D02*
X156210000Y-49530000D01*
D21*
X158750000Y-46525000D02*
X160485000Y-46525000D01*
X142159001Y-36910999D02*
X140970000Y-38100000D01*
X152980937Y-36910999D02*
X142159001Y-36910999D01*
X160485000Y-44415062D02*
X152980937Y-36910999D01*
X160485000Y-46525000D02*
X160485000Y-44415062D01*
D22*
%TO.N,/PA5_H4*%
X154730000Y-49500000D02*
X153992500Y-49500000D01*
X154957010Y-49272990D02*
X154730000Y-49500000D01*
X154957010Y-47007010D02*
X154957010Y-49272990D01*
X151130000Y-43180000D02*
X154957010Y-47007010D01*
X143510000Y-43180000D02*
X151130000Y-43180000D01*
%TO.N,/PA6_J1*%
X150862500Y-45720000D02*
X153992500Y-48850000D01*
X143510000Y-45720000D02*
X150862500Y-45720000D01*
%TO.N,/PA7_J2*%
X147677500Y-48260000D02*
X148267500Y-48850000D01*
X143510000Y-48260000D02*
X147677500Y-48260000D01*
%TO.N,/PB6_G12*%
X144810000Y-49500000D02*
X148267500Y-49500000D01*
X143510000Y-50800000D02*
X144810000Y-49500000D01*
%TO.N,/PA0*%
X140970000Y-55880000D02*
X139700000Y-54610000D01*
X141057277Y-31469001D02*
X147600999Y-31469001D01*
X147600999Y-31469001D02*
X148590000Y-30480000D01*
X139700000Y-32826278D02*
X141057277Y-31469001D01*
X139700000Y-54610000D02*
X139700000Y-32826278D01*
%TO.N,/PA9_H10*%
X143510000Y-55880000D02*
X146050000Y-53340000D01*
X147530000Y-50800000D02*
X148267500Y-50800000D01*
X146050000Y-52280000D02*
X147530000Y-50800000D01*
X146050000Y-53340000D02*
X146050000Y-52280000D01*
%TO.N,/PA8_J10*%
X147530000Y-51450000D02*
X148267500Y-51450000D01*
X147302990Y-51677010D02*
X147530000Y-51450000D01*
X147302990Y-54627010D02*
X147302990Y-51677010D01*
X143510000Y-58420000D02*
X147302990Y-54627010D01*
D19*
%TO.N,/VINR*%
X153902500Y-66040000D02*
X152400000Y-66040000D01*
X148267500Y-61907500D02*
X148267500Y-52750000D01*
X152400000Y-66040000D02*
X148267500Y-61907500D01*
D22*
%TO.N,/VINL*%
X153902500Y-62230000D02*
X153670000Y-62230000D01*
X148817464Y-52100000D02*
X148267500Y-52100000D01*
D19*
X149890000Y-52100000D02*
X148267500Y-52100000D01*
X151130000Y-59690000D02*
X151130000Y-53340000D01*
X151130000Y-53340000D02*
X149890000Y-52100000D01*
X153670000Y-62230000D02*
X151130000Y-59690000D01*
%TO.N,/VREF*%
X158750000Y-54842500D02*
X156210000Y-54842500D01*
X156085000Y-54842500D02*
X153992500Y-52750000D01*
X156210000Y-54842500D02*
X156085000Y-54842500D01*
D22*
%TO.N,/PC7_H13*%
X146700000Y-50150000D02*
X148267500Y-50150000D01*
X143510000Y-53340000D02*
X146700000Y-50150000D01*
%TD*%
D23*
%TO.N,GND*%
X153184803Y-30919769D02*
X153205280Y-30944720D01*
X153304871Y-31026453D01*
X153418495Y-31087187D01*
X153541784Y-31124586D01*
X153637875Y-31134050D01*
X153637884Y-31134050D01*
X153669999Y-31137213D01*
X153702114Y-31134050D01*
X208895950Y-31134050D01*
X208895951Y-52404320D01*
X208873291Y-52376709D01*
X208841432Y-52350563D01*
X199060316Y-42569449D01*
X199074482Y-42535250D01*
X199145000Y-42180732D01*
X199145000Y-41819268D01*
X199074482Y-41464750D01*
X198936156Y-41130801D01*
X198735338Y-40830256D01*
X198479744Y-40574662D01*
X198179199Y-40373844D01*
X198145000Y-40359678D01*
X198145000Y-39871007D01*
X198149039Y-39829999D01*
X198145000Y-39788991D01*
X198145000Y-39788981D01*
X198132918Y-39666311D01*
X198085172Y-39508913D01*
X198055365Y-39453148D01*
X199286457Y-39453148D01*
X199562627Y-39871118D01*
X200107557Y-40161649D01*
X200698696Y-40340287D01*
X201313328Y-40400168D01*
X201927831Y-40338990D01*
X202518592Y-40159103D01*
X203057373Y-39871118D01*
X203333543Y-39453148D01*
X201310000Y-37429605D01*
X199286457Y-39453148D01*
X198055365Y-39453148D01*
X198007636Y-39363854D01*
X197903291Y-39236709D01*
X197871427Y-39210559D01*
X195914196Y-37253328D01*
X198159832Y-37253328D01*
X198221010Y-37867831D01*
X198400897Y-38458592D01*
X198688882Y-38997373D01*
X199106852Y-39273543D01*
X201130395Y-37250000D01*
X201489605Y-37250000D01*
X203513148Y-39273543D01*
X203931118Y-38997373D01*
X204221649Y-38452443D01*
X204400287Y-37861304D01*
X204460168Y-37246672D01*
X204398990Y-36632169D01*
X204298603Y-36302491D01*
X204475000Y-36302491D01*
X204475000Y-38197510D01*
X204503723Y-38489128D01*
X204617227Y-38863302D01*
X204801548Y-39208143D01*
X205049603Y-39510398D01*
X205351858Y-39758453D01*
X205696699Y-39942774D01*
X206070873Y-40056278D01*
X206460000Y-40094604D01*
X206849128Y-40056278D01*
X207223302Y-39942774D01*
X207568143Y-39758453D01*
X207870398Y-39510398D01*
X208118453Y-39208143D01*
X208302774Y-38863302D01*
X208416278Y-38489127D01*
X208445000Y-38197509D01*
X208445000Y-36302490D01*
X208416278Y-36010872D01*
X208302774Y-35636698D01*
X208118453Y-35291857D01*
X207870398Y-34989602D01*
X207568143Y-34741547D01*
X207223301Y-34557226D01*
X206849127Y-34443722D01*
X206460000Y-34405396D01*
X206070872Y-34443722D01*
X205696698Y-34557226D01*
X205351857Y-34741547D01*
X205049602Y-34989602D01*
X204801547Y-35291857D01*
X204617226Y-35636699D01*
X204503722Y-36010873D01*
X204475000Y-36302491D01*
X204298603Y-36302491D01*
X204219103Y-36041408D01*
X203931118Y-35502627D01*
X203513148Y-35226457D01*
X201489605Y-37250000D01*
X201130395Y-37250000D01*
X199106852Y-35226457D01*
X198688882Y-35502627D01*
X198398351Y-36047557D01*
X198219713Y-36638696D01*
X198159832Y-37253328D01*
X195914196Y-37253328D01*
X193707720Y-35046852D01*
X199286457Y-35046852D01*
X201310000Y-37070395D01*
X203333543Y-35046852D01*
X203057373Y-34628882D01*
X202512443Y-34338351D01*
X201921304Y-34159713D01*
X201306672Y-34099832D01*
X200692169Y-34161010D01*
X200101408Y-34340897D01*
X199562627Y-34628882D01*
X199286457Y-35046852D01*
X193707720Y-35046852D01*
X191119446Y-32458579D01*
X191093291Y-32426709D01*
X190966146Y-32322364D01*
X190821087Y-32244828D01*
X190663689Y-32197082D01*
X190541019Y-32185000D01*
X190541018Y-32185000D01*
X190500000Y-32180960D01*
X190458982Y-32185000D01*
X181211018Y-32185000D01*
X181170000Y-32180960D01*
X181128982Y-32185000D01*
X181128981Y-32185000D01*
X181006311Y-32197082D01*
X180868739Y-32238814D01*
X180848913Y-32244828D01*
X180703854Y-32322364D01*
X180660099Y-32358273D01*
X180576709Y-32426709D01*
X180550563Y-32458568D01*
X175707205Y-37301928D01*
X173750000Y-37301928D01*
X173625518Y-37314188D01*
X173505820Y-37350498D01*
X173395506Y-37409463D01*
X173298815Y-37488815D01*
X173219463Y-37585506D01*
X173160498Y-37695820D01*
X173124188Y-37815518D01*
X173111928Y-37940000D01*
X173111928Y-40140000D01*
X173124188Y-40264482D01*
X173160498Y-40384180D01*
X173219463Y-40494494D01*
X173298815Y-40591185D01*
X173395506Y-40670537D01*
X173505820Y-40729502D01*
X173625518Y-40765812D01*
X173750000Y-40778072D01*
X176550000Y-40778072D01*
X176674482Y-40765812D01*
X176794180Y-40729502D01*
X176904494Y-40670537D01*
X177001185Y-40591185D01*
X177080537Y-40494494D01*
X177139502Y-40384180D01*
X177175812Y-40264482D01*
X177188072Y-40140000D01*
X177188072Y-38182795D01*
X179068376Y-36302491D01*
X180175000Y-36302491D01*
X180175000Y-38197510D01*
X180203723Y-38489128D01*
X180317227Y-38863302D01*
X180501548Y-39208143D01*
X180749603Y-39510398D01*
X181051858Y-39758453D01*
X181396699Y-39942774D01*
X181770873Y-40056278D01*
X182160000Y-40094604D01*
X182549128Y-40056278D01*
X182923302Y-39942774D01*
X183268143Y-39758453D01*
X183570398Y-39510398D01*
X183617381Y-39453148D01*
X185286457Y-39453148D01*
X185562627Y-39871118D01*
X186107557Y-40161649D01*
X186698696Y-40340287D01*
X187313328Y-40400168D01*
X187927831Y-40338990D01*
X188518592Y-40159103D01*
X189057373Y-39871118D01*
X189333543Y-39453148D01*
X187310000Y-37429605D01*
X185286457Y-39453148D01*
X183617381Y-39453148D01*
X183818453Y-39208143D01*
X184002774Y-38863302D01*
X184116278Y-38489127D01*
X184145000Y-38197509D01*
X184145000Y-37253328D01*
X184159832Y-37253328D01*
X184221010Y-37867831D01*
X184400897Y-38458592D01*
X184688882Y-38997373D01*
X185106852Y-39273543D01*
X187130395Y-37250000D01*
X187489605Y-37250000D01*
X189513148Y-39273543D01*
X189931118Y-38997373D01*
X190221649Y-38452443D01*
X190400287Y-37861304D01*
X190460168Y-37246672D01*
X190398990Y-36632169D01*
X190219103Y-36041408D01*
X189931118Y-35502627D01*
X189513148Y-35226457D01*
X187489605Y-37250000D01*
X187130395Y-37250000D01*
X185106852Y-35226457D01*
X184688882Y-35502627D01*
X184398351Y-36047557D01*
X184219713Y-36638696D01*
X184159832Y-37253328D01*
X184145000Y-37253328D01*
X184145000Y-36302490D01*
X184116278Y-36010872D01*
X184002774Y-35636698D01*
X183818453Y-35291857D01*
X183617382Y-35046852D01*
X185286457Y-35046852D01*
X187310000Y-37070395D01*
X189333543Y-35046852D01*
X189057373Y-34628882D01*
X188512443Y-34338351D01*
X187921304Y-34159713D01*
X187306672Y-34099832D01*
X186692169Y-34161010D01*
X186101408Y-34340897D01*
X185562627Y-34628882D01*
X185286457Y-35046852D01*
X183617382Y-35046852D01*
X183570398Y-34989602D01*
X183268143Y-34741547D01*
X182923301Y-34557226D01*
X182549127Y-34443722D01*
X182160000Y-34405396D01*
X181770872Y-34443722D01*
X181396698Y-34557226D01*
X181051857Y-34741547D01*
X180749602Y-34989602D01*
X180501547Y-35291857D01*
X180317226Y-35636699D01*
X180203722Y-36010873D01*
X180175000Y-36302491D01*
X179068376Y-36302491D01*
X181515869Y-33855000D01*
X190154133Y-33855000D01*
X196475001Y-40175869D01*
X196475001Y-40359678D01*
X196440801Y-40373844D01*
X196140256Y-40574662D01*
X195884662Y-40830256D01*
X195683844Y-41130801D01*
X195545518Y-41464750D01*
X195475000Y-41819268D01*
X195475000Y-42180732D01*
X195545518Y-42535250D01*
X195683844Y-42869199D01*
X195884662Y-43169744D01*
X196140256Y-43425338D01*
X196440801Y-43626156D01*
X196774750Y-43764482D01*
X197129268Y-43835000D01*
X197490732Y-43835000D01*
X197845250Y-43764482D01*
X197879449Y-43750316D01*
X207445001Y-53315870D01*
X207445000Y-59344132D01*
X207145000Y-59644132D01*
X207145000Y-59419268D01*
X207074482Y-59064750D01*
X206936156Y-58730801D01*
X206735338Y-58430256D01*
X206479744Y-58174662D01*
X206179199Y-57973844D01*
X205845250Y-57835518D01*
X205490732Y-57765000D01*
X205129268Y-57765000D01*
X204774750Y-57835518D01*
X204740552Y-57849683D01*
X188329446Y-41438579D01*
X188303291Y-41406709D01*
X188176146Y-41302364D01*
X188031087Y-41224828D01*
X187873689Y-41177082D01*
X187751019Y-41165000D01*
X187751018Y-41165000D01*
X187710000Y-41160960D01*
X187668982Y-41165000D01*
X184950322Y-41165000D01*
X184936156Y-41130801D01*
X184735338Y-40830256D01*
X184479744Y-40574662D01*
X184179199Y-40373844D01*
X183845250Y-40235518D01*
X183490732Y-40165000D01*
X183129268Y-40165000D01*
X182774750Y-40235518D01*
X182440801Y-40373844D01*
X182140256Y-40574662D01*
X181884662Y-40830256D01*
X181683844Y-41130801D01*
X181545518Y-41464750D01*
X181475000Y-41819268D01*
X181475000Y-42180732D01*
X181545518Y-42535250D01*
X181559684Y-42569449D01*
X174506633Y-49622500D01*
X173688518Y-49622500D01*
X173647500Y-49618460D01*
X173606482Y-49622500D01*
X168585000Y-49622500D01*
X168585000Y-48478072D01*
X169150000Y-48478072D01*
X169274482Y-48465812D01*
X169394180Y-48429502D01*
X169504494Y-48370537D01*
X169601185Y-48291185D01*
X169680537Y-48194494D01*
X169739502Y-48084180D01*
X169775812Y-47964482D01*
X169788072Y-47840000D01*
X169788072Y-45040000D01*
X169783516Y-44993740D01*
X169965000Y-44993740D01*
X169965000Y-45286260D01*
X170022068Y-45573158D01*
X170134010Y-45843411D01*
X170296525Y-46086632D01*
X170503368Y-46293475D01*
X170746589Y-46455990D01*
X171016842Y-46567932D01*
X171303740Y-46625000D01*
X171596260Y-46625000D01*
X171883158Y-46567932D01*
X172153411Y-46455990D01*
X172396632Y-46293475D01*
X172603475Y-46086632D01*
X172765990Y-45843411D01*
X172877932Y-45573158D01*
X172935000Y-45286260D01*
X172935000Y-44993740D01*
X172877932Y-44706842D01*
X172765990Y-44436589D01*
X172603475Y-44193368D01*
X172396632Y-43986525D01*
X172153411Y-43824010D01*
X171883158Y-43712068D01*
X171596260Y-43655000D01*
X171303740Y-43655000D01*
X171016842Y-43712068D01*
X170746589Y-43824010D01*
X170503368Y-43986525D01*
X170296525Y-44193368D01*
X170134010Y-44436589D01*
X170022068Y-44706842D01*
X169965000Y-44993740D01*
X169783516Y-44993740D01*
X169775812Y-44915518D01*
X169739502Y-44795820D01*
X169680537Y-44685506D01*
X169601185Y-44588815D01*
X169504494Y-44509463D01*
X169394180Y-44450498D01*
X169274482Y-44414188D01*
X169150000Y-44401928D01*
X166350000Y-44401928D01*
X166225518Y-44414188D01*
X166105820Y-44450498D01*
X165995506Y-44509463D01*
X165898815Y-44588815D01*
X165819463Y-44685506D01*
X165760498Y-44795820D01*
X165724188Y-44915518D01*
X165711928Y-45040000D01*
X165711928Y-47840000D01*
X165724188Y-47964482D01*
X165760498Y-48084180D01*
X165819463Y-48194494D01*
X165898815Y-48291185D01*
X165995506Y-48370537D01*
X166105820Y-48429502D01*
X166225518Y-48465812D01*
X166350000Y-48478072D01*
X166915000Y-48478072D01*
X166915000Y-50111632D01*
X160110000Y-56916632D01*
X160110000Y-56790498D01*
X159951252Y-56790498D01*
X160110000Y-56631750D01*
X160113072Y-56330000D01*
X160100812Y-56205518D01*
X160064502Y-56085820D01*
X160005537Y-55975506D01*
X159926185Y-55878815D01*
X159846406Y-55813342D01*
X159852962Y-55807962D01*
X159963405Y-55673386D01*
X160045472Y-55519850D01*
X160096008Y-55353254D01*
X160113072Y-55180000D01*
X160113072Y-54505000D01*
X160096008Y-54331746D01*
X160045472Y-54165150D01*
X159963405Y-54011614D01*
X159852962Y-53877038D01*
X159718386Y-53766595D01*
X159564850Y-53684528D01*
X159398254Y-53633992D01*
X159225000Y-53616928D01*
X158275000Y-53616928D01*
X158101746Y-53633992D01*
X157935150Y-53684528D01*
X157781614Y-53766595D01*
X157647038Y-53877038D01*
X157539971Y-54007500D01*
X157420029Y-54007500D01*
X157312962Y-53877038D01*
X157178386Y-53766595D01*
X157024850Y-53684528D01*
X156858254Y-53633992D01*
X156685000Y-53616928D01*
X156040296Y-53616928D01*
X155359581Y-52936213D01*
X155362377Y-52907820D01*
X155391007Y-52905000D01*
X158872798Y-52905000D01*
X158944095Y-53038386D01*
X159054538Y-53172962D01*
X159189114Y-53283405D01*
X159342650Y-53365472D01*
X159509246Y-53416008D01*
X159682500Y-53433072D01*
X160357500Y-53433072D01*
X160530754Y-53416008D01*
X160697350Y-53365472D01*
X160850886Y-53283405D01*
X160985462Y-53172962D01*
X160990842Y-53166406D01*
X161056315Y-53246185D01*
X161153006Y-53325537D01*
X161263320Y-53384502D01*
X161383018Y-53420812D01*
X161507500Y-53433072D01*
X161809250Y-53430000D01*
X161968000Y-53271250D01*
X161968000Y-52197000D01*
X162222000Y-52197000D01*
X162222000Y-53271250D01*
X162380750Y-53430000D01*
X162682500Y-53433072D01*
X162806982Y-53420812D01*
X162926680Y-53384502D01*
X163036994Y-53325537D01*
X163133685Y-53246185D01*
X163213037Y-53149494D01*
X163272002Y-53039180D01*
X163308312Y-52919482D01*
X163320572Y-52795000D01*
X163317500Y-52355750D01*
X163158750Y-52197000D01*
X162222000Y-52197000D01*
X161968000Y-52197000D01*
X161948000Y-52197000D01*
X161948000Y-51943000D01*
X161968000Y-51943000D01*
X161968000Y-50868750D01*
X161899250Y-50800000D01*
X161968000Y-50731250D01*
X161968000Y-49657000D01*
X162222000Y-49657000D01*
X162222000Y-50731250D01*
X162290750Y-50800000D01*
X162222000Y-50868750D01*
X162222000Y-51943000D01*
X163158750Y-51943000D01*
X163317500Y-51784250D01*
X163320572Y-51345000D01*
X163308312Y-51220518D01*
X163272002Y-51100820D01*
X163213037Y-50990506D01*
X163133685Y-50893815D01*
X163036994Y-50814463D01*
X163009936Y-50800000D01*
X163036994Y-50785537D01*
X163133685Y-50706185D01*
X163213037Y-50609494D01*
X163272002Y-50499180D01*
X163308312Y-50379482D01*
X163320572Y-50255000D01*
X163317500Y-49815750D01*
X163158750Y-49657000D01*
X162222000Y-49657000D01*
X161968000Y-49657000D01*
X161948000Y-49657000D01*
X161948000Y-49403000D01*
X161968000Y-49403000D01*
X161968000Y-49383000D01*
X162222000Y-49383000D01*
X162222000Y-49403000D01*
X163158750Y-49403000D01*
X163317500Y-49244250D01*
X163320572Y-48805000D01*
X163308312Y-48680518D01*
X163272002Y-48560820D01*
X163213037Y-48450506D01*
X163133685Y-48353815D01*
X163036994Y-48274463D01*
X162926680Y-48215498D01*
X162806982Y-48179188D01*
X162704527Y-48169097D01*
X162798196Y-48054962D01*
X162854775Y-47949110D01*
X162885017Y-47892531D01*
X162938482Y-47716282D01*
X162956534Y-47532990D01*
X162952010Y-47487055D01*
X162952010Y-41412945D01*
X162956534Y-41367010D01*
X162938482Y-41183718D01*
X162885017Y-41007471D01*
X162885017Y-41007470D01*
X162798196Y-40845038D01*
X162681354Y-40702666D01*
X162645670Y-40673381D01*
X160112289Y-38140000D01*
X165711928Y-38140000D01*
X165724188Y-38264482D01*
X165760498Y-38384180D01*
X165819463Y-38494494D01*
X165898815Y-38591185D01*
X165995506Y-38670537D01*
X166105820Y-38729502D01*
X166225518Y-38765812D01*
X166350000Y-38778072D01*
X167464250Y-38775000D01*
X167623000Y-38616250D01*
X167623000Y-37167000D01*
X167877000Y-37167000D01*
X167877000Y-38616250D01*
X168035750Y-38775000D01*
X169150000Y-38778072D01*
X169274482Y-38765812D01*
X169394180Y-38729502D01*
X169504494Y-38670537D01*
X169601185Y-38591185D01*
X169680537Y-38494494D01*
X169739502Y-38384180D01*
X169775812Y-38264482D01*
X169788072Y-38140000D01*
X169787521Y-37993740D01*
X169965000Y-37993740D01*
X169965000Y-38286260D01*
X170022068Y-38573158D01*
X170134010Y-38843411D01*
X170296525Y-39086632D01*
X170503368Y-39293475D01*
X170746589Y-39455990D01*
X171016842Y-39567932D01*
X171303740Y-39625000D01*
X171596260Y-39625000D01*
X171883158Y-39567932D01*
X172153411Y-39455990D01*
X172396632Y-39293475D01*
X172603475Y-39086632D01*
X172765990Y-38843411D01*
X172877932Y-38573158D01*
X172935000Y-38286260D01*
X172935000Y-37993740D01*
X172877932Y-37706842D01*
X172765990Y-37436589D01*
X172603475Y-37193368D01*
X172396632Y-36986525D01*
X172153411Y-36824010D01*
X171883158Y-36712068D01*
X171596260Y-36655000D01*
X171303740Y-36655000D01*
X171016842Y-36712068D01*
X170746589Y-36824010D01*
X170503368Y-36986525D01*
X170296525Y-37193368D01*
X170134010Y-37436589D01*
X170022068Y-37706842D01*
X169965000Y-37993740D01*
X169787521Y-37993740D01*
X169785000Y-37325750D01*
X169626250Y-37167000D01*
X167877000Y-37167000D01*
X167623000Y-37167000D01*
X165873750Y-37167000D01*
X165715000Y-37325750D01*
X165711928Y-38140000D01*
X160112289Y-38140000D01*
X157912289Y-35940000D01*
X165711928Y-35940000D01*
X165715000Y-36754250D01*
X165873750Y-36913000D01*
X167623000Y-36913000D01*
X167623000Y-35463750D01*
X167877000Y-35463750D01*
X167877000Y-36913000D01*
X169626250Y-36913000D01*
X169785000Y-36754250D01*
X169788072Y-35940000D01*
X169775812Y-35815518D01*
X169739502Y-35695820D01*
X169680537Y-35585506D01*
X169601185Y-35488815D01*
X169504494Y-35409463D01*
X169394180Y-35350498D01*
X169274482Y-35314188D01*
X169150000Y-35301928D01*
X168035750Y-35305000D01*
X167877000Y-35463750D01*
X167623000Y-35463750D01*
X167464250Y-35305000D01*
X166350000Y-35301928D01*
X166225518Y-35314188D01*
X166105820Y-35350498D01*
X165995506Y-35409463D01*
X165898815Y-35488815D01*
X165819463Y-35585506D01*
X165760498Y-35695820D01*
X165724188Y-35815518D01*
X165711928Y-35940000D01*
X157912289Y-35940000D01*
X154363630Y-32391341D01*
X154334344Y-32355656D01*
X154191972Y-32238814D01*
X154029540Y-32151993D01*
X153853292Y-32098529D01*
X153715932Y-32085000D01*
X153670000Y-32080476D01*
X153624068Y-32085000D01*
X149751247Y-32085000D01*
X149743475Y-32073368D01*
X149611620Y-31941513D01*
X149684180Y-31919502D01*
X149794494Y-31860537D01*
X149891185Y-31781185D01*
X149970537Y-31684494D01*
X150029502Y-31574180D01*
X150065812Y-31454482D01*
X150078072Y-31330000D01*
X150078072Y-29630000D01*
X150065812Y-29505518D01*
X150029502Y-29385820D01*
X149970537Y-29275506D01*
X149891185Y-29178815D01*
X149794494Y-29099463D01*
X149684180Y-29040498D01*
X149564482Y-29004188D01*
X149440000Y-28991928D01*
X147740000Y-28991928D01*
X147615518Y-29004188D01*
X147495820Y-29040498D01*
X147385506Y-29099463D01*
X147288815Y-29178815D01*
X147209463Y-29275506D01*
X147150498Y-29385820D01*
X147114188Y-29505518D01*
X147101928Y-29630000D01*
X147101928Y-30734001D01*
X144883845Y-30734001D01*
X144907000Y-30617592D01*
X144907000Y-30342408D01*
X144853314Y-30072510D01*
X144748005Y-29818273D01*
X144595120Y-29589465D01*
X144400535Y-29394880D01*
X144171727Y-29241995D01*
X144094485Y-29210000D01*
X144171727Y-29178005D01*
X144400535Y-29025120D01*
X144595120Y-28830535D01*
X144748005Y-28601727D01*
X144853314Y-28347490D01*
X144907000Y-28077592D01*
X144907000Y-27802408D01*
X144853314Y-27532510D01*
X144748005Y-27278273D01*
X144595120Y-27049465D01*
X144400535Y-26854880D01*
X144171727Y-26701995D01*
X143917490Y-26596686D01*
X143647592Y-26543000D01*
X143372408Y-26543000D01*
X143102510Y-26596686D01*
X142848273Y-26701995D01*
X142619465Y-26854880D01*
X142424880Y-27049465D01*
X142271995Y-27278273D01*
X142240000Y-27355515D01*
X142208005Y-27278273D01*
X142055120Y-27049465D01*
X141860535Y-26854880D01*
X141631727Y-26701995D01*
X141377490Y-26596686D01*
X141107592Y-26543000D01*
X140832408Y-26543000D01*
X140562510Y-26596686D01*
X140308273Y-26701995D01*
X140079465Y-26854880D01*
X139884880Y-27049465D01*
X139731995Y-27278273D01*
X139626686Y-27532510D01*
X139573000Y-27802408D01*
X139573000Y-28077592D01*
X139626686Y-28347490D01*
X139731995Y-28601727D01*
X139884880Y-28830535D01*
X140079465Y-29025120D01*
X140308273Y-29178005D01*
X140379943Y-29207692D01*
X140366977Y-29212364D01*
X140251020Y-29274344D01*
X140184040Y-29514435D01*
X140970000Y-30300395D01*
X141755960Y-29514435D01*
X141688980Y-29274344D01*
X141553240Y-29210515D01*
X141631727Y-29178005D01*
X141860535Y-29025120D01*
X142055120Y-28830535D01*
X142208005Y-28601727D01*
X142240000Y-28524485D01*
X142271995Y-28601727D01*
X142424880Y-28830535D01*
X142619465Y-29025120D01*
X142848273Y-29178005D01*
X142925515Y-29210000D01*
X142848273Y-29241995D01*
X142619465Y-29394880D01*
X142424880Y-29589465D01*
X142271995Y-29818273D01*
X142242308Y-29889943D01*
X142237636Y-29876977D01*
X142175656Y-29761020D01*
X141935565Y-29694040D01*
X141149605Y-30480000D01*
X141163748Y-30494143D01*
X140984143Y-30673748D01*
X140970000Y-30659605D01*
X140872680Y-30756925D01*
X140774643Y-30786664D01*
X140704544Y-30824133D01*
X140646957Y-30854914D01*
X140535039Y-30946763D01*
X140512023Y-30974808D01*
X139205808Y-32281024D01*
X139177763Y-32304040D01*
X139085914Y-32415958D01*
X139080167Y-32426710D01*
X139017664Y-32543645D01*
X138975635Y-32682193D01*
X138961444Y-32826278D01*
X138965001Y-32862393D01*
X138965000Y-54573895D01*
X138961444Y-54610000D01*
X138965000Y-54646104D01*
X138975635Y-54754084D01*
X139017663Y-54892632D01*
X139085913Y-55020319D01*
X139177762Y-55132237D01*
X139205808Y-55155254D01*
X139609494Y-55558940D01*
X139573000Y-55742408D01*
X139573000Y-56017592D01*
X139626686Y-56287490D01*
X139731995Y-56541727D01*
X139884880Y-56770535D01*
X140079465Y-56965120D01*
X140308273Y-57118005D01*
X140385515Y-57150000D01*
X140308273Y-57181995D01*
X140079465Y-57334880D01*
X139884880Y-57529465D01*
X139731995Y-57758273D01*
X139626686Y-58012510D01*
X139573000Y-58282408D01*
X139573000Y-58557592D01*
X139626686Y-58827490D01*
X139731995Y-59081727D01*
X139884880Y-59310535D01*
X140079465Y-59505120D01*
X140308273Y-59658005D01*
X140385515Y-59690000D01*
X140308273Y-59721995D01*
X140079465Y-59874880D01*
X139884880Y-60069465D01*
X139731995Y-60298273D01*
X139626686Y-60552510D01*
X139573000Y-60822408D01*
X139573000Y-61097592D01*
X139626686Y-61367490D01*
X139731995Y-61621727D01*
X139884880Y-61850535D01*
X140079465Y-62045120D01*
X140308273Y-62198005D01*
X140385515Y-62230000D01*
X140308273Y-62261995D01*
X140079465Y-62414880D01*
X139884880Y-62609465D01*
X139731995Y-62838273D01*
X139626686Y-63092510D01*
X139573000Y-63362408D01*
X139573000Y-63637592D01*
X139626686Y-63907490D01*
X139731995Y-64161727D01*
X139884880Y-64390535D01*
X140079465Y-64585120D01*
X140308273Y-64738005D01*
X140385515Y-64770000D01*
X140308273Y-64801995D01*
X140079465Y-64954880D01*
X139884880Y-65149465D01*
X139731995Y-65378273D01*
X139626686Y-65632510D01*
X139573000Y-65902408D01*
X139573000Y-66177592D01*
X139626686Y-66447490D01*
X139731995Y-66701727D01*
X139884880Y-66930535D01*
X140079465Y-67125120D01*
X140308273Y-67278005D01*
X140385515Y-67310000D01*
X140308273Y-67341995D01*
X140079465Y-67494880D01*
X139884880Y-67689465D01*
X139731995Y-67918273D01*
X139626686Y-68172510D01*
X139573000Y-68442408D01*
X139573000Y-68717592D01*
X139626686Y-68987490D01*
X139731995Y-69241727D01*
X139884880Y-69470535D01*
X140079465Y-69665120D01*
X140308273Y-69818005D01*
X140385515Y-69850000D01*
X140308273Y-69881995D01*
X140079465Y-70034880D01*
X139884880Y-70229465D01*
X139731995Y-70458273D01*
X139626686Y-70712510D01*
X139573000Y-70982408D01*
X139573000Y-71257592D01*
X139626686Y-71527490D01*
X139731995Y-71781727D01*
X139884880Y-72010535D01*
X140079465Y-72205120D01*
X140308273Y-72358005D01*
X140385515Y-72390000D01*
X140308273Y-72421995D01*
X140079465Y-72574880D01*
X139884880Y-72769465D01*
X139731995Y-72998273D01*
X139626686Y-73252510D01*
X139573000Y-73522408D01*
X139573000Y-73797592D01*
X139626686Y-74067490D01*
X139731995Y-74321727D01*
X139884880Y-74550535D01*
X140079465Y-74745120D01*
X140308273Y-74898005D01*
X140385515Y-74930000D01*
X140308273Y-74961995D01*
X140079465Y-75114880D01*
X139884880Y-75309465D01*
X139731995Y-75538273D01*
X139626686Y-75792510D01*
X139573000Y-76062408D01*
X139573000Y-76337592D01*
X139626686Y-76607490D01*
X139731995Y-76861727D01*
X139884880Y-77090535D01*
X140079465Y-77285120D01*
X140308273Y-77438005D01*
X140562510Y-77543314D01*
X140832408Y-77597000D01*
X141107592Y-77597000D01*
X141377490Y-77543314D01*
X141631727Y-77438005D01*
X141860535Y-77285120D01*
X142055120Y-77090535D01*
X142208005Y-76861727D01*
X142240000Y-76784485D01*
X142271995Y-76861727D01*
X142424880Y-77090535D01*
X142619465Y-77285120D01*
X142848273Y-77438005D01*
X143102510Y-77543314D01*
X143372408Y-77597000D01*
X143647592Y-77597000D01*
X143917490Y-77543314D01*
X144171727Y-77438005D01*
X144400535Y-77285120D01*
X144595120Y-77090535D01*
X144748005Y-76861727D01*
X144853314Y-76607490D01*
X144907000Y-76337592D01*
X144907000Y-76062408D01*
X144853314Y-75792510D01*
X144748005Y-75538273D01*
X144595120Y-75309465D01*
X144400535Y-75114880D01*
X144171727Y-74961995D01*
X144094485Y-74930000D01*
X144171727Y-74898005D01*
X144400535Y-74745120D01*
X144595120Y-74550535D01*
X144748005Y-74321727D01*
X144853314Y-74067490D01*
X144907000Y-73797592D01*
X144907000Y-73522408D01*
X144853314Y-73252510D01*
X144748005Y-72998273D01*
X144595120Y-72769465D01*
X144400535Y-72574880D01*
X144171727Y-72421995D01*
X144094485Y-72390000D01*
X144171727Y-72358005D01*
X144400535Y-72205120D01*
X144595120Y-72010535D01*
X144748005Y-71781727D01*
X144853314Y-71527490D01*
X144907000Y-71257592D01*
X144907000Y-70982408D01*
X144853314Y-70712510D01*
X144748005Y-70458273D01*
X144595120Y-70229465D01*
X144400535Y-70034880D01*
X144171727Y-69881995D01*
X144094485Y-69850000D01*
X144171727Y-69818005D01*
X144400535Y-69665120D01*
X144595120Y-69470535D01*
X144748005Y-69241727D01*
X144853314Y-68987490D01*
X144907000Y-68717592D01*
X144907000Y-68442408D01*
X144853314Y-68172510D01*
X144748005Y-67918273D01*
X144595120Y-67689465D01*
X144400535Y-67494880D01*
X144171727Y-67341995D01*
X144094485Y-67310000D01*
X144171727Y-67278005D01*
X144400535Y-67125120D01*
X144595120Y-66930535D01*
X144748005Y-66701727D01*
X144853314Y-66447490D01*
X144907000Y-66177592D01*
X144907000Y-65902408D01*
X144853314Y-65632510D01*
X144748005Y-65378273D01*
X144595120Y-65149465D01*
X144400535Y-64954880D01*
X144171727Y-64801995D01*
X144094485Y-64770000D01*
X144171727Y-64738005D01*
X144400535Y-64585120D01*
X144595120Y-64390535D01*
X144748005Y-64161727D01*
X144853314Y-63907490D01*
X144907000Y-63637592D01*
X144907000Y-63362408D01*
X144853314Y-63092510D01*
X144748005Y-62838273D01*
X144595120Y-62609465D01*
X144400535Y-62414880D01*
X144171727Y-62261995D01*
X144094485Y-62230000D01*
X144171727Y-62198005D01*
X144400535Y-62045120D01*
X144595120Y-61850535D01*
X144748005Y-61621727D01*
X144853314Y-61367490D01*
X144907000Y-61097592D01*
X144907000Y-60822408D01*
X144853314Y-60552510D01*
X144748005Y-60298273D01*
X144595120Y-60069465D01*
X144400535Y-59874880D01*
X144171727Y-59721995D01*
X144094485Y-59690000D01*
X144171727Y-59658005D01*
X144400535Y-59505120D01*
X144595120Y-59310535D01*
X144748005Y-59081727D01*
X144853314Y-58827490D01*
X144907000Y-58557592D01*
X144907000Y-58282408D01*
X144870506Y-58098940D01*
X147432501Y-55536946D01*
X147432500Y-61866481D01*
X147428460Y-61907500D01*
X147432500Y-61948518D01*
X147444582Y-62071188D01*
X147492328Y-62228586D01*
X147569864Y-62373645D01*
X147674209Y-62500791D01*
X147706079Y-62526946D01*
X151780563Y-66601432D01*
X151806709Y-66633291D01*
X151933854Y-66737636D01*
X152078913Y-66815172D01*
X152236311Y-66862918D01*
X152358981Y-66875000D01*
X152358982Y-66875000D01*
X152400000Y-66879040D01*
X152441018Y-66875000D01*
X152755298Y-66875000D01*
X152826595Y-67008386D01*
X152937038Y-67142962D01*
X153071614Y-67253405D01*
X153225150Y-67335472D01*
X153391746Y-67386008D01*
X153565000Y-67403072D01*
X154240000Y-67403072D01*
X154413254Y-67386008D01*
X154579850Y-67335472D01*
X154733386Y-67253405D01*
X154867962Y-67142962D01*
X154940000Y-67055183D01*
X155012038Y-67142962D01*
X155146614Y-67253405D01*
X155300150Y-67335472D01*
X155466746Y-67386008D01*
X155640000Y-67403072D01*
X156315000Y-67403072D01*
X156488254Y-67386008D01*
X156654850Y-67335472D01*
X156808386Y-67253405D01*
X156942962Y-67142962D01*
X157053405Y-67008386D01*
X157124702Y-66875000D01*
X164228982Y-66875000D01*
X164270000Y-66879040D01*
X164311018Y-66875000D01*
X164311019Y-66875000D01*
X164433689Y-66862918D01*
X164591087Y-66815172D01*
X164736146Y-66737636D01*
X164863291Y-66633291D01*
X164889446Y-66601421D01*
X165830867Y-65660000D01*
X173111928Y-65660000D01*
X173124188Y-65784482D01*
X173160498Y-65904180D01*
X173219463Y-66014494D01*
X173298815Y-66111185D01*
X173395506Y-66190537D01*
X173505820Y-66249502D01*
X173625518Y-66285812D01*
X173750000Y-66298072D01*
X174864250Y-66295000D01*
X175023000Y-66136250D01*
X175023000Y-64687000D01*
X175277000Y-64687000D01*
X175277000Y-66136250D01*
X175435750Y-66295000D01*
X176550000Y-66298072D01*
X176674482Y-66285812D01*
X176794180Y-66249502D01*
X176904494Y-66190537D01*
X177001185Y-66111185D01*
X177080537Y-66014494D01*
X177139502Y-65904180D01*
X177175812Y-65784482D01*
X177188072Y-65660000D01*
X177185000Y-64845750D01*
X177026250Y-64687000D01*
X175277000Y-64687000D01*
X175023000Y-64687000D01*
X173273750Y-64687000D01*
X173115000Y-64845750D01*
X173111928Y-65660000D01*
X165830867Y-65660000D01*
X167192796Y-64298072D01*
X169150000Y-64298072D01*
X169274482Y-64285812D01*
X169394180Y-64249502D01*
X169504494Y-64190537D01*
X169601185Y-64111185D01*
X169680537Y-64014494D01*
X169739502Y-63904180D01*
X169775812Y-63784482D01*
X169788072Y-63660000D01*
X169788072Y-63313740D01*
X169965000Y-63313740D01*
X169965000Y-63606260D01*
X170022068Y-63893158D01*
X170134010Y-64163411D01*
X170296525Y-64406632D01*
X170503368Y-64613475D01*
X170746589Y-64775990D01*
X171016842Y-64887932D01*
X171303740Y-64945000D01*
X171596260Y-64945000D01*
X171883158Y-64887932D01*
X172153411Y-64775990D01*
X172396632Y-64613475D01*
X172603475Y-64406632D01*
X172765990Y-64163411D01*
X172877932Y-63893158D01*
X172935000Y-63606260D01*
X172935000Y-63460000D01*
X173111928Y-63460000D01*
X173115000Y-64274250D01*
X173273750Y-64433000D01*
X175023000Y-64433000D01*
X175023000Y-62983750D01*
X175277000Y-62983750D01*
X175277000Y-64433000D01*
X177026250Y-64433000D01*
X177185000Y-64274250D01*
X177188072Y-63460000D01*
X177182408Y-63402490D01*
X180175000Y-63402490D01*
X180175000Y-65297509D01*
X180203722Y-65589127D01*
X180317226Y-65963301D01*
X180501547Y-66308143D01*
X180749602Y-66610398D01*
X181051857Y-66858453D01*
X181396698Y-67042774D01*
X181770872Y-67156278D01*
X182160000Y-67194604D01*
X182549127Y-67156278D01*
X182923301Y-67042774D01*
X183268143Y-66858453D01*
X183570398Y-66610398D01*
X183617381Y-66553148D01*
X185286457Y-66553148D01*
X185562627Y-66971118D01*
X186107557Y-67261649D01*
X186698696Y-67440287D01*
X187313328Y-67500168D01*
X187927831Y-67438990D01*
X188518592Y-67259103D01*
X189057373Y-66971118D01*
X189333543Y-66553148D01*
X199286457Y-66553148D01*
X199562627Y-66971118D01*
X200107557Y-67261649D01*
X200698696Y-67440287D01*
X201313328Y-67500168D01*
X201927831Y-67438990D01*
X202518592Y-67259103D01*
X203057373Y-66971118D01*
X203333543Y-66553148D01*
X201310000Y-64529605D01*
X199286457Y-66553148D01*
X189333543Y-66553148D01*
X187310000Y-64529605D01*
X185286457Y-66553148D01*
X183617381Y-66553148D01*
X183818453Y-66308143D01*
X184002774Y-65963302D01*
X184116278Y-65589128D01*
X184145000Y-65297510D01*
X184145000Y-64353328D01*
X184159832Y-64353328D01*
X184221010Y-64967831D01*
X184400897Y-65558592D01*
X184688882Y-66097373D01*
X185106852Y-66373543D01*
X187130395Y-64350000D01*
X187489605Y-64350000D01*
X189513148Y-66373543D01*
X189931118Y-66097373D01*
X190221649Y-65552443D01*
X190400287Y-64961304D01*
X190459519Y-64353328D01*
X198159832Y-64353328D01*
X198221010Y-64967831D01*
X198400897Y-65558592D01*
X198688882Y-66097373D01*
X199106852Y-66373543D01*
X201130395Y-64350000D01*
X201489605Y-64350000D01*
X203513148Y-66373543D01*
X203931118Y-66097373D01*
X204221649Y-65552443D01*
X204400287Y-64961304D01*
X204460168Y-64346672D01*
X204398990Y-63732169D01*
X204219103Y-63141408D01*
X203931118Y-62602627D01*
X203513148Y-62326457D01*
X201489605Y-64350000D01*
X201130395Y-64350000D01*
X199106852Y-62326457D01*
X198688882Y-62602627D01*
X198398351Y-63147557D01*
X198219713Y-63738696D01*
X198159832Y-64353328D01*
X190459519Y-64353328D01*
X190460168Y-64346672D01*
X190398990Y-63732169D01*
X190219103Y-63141408D01*
X189931118Y-62602627D01*
X189513148Y-62326457D01*
X187489605Y-64350000D01*
X187130395Y-64350000D01*
X185106852Y-62326457D01*
X184688882Y-62602627D01*
X184398351Y-63147557D01*
X184219713Y-63738696D01*
X184159832Y-64353328D01*
X184145000Y-64353328D01*
X184145000Y-63402491D01*
X184116278Y-63110873D01*
X184002774Y-62736698D01*
X183818453Y-62391857D01*
X183617382Y-62146852D01*
X185286457Y-62146852D01*
X187310000Y-64170395D01*
X189333543Y-62146852D01*
X189057373Y-61728882D01*
X188512443Y-61438351D01*
X187921304Y-61259713D01*
X187306672Y-61199832D01*
X186692169Y-61261010D01*
X186101408Y-61440897D01*
X185562627Y-61728882D01*
X185286457Y-62146852D01*
X183617382Y-62146852D01*
X183570398Y-62089602D01*
X183268143Y-61841547D01*
X182923302Y-61657226D01*
X182549128Y-61543722D01*
X182160000Y-61505396D01*
X181770873Y-61543722D01*
X181396699Y-61657226D01*
X181051858Y-61841547D01*
X180749603Y-62089602D01*
X180501548Y-62391857D01*
X180317227Y-62736698D01*
X180203723Y-63110872D01*
X180175000Y-63402490D01*
X177182408Y-63402490D01*
X177175812Y-63335518D01*
X177139502Y-63215820D01*
X177080537Y-63105506D01*
X177001185Y-63008815D01*
X176904494Y-62929463D01*
X176794180Y-62870498D01*
X176674482Y-62834188D01*
X176550000Y-62821928D01*
X175435750Y-62825000D01*
X175277000Y-62983750D01*
X175023000Y-62983750D01*
X174864250Y-62825000D01*
X173750000Y-62821928D01*
X173625518Y-62834188D01*
X173505820Y-62870498D01*
X173395506Y-62929463D01*
X173298815Y-63008815D01*
X173219463Y-63105506D01*
X173160498Y-63215820D01*
X173124188Y-63335518D01*
X173111928Y-63460000D01*
X172935000Y-63460000D01*
X172935000Y-63313740D01*
X172877932Y-63026842D01*
X172765990Y-62756589D01*
X172603475Y-62513368D01*
X172396632Y-62306525D01*
X172153411Y-62144010D01*
X171883158Y-62032068D01*
X171596260Y-61975000D01*
X171303740Y-61975000D01*
X171016842Y-62032068D01*
X170746589Y-62144010D01*
X170503368Y-62306525D01*
X170296525Y-62513368D01*
X170134010Y-62756589D01*
X170022068Y-63026842D01*
X169965000Y-63313740D01*
X169788072Y-63313740D01*
X169788072Y-61702795D01*
X171055868Y-60435000D01*
X189669678Y-60435000D01*
X189683844Y-60469199D01*
X189884662Y-60769744D01*
X190140256Y-61025338D01*
X190440801Y-61226156D01*
X190774750Y-61364482D01*
X191129268Y-61435000D01*
X191490732Y-61435000D01*
X191845250Y-61364482D01*
X191879448Y-61350317D01*
X192217564Y-61688433D01*
X192243710Y-61720292D01*
X192275569Y-61746438D01*
X192275571Y-61746440D01*
X192296792Y-61763855D01*
X192370855Y-61824637D01*
X192515914Y-61902173D01*
X192673312Y-61949919D01*
X192795982Y-61962001D01*
X192795983Y-61962001D01*
X192837001Y-61966041D01*
X192878019Y-61962001D01*
X199408596Y-61962001D01*
X199286457Y-62146852D01*
X201310000Y-64170395D01*
X203333543Y-62146852D01*
X203211404Y-61962001D01*
X205205085Y-61962001D01*
X205049603Y-62089602D01*
X204801548Y-62391857D01*
X204617227Y-62736698D01*
X204503723Y-63110872D01*
X204475000Y-63402490D01*
X204475000Y-65297509D01*
X204503722Y-65589127D01*
X204617226Y-65963301D01*
X204801547Y-66308143D01*
X205049602Y-66610398D01*
X205351857Y-66858453D01*
X205696698Y-67042774D01*
X206070872Y-67156278D01*
X206460000Y-67194604D01*
X206849127Y-67156278D01*
X207223301Y-67042774D01*
X207568143Y-66858453D01*
X207870398Y-66610398D01*
X208118453Y-66308143D01*
X208302774Y-65963302D01*
X208416278Y-65589128D01*
X208445000Y-65297510D01*
X208445000Y-63402491D01*
X208416278Y-63110873D01*
X208302774Y-62736698D01*
X208118453Y-62391857D01*
X207870398Y-62089602D01*
X207568143Y-61841547D01*
X207398820Y-61751042D01*
X207436290Y-61720292D01*
X207462445Y-61688422D01*
X208841428Y-60309440D01*
X208873291Y-60283291D01*
X208895951Y-60255680D01*
X208895951Y-70465950D01*
X152442354Y-70465950D01*
X152420501Y-70463107D01*
X152378114Y-70465950D01*
X152367875Y-70465950D01*
X152346015Y-70468103D01*
X152291954Y-70471729D01*
X152282027Y-70474405D01*
X152271784Y-70475414D01*
X152219872Y-70491161D01*
X152167559Y-70505264D01*
X152158346Y-70509825D01*
X152148495Y-70512813D01*
X152100678Y-70538372D01*
X152052095Y-70562422D01*
X152043940Y-70568700D01*
X152034871Y-70573547D01*
X151992982Y-70607925D01*
X151950002Y-70641009D01*
X151943228Y-70648757D01*
X151935280Y-70655280D01*
X151900898Y-70697175D01*
X151886449Y-70713701D01*
X151880503Y-70722025D01*
X151853547Y-70754871D01*
X151843155Y-70774312D01*
X145713415Y-79355950D01*
X137845000Y-79355950D01*
X137845000Y-30552017D01*
X139568090Y-30552017D01*
X139609078Y-30824133D01*
X139702364Y-31083023D01*
X139764344Y-31198980D01*
X140004435Y-31265960D01*
X140790395Y-30480000D01*
X140004435Y-29694040D01*
X139764344Y-29761020D01*
X139647244Y-30010048D01*
X139580977Y-30277135D01*
X139568090Y-30552017D01*
X137845000Y-30552017D01*
X137845000Y-24784050D01*
X147049085Y-24784050D01*
X153184803Y-30919769D01*
%TA.AperFunction,Conductor*%
D24*
G36*
X153184803Y-30919769D02*
G01*
X153205280Y-30944720D01*
X153304871Y-31026453D01*
X153418495Y-31087187D01*
X153541784Y-31124586D01*
X153637875Y-31134050D01*
X153637884Y-31134050D01*
X153669999Y-31137213D01*
X153702114Y-31134050D01*
X208895950Y-31134050D01*
X208895951Y-52404320D01*
X208873291Y-52376709D01*
X208841432Y-52350563D01*
X199060316Y-42569449D01*
X199074482Y-42535250D01*
X199145000Y-42180732D01*
X199145000Y-41819268D01*
X199074482Y-41464750D01*
X198936156Y-41130801D01*
X198735338Y-40830256D01*
X198479744Y-40574662D01*
X198179199Y-40373844D01*
X198145000Y-40359678D01*
X198145000Y-39871007D01*
X198149039Y-39829999D01*
X198145000Y-39788991D01*
X198145000Y-39788981D01*
X198132918Y-39666311D01*
X198085172Y-39508913D01*
X198055365Y-39453148D01*
X199286457Y-39453148D01*
X199562627Y-39871118D01*
X200107557Y-40161649D01*
X200698696Y-40340287D01*
X201313328Y-40400168D01*
X201927831Y-40338990D01*
X202518592Y-40159103D01*
X203057373Y-39871118D01*
X203333543Y-39453148D01*
X201310000Y-37429605D01*
X199286457Y-39453148D01*
X198055365Y-39453148D01*
X198007636Y-39363854D01*
X197903291Y-39236709D01*
X197871427Y-39210559D01*
X195914196Y-37253328D01*
X198159832Y-37253328D01*
X198221010Y-37867831D01*
X198400897Y-38458592D01*
X198688882Y-38997373D01*
X199106852Y-39273543D01*
X201130395Y-37250000D01*
X201489605Y-37250000D01*
X203513148Y-39273543D01*
X203931118Y-38997373D01*
X204221649Y-38452443D01*
X204400287Y-37861304D01*
X204460168Y-37246672D01*
X204398990Y-36632169D01*
X204298603Y-36302491D01*
X204475000Y-36302491D01*
X204475000Y-38197510D01*
X204503723Y-38489128D01*
X204617227Y-38863302D01*
X204801548Y-39208143D01*
X205049603Y-39510398D01*
X205351858Y-39758453D01*
X205696699Y-39942774D01*
X206070873Y-40056278D01*
X206460000Y-40094604D01*
X206849128Y-40056278D01*
X207223302Y-39942774D01*
X207568143Y-39758453D01*
X207870398Y-39510398D01*
X208118453Y-39208143D01*
X208302774Y-38863302D01*
X208416278Y-38489127D01*
X208445000Y-38197509D01*
X208445000Y-36302490D01*
X208416278Y-36010872D01*
X208302774Y-35636698D01*
X208118453Y-35291857D01*
X207870398Y-34989602D01*
X207568143Y-34741547D01*
X207223301Y-34557226D01*
X206849127Y-34443722D01*
X206460000Y-34405396D01*
X206070872Y-34443722D01*
X205696698Y-34557226D01*
X205351857Y-34741547D01*
X205049602Y-34989602D01*
X204801547Y-35291857D01*
X204617226Y-35636699D01*
X204503722Y-36010873D01*
X204475000Y-36302491D01*
X204298603Y-36302491D01*
X204219103Y-36041408D01*
X203931118Y-35502627D01*
X203513148Y-35226457D01*
X201489605Y-37250000D01*
X201130395Y-37250000D01*
X199106852Y-35226457D01*
X198688882Y-35502627D01*
X198398351Y-36047557D01*
X198219713Y-36638696D01*
X198159832Y-37253328D01*
X195914196Y-37253328D01*
X193707720Y-35046852D01*
X199286457Y-35046852D01*
X201310000Y-37070395D01*
X203333543Y-35046852D01*
X203057373Y-34628882D01*
X202512443Y-34338351D01*
X201921304Y-34159713D01*
X201306672Y-34099832D01*
X200692169Y-34161010D01*
X200101408Y-34340897D01*
X199562627Y-34628882D01*
X199286457Y-35046852D01*
X193707720Y-35046852D01*
X191119446Y-32458579D01*
X191093291Y-32426709D01*
X190966146Y-32322364D01*
X190821087Y-32244828D01*
X190663689Y-32197082D01*
X190541019Y-32185000D01*
X190541018Y-32185000D01*
X190500000Y-32180960D01*
X190458982Y-32185000D01*
X181211018Y-32185000D01*
X181170000Y-32180960D01*
X181128982Y-32185000D01*
X181128981Y-32185000D01*
X181006311Y-32197082D01*
X180868739Y-32238814D01*
X180848913Y-32244828D01*
X180703854Y-32322364D01*
X180660099Y-32358273D01*
X180576709Y-32426709D01*
X180550563Y-32458568D01*
X175707205Y-37301928D01*
X173750000Y-37301928D01*
X173625518Y-37314188D01*
X173505820Y-37350498D01*
X173395506Y-37409463D01*
X173298815Y-37488815D01*
X173219463Y-37585506D01*
X173160498Y-37695820D01*
X173124188Y-37815518D01*
X173111928Y-37940000D01*
X173111928Y-40140000D01*
X173124188Y-40264482D01*
X173160498Y-40384180D01*
X173219463Y-40494494D01*
X173298815Y-40591185D01*
X173395506Y-40670537D01*
X173505820Y-40729502D01*
X173625518Y-40765812D01*
X173750000Y-40778072D01*
X176550000Y-40778072D01*
X176674482Y-40765812D01*
X176794180Y-40729502D01*
X176904494Y-40670537D01*
X177001185Y-40591185D01*
X177080537Y-40494494D01*
X177139502Y-40384180D01*
X177175812Y-40264482D01*
X177188072Y-40140000D01*
X177188072Y-38182795D01*
X179068376Y-36302491D01*
X180175000Y-36302491D01*
X180175000Y-38197510D01*
X180203723Y-38489128D01*
X180317227Y-38863302D01*
X180501548Y-39208143D01*
X180749603Y-39510398D01*
X181051858Y-39758453D01*
X181396699Y-39942774D01*
X181770873Y-40056278D01*
X182160000Y-40094604D01*
X182549128Y-40056278D01*
X182923302Y-39942774D01*
X183268143Y-39758453D01*
X183570398Y-39510398D01*
X183617381Y-39453148D01*
X185286457Y-39453148D01*
X185562627Y-39871118D01*
X186107557Y-40161649D01*
X186698696Y-40340287D01*
X187313328Y-40400168D01*
X187927831Y-40338990D01*
X188518592Y-40159103D01*
X189057373Y-39871118D01*
X189333543Y-39453148D01*
X187310000Y-37429605D01*
X185286457Y-39453148D01*
X183617381Y-39453148D01*
X183818453Y-39208143D01*
X184002774Y-38863302D01*
X184116278Y-38489127D01*
X184145000Y-38197509D01*
X184145000Y-37253328D01*
X184159832Y-37253328D01*
X184221010Y-37867831D01*
X184400897Y-38458592D01*
X184688882Y-38997373D01*
X185106852Y-39273543D01*
X187130395Y-37250000D01*
X187489605Y-37250000D01*
X189513148Y-39273543D01*
X189931118Y-38997373D01*
X190221649Y-38452443D01*
X190400287Y-37861304D01*
X190460168Y-37246672D01*
X190398990Y-36632169D01*
X190219103Y-36041408D01*
X189931118Y-35502627D01*
X189513148Y-35226457D01*
X187489605Y-37250000D01*
X187130395Y-37250000D01*
X185106852Y-35226457D01*
X184688882Y-35502627D01*
X184398351Y-36047557D01*
X184219713Y-36638696D01*
X184159832Y-37253328D01*
X184145000Y-37253328D01*
X184145000Y-36302490D01*
X184116278Y-36010872D01*
X184002774Y-35636698D01*
X183818453Y-35291857D01*
X183617382Y-35046852D01*
X185286457Y-35046852D01*
X187310000Y-37070395D01*
X189333543Y-35046852D01*
X189057373Y-34628882D01*
X188512443Y-34338351D01*
X187921304Y-34159713D01*
X187306672Y-34099832D01*
X186692169Y-34161010D01*
X186101408Y-34340897D01*
X185562627Y-34628882D01*
X185286457Y-35046852D01*
X183617382Y-35046852D01*
X183570398Y-34989602D01*
X183268143Y-34741547D01*
X182923301Y-34557226D01*
X182549127Y-34443722D01*
X182160000Y-34405396D01*
X181770872Y-34443722D01*
X181396698Y-34557226D01*
X181051857Y-34741547D01*
X180749602Y-34989602D01*
X180501547Y-35291857D01*
X180317226Y-35636699D01*
X180203722Y-36010873D01*
X180175000Y-36302491D01*
X179068376Y-36302491D01*
X181515869Y-33855000D01*
X190154133Y-33855000D01*
X196475001Y-40175869D01*
X196475001Y-40359678D01*
X196440801Y-40373844D01*
X196140256Y-40574662D01*
X195884662Y-40830256D01*
X195683844Y-41130801D01*
X195545518Y-41464750D01*
X195475000Y-41819268D01*
X195475000Y-42180732D01*
X195545518Y-42535250D01*
X195683844Y-42869199D01*
X195884662Y-43169744D01*
X196140256Y-43425338D01*
X196440801Y-43626156D01*
X196774750Y-43764482D01*
X197129268Y-43835000D01*
X197490732Y-43835000D01*
X197845250Y-43764482D01*
X197879449Y-43750316D01*
X207445001Y-53315870D01*
X207445000Y-59344132D01*
X207145000Y-59644132D01*
X207145000Y-59419268D01*
X207074482Y-59064750D01*
X206936156Y-58730801D01*
X206735338Y-58430256D01*
X206479744Y-58174662D01*
X206179199Y-57973844D01*
X205845250Y-57835518D01*
X205490732Y-57765000D01*
X205129268Y-57765000D01*
X204774750Y-57835518D01*
X204740552Y-57849683D01*
X188329446Y-41438579D01*
X188303291Y-41406709D01*
X188176146Y-41302364D01*
X188031087Y-41224828D01*
X187873689Y-41177082D01*
X187751019Y-41165000D01*
X187751018Y-41165000D01*
X187710000Y-41160960D01*
X187668982Y-41165000D01*
X184950322Y-41165000D01*
X184936156Y-41130801D01*
X184735338Y-40830256D01*
X184479744Y-40574662D01*
X184179199Y-40373844D01*
X183845250Y-40235518D01*
X183490732Y-40165000D01*
X183129268Y-40165000D01*
X182774750Y-40235518D01*
X182440801Y-40373844D01*
X182140256Y-40574662D01*
X181884662Y-40830256D01*
X181683844Y-41130801D01*
X181545518Y-41464750D01*
X181475000Y-41819268D01*
X181475000Y-42180732D01*
X181545518Y-42535250D01*
X181559684Y-42569449D01*
X174506633Y-49622500D01*
X173688518Y-49622500D01*
X173647500Y-49618460D01*
X173606482Y-49622500D01*
X168585000Y-49622500D01*
X168585000Y-48478072D01*
X169150000Y-48478072D01*
X169274482Y-48465812D01*
X169394180Y-48429502D01*
X169504494Y-48370537D01*
X169601185Y-48291185D01*
X169680537Y-48194494D01*
X169739502Y-48084180D01*
X169775812Y-47964482D01*
X169788072Y-47840000D01*
X169788072Y-45040000D01*
X169783516Y-44993740D01*
X169965000Y-44993740D01*
X169965000Y-45286260D01*
X170022068Y-45573158D01*
X170134010Y-45843411D01*
X170296525Y-46086632D01*
X170503368Y-46293475D01*
X170746589Y-46455990D01*
X171016842Y-46567932D01*
X171303740Y-46625000D01*
X171596260Y-46625000D01*
X171883158Y-46567932D01*
X172153411Y-46455990D01*
X172396632Y-46293475D01*
X172603475Y-46086632D01*
X172765990Y-45843411D01*
X172877932Y-45573158D01*
X172935000Y-45286260D01*
X172935000Y-44993740D01*
X172877932Y-44706842D01*
X172765990Y-44436589D01*
X172603475Y-44193368D01*
X172396632Y-43986525D01*
X172153411Y-43824010D01*
X171883158Y-43712068D01*
X171596260Y-43655000D01*
X171303740Y-43655000D01*
X171016842Y-43712068D01*
X170746589Y-43824010D01*
X170503368Y-43986525D01*
X170296525Y-44193368D01*
X170134010Y-44436589D01*
X170022068Y-44706842D01*
X169965000Y-44993740D01*
X169783516Y-44993740D01*
X169775812Y-44915518D01*
X169739502Y-44795820D01*
X169680537Y-44685506D01*
X169601185Y-44588815D01*
X169504494Y-44509463D01*
X169394180Y-44450498D01*
X169274482Y-44414188D01*
X169150000Y-44401928D01*
X166350000Y-44401928D01*
X166225518Y-44414188D01*
X166105820Y-44450498D01*
X165995506Y-44509463D01*
X165898815Y-44588815D01*
X165819463Y-44685506D01*
X165760498Y-44795820D01*
X165724188Y-44915518D01*
X165711928Y-45040000D01*
X165711928Y-47840000D01*
X165724188Y-47964482D01*
X165760498Y-48084180D01*
X165819463Y-48194494D01*
X165898815Y-48291185D01*
X165995506Y-48370537D01*
X166105820Y-48429502D01*
X166225518Y-48465812D01*
X166350000Y-48478072D01*
X166915000Y-48478072D01*
X166915000Y-50111632D01*
X160110000Y-56916632D01*
X160110000Y-56790498D01*
X159951252Y-56790498D01*
X160110000Y-56631750D01*
X160113072Y-56330000D01*
X160100812Y-56205518D01*
X160064502Y-56085820D01*
X160005537Y-55975506D01*
X159926185Y-55878815D01*
X159846406Y-55813342D01*
X159852962Y-55807962D01*
X159963405Y-55673386D01*
X160045472Y-55519850D01*
X160096008Y-55353254D01*
X160113072Y-55180000D01*
X160113072Y-54505000D01*
X160096008Y-54331746D01*
X160045472Y-54165150D01*
X159963405Y-54011614D01*
X159852962Y-53877038D01*
X159718386Y-53766595D01*
X159564850Y-53684528D01*
X159398254Y-53633992D01*
X159225000Y-53616928D01*
X158275000Y-53616928D01*
X158101746Y-53633992D01*
X157935150Y-53684528D01*
X157781614Y-53766595D01*
X157647038Y-53877038D01*
X157539971Y-54007500D01*
X157420029Y-54007500D01*
X157312962Y-53877038D01*
X157178386Y-53766595D01*
X157024850Y-53684528D01*
X156858254Y-53633992D01*
X156685000Y-53616928D01*
X156040296Y-53616928D01*
X155359581Y-52936213D01*
X155362377Y-52907820D01*
X155391007Y-52905000D01*
X158872798Y-52905000D01*
X158944095Y-53038386D01*
X159054538Y-53172962D01*
X159189114Y-53283405D01*
X159342650Y-53365472D01*
X159509246Y-53416008D01*
X159682500Y-53433072D01*
X160357500Y-53433072D01*
X160530754Y-53416008D01*
X160697350Y-53365472D01*
X160850886Y-53283405D01*
X160985462Y-53172962D01*
X160990842Y-53166406D01*
X161056315Y-53246185D01*
X161153006Y-53325537D01*
X161263320Y-53384502D01*
X161383018Y-53420812D01*
X161507500Y-53433072D01*
X161809250Y-53430000D01*
X161968000Y-53271250D01*
X161968000Y-52197000D01*
X162222000Y-52197000D01*
X162222000Y-53271250D01*
X162380750Y-53430000D01*
X162682500Y-53433072D01*
X162806982Y-53420812D01*
X162926680Y-53384502D01*
X163036994Y-53325537D01*
X163133685Y-53246185D01*
X163213037Y-53149494D01*
X163272002Y-53039180D01*
X163308312Y-52919482D01*
X163320572Y-52795000D01*
X163317500Y-52355750D01*
X163158750Y-52197000D01*
X162222000Y-52197000D01*
X161968000Y-52197000D01*
X161948000Y-52197000D01*
X161948000Y-51943000D01*
X161968000Y-51943000D01*
X161968000Y-50868750D01*
X161899250Y-50800000D01*
X161968000Y-50731250D01*
X161968000Y-49657000D01*
X162222000Y-49657000D01*
X162222000Y-50731250D01*
X162290750Y-50800000D01*
X162222000Y-50868750D01*
X162222000Y-51943000D01*
X163158750Y-51943000D01*
X163317500Y-51784250D01*
X163320572Y-51345000D01*
X163308312Y-51220518D01*
X163272002Y-51100820D01*
X163213037Y-50990506D01*
X163133685Y-50893815D01*
X163036994Y-50814463D01*
X163009936Y-50800000D01*
X163036994Y-50785537D01*
X163133685Y-50706185D01*
X163213037Y-50609494D01*
X163272002Y-50499180D01*
X163308312Y-50379482D01*
X163320572Y-50255000D01*
X163317500Y-49815750D01*
X163158750Y-49657000D01*
X162222000Y-49657000D01*
X161968000Y-49657000D01*
X161948000Y-49657000D01*
X161948000Y-49403000D01*
X161968000Y-49403000D01*
X161968000Y-49383000D01*
X162222000Y-49383000D01*
X162222000Y-49403000D01*
X163158750Y-49403000D01*
X163317500Y-49244250D01*
X163320572Y-48805000D01*
X163308312Y-48680518D01*
X163272002Y-48560820D01*
X163213037Y-48450506D01*
X163133685Y-48353815D01*
X163036994Y-48274463D01*
X162926680Y-48215498D01*
X162806982Y-48179188D01*
X162704527Y-48169097D01*
X162798196Y-48054962D01*
X162854775Y-47949110D01*
X162885017Y-47892531D01*
X162938482Y-47716282D01*
X162956534Y-47532990D01*
X162952010Y-47487055D01*
X162952010Y-41412945D01*
X162956534Y-41367010D01*
X162938482Y-41183718D01*
X162885017Y-41007471D01*
X162885017Y-41007470D01*
X162798196Y-40845038D01*
X162681354Y-40702666D01*
X162645670Y-40673381D01*
X160112289Y-38140000D01*
X165711928Y-38140000D01*
X165724188Y-38264482D01*
X165760498Y-38384180D01*
X165819463Y-38494494D01*
X165898815Y-38591185D01*
X165995506Y-38670537D01*
X166105820Y-38729502D01*
X166225518Y-38765812D01*
X166350000Y-38778072D01*
X167464250Y-38775000D01*
X167623000Y-38616250D01*
X167623000Y-37167000D01*
X167877000Y-37167000D01*
X167877000Y-38616250D01*
X168035750Y-38775000D01*
X169150000Y-38778072D01*
X169274482Y-38765812D01*
X169394180Y-38729502D01*
X169504494Y-38670537D01*
X169601185Y-38591185D01*
X169680537Y-38494494D01*
X169739502Y-38384180D01*
X169775812Y-38264482D01*
X169788072Y-38140000D01*
X169787521Y-37993740D01*
X169965000Y-37993740D01*
X169965000Y-38286260D01*
X170022068Y-38573158D01*
X170134010Y-38843411D01*
X170296525Y-39086632D01*
X170503368Y-39293475D01*
X170746589Y-39455990D01*
X171016842Y-39567932D01*
X171303740Y-39625000D01*
X171596260Y-39625000D01*
X171883158Y-39567932D01*
X172153411Y-39455990D01*
X172396632Y-39293475D01*
X172603475Y-39086632D01*
X172765990Y-38843411D01*
X172877932Y-38573158D01*
X172935000Y-38286260D01*
X172935000Y-37993740D01*
X172877932Y-37706842D01*
X172765990Y-37436589D01*
X172603475Y-37193368D01*
X172396632Y-36986525D01*
X172153411Y-36824010D01*
X171883158Y-36712068D01*
X171596260Y-36655000D01*
X171303740Y-36655000D01*
X171016842Y-36712068D01*
X170746589Y-36824010D01*
X170503368Y-36986525D01*
X170296525Y-37193368D01*
X170134010Y-37436589D01*
X170022068Y-37706842D01*
X169965000Y-37993740D01*
X169787521Y-37993740D01*
X169785000Y-37325750D01*
X169626250Y-37167000D01*
X167877000Y-37167000D01*
X167623000Y-37167000D01*
X165873750Y-37167000D01*
X165715000Y-37325750D01*
X165711928Y-38140000D01*
X160112289Y-38140000D01*
X157912289Y-35940000D01*
X165711928Y-35940000D01*
X165715000Y-36754250D01*
X165873750Y-36913000D01*
X167623000Y-36913000D01*
X167623000Y-35463750D01*
X167877000Y-35463750D01*
X167877000Y-36913000D01*
X169626250Y-36913000D01*
X169785000Y-36754250D01*
X169788072Y-35940000D01*
X169775812Y-35815518D01*
X169739502Y-35695820D01*
X169680537Y-35585506D01*
X169601185Y-35488815D01*
X169504494Y-35409463D01*
X169394180Y-35350498D01*
X169274482Y-35314188D01*
X169150000Y-35301928D01*
X168035750Y-35305000D01*
X167877000Y-35463750D01*
X167623000Y-35463750D01*
X167464250Y-35305000D01*
X166350000Y-35301928D01*
X166225518Y-35314188D01*
X166105820Y-35350498D01*
X165995506Y-35409463D01*
X165898815Y-35488815D01*
X165819463Y-35585506D01*
X165760498Y-35695820D01*
X165724188Y-35815518D01*
X165711928Y-35940000D01*
X157912289Y-35940000D01*
X154363630Y-32391341D01*
X154334344Y-32355656D01*
X154191972Y-32238814D01*
X154029540Y-32151993D01*
X153853292Y-32098529D01*
X153715932Y-32085000D01*
X153670000Y-32080476D01*
X153624068Y-32085000D01*
X149751247Y-32085000D01*
X149743475Y-32073368D01*
X149611620Y-31941513D01*
X149684180Y-31919502D01*
X149794494Y-31860537D01*
X149891185Y-31781185D01*
X149970537Y-31684494D01*
X150029502Y-31574180D01*
X150065812Y-31454482D01*
X150078072Y-31330000D01*
X150078072Y-29630000D01*
X150065812Y-29505518D01*
X150029502Y-29385820D01*
X149970537Y-29275506D01*
X149891185Y-29178815D01*
X149794494Y-29099463D01*
X149684180Y-29040498D01*
X149564482Y-29004188D01*
X149440000Y-28991928D01*
X147740000Y-28991928D01*
X147615518Y-29004188D01*
X147495820Y-29040498D01*
X147385506Y-29099463D01*
X147288815Y-29178815D01*
X147209463Y-29275506D01*
X147150498Y-29385820D01*
X147114188Y-29505518D01*
X147101928Y-29630000D01*
X147101928Y-30734001D01*
X144883845Y-30734001D01*
X144907000Y-30617592D01*
X144907000Y-30342408D01*
X144853314Y-30072510D01*
X144748005Y-29818273D01*
X144595120Y-29589465D01*
X144400535Y-29394880D01*
X144171727Y-29241995D01*
X144094485Y-29210000D01*
X144171727Y-29178005D01*
X144400535Y-29025120D01*
X144595120Y-28830535D01*
X144748005Y-28601727D01*
X144853314Y-28347490D01*
X144907000Y-28077592D01*
X144907000Y-27802408D01*
X144853314Y-27532510D01*
X144748005Y-27278273D01*
X144595120Y-27049465D01*
X144400535Y-26854880D01*
X144171727Y-26701995D01*
X143917490Y-26596686D01*
X143647592Y-26543000D01*
X143372408Y-26543000D01*
X143102510Y-26596686D01*
X142848273Y-26701995D01*
X142619465Y-26854880D01*
X142424880Y-27049465D01*
X142271995Y-27278273D01*
X142240000Y-27355515D01*
X142208005Y-27278273D01*
X142055120Y-27049465D01*
X141860535Y-26854880D01*
X141631727Y-26701995D01*
X141377490Y-26596686D01*
X141107592Y-26543000D01*
X140832408Y-26543000D01*
X140562510Y-26596686D01*
X140308273Y-26701995D01*
X140079465Y-26854880D01*
X139884880Y-27049465D01*
X139731995Y-27278273D01*
X139626686Y-27532510D01*
X139573000Y-27802408D01*
X139573000Y-28077592D01*
X139626686Y-28347490D01*
X139731995Y-28601727D01*
X139884880Y-28830535D01*
X140079465Y-29025120D01*
X140308273Y-29178005D01*
X140379943Y-29207692D01*
X140366977Y-29212364D01*
X140251020Y-29274344D01*
X140184040Y-29514435D01*
X140970000Y-30300395D01*
X141755960Y-29514435D01*
X141688980Y-29274344D01*
X141553240Y-29210515D01*
X141631727Y-29178005D01*
X141860535Y-29025120D01*
X142055120Y-28830535D01*
X142208005Y-28601727D01*
X142240000Y-28524485D01*
X142271995Y-28601727D01*
X142424880Y-28830535D01*
X142619465Y-29025120D01*
X142848273Y-29178005D01*
X142925515Y-29210000D01*
X142848273Y-29241995D01*
X142619465Y-29394880D01*
X142424880Y-29589465D01*
X142271995Y-29818273D01*
X142242308Y-29889943D01*
X142237636Y-29876977D01*
X142175656Y-29761020D01*
X141935565Y-29694040D01*
X141149605Y-30480000D01*
X141163748Y-30494143D01*
X140984143Y-30673748D01*
X140970000Y-30659605D01*
X140872680Y-30756925D01*
X140774643Y-30786664D01*
X140704544Y-30824133D01*
X140646957Y-30854914D01*
X140535039Y-30946763D01*
X140512023Y-30974808D01*
X139205808Y-32281024D01*
X139177763Y-32304040D01*
X139085914Y-32415958D01*
X139080167Y-32426710D01*
X139017664Y-32543645D01*
X138975635Y-32682193D01*
X138961444Y-32826278D01*
X138965001Y-32862393D01*
X138965000Y-54573895D01*
X138961444Y-54610000D01*
X138965000Y-54646104D01*
X138975635Y-54754084D01*
X139017663Y-54892632D01*
X139085913Y-55020319D01*
X139177762Y-55132237D01*
X139205808Y-55155254D01*
X139609494Y-55558940D01*
X139573000Y-55742408D01*
X139573000Y-56017592D01*
X139626686Y-56287490D01*
X139731995Y-56541727D01*
X139884880Y-56770535D01*
X140079465Y-56965120D01*
X140308273Y-57118005D01*
X140385515Y-57150000D01*
X140308273Y-57181995D01*
X140079465Y-57334880D01*
X139884880Y-57529465D01*
X139731995Y-57758273D01*
X139626686Y-58012510D01*
X139573000Y-58282408D01*
X139573000Y-58557592D01*
X139626686Y-58827490D01*
X139731995Y-59081727D01*
X139884880Y-59310535D01*
X140079465Y-59505120D01*
X140308273Y-59658005D01*
X140385515Y-59690000D01*
X140308273Y-59721995D01*
X140079465Y-59874880D01*
X139884880Y-60069465D01*
X139731995Y-60298273D01*
X139626686Y-60552510D01*
X139573000Y-60822408D01*
X139573000Y-61097592D01*
X139626686Y-61367490D01*
X139731995Y-61621727D01*
X139884880Y-61850535D01*
X140079465Y-62045120D01*
X140308273Y-62198005D01*
X140385515Y-62230000D01*
X140308273Y-62261995D01*
X140079465Y-62414880D01*
X139884880Y-62609465D01*
X139731995Y-62838273D01*
X139626686Y-63092510D01*
X139573000Y-63362408D01*
X139573000Y-63637592D01*
X139626686Y-63907490D01*
X139731995Y-64161727D01*
X139884880Y-64390535D01*
X140079465Y-64585120D01*
X140308273Y-64738005D01*
X140385515Y-64770000D01*
X140308273Y-64801995D01*
X140079465Y-64954880D01*
X139884880Y-65149465D01*
X139731995Y-65378273D01*
X139626686Y-65632510D01*
X139573000Y-65902408D01*
X139573000Y-66177592D01*
X139626686Y-66447490D01*
X139731995Y-66701727D01*
X139884880Y-66930535D01*
X140079465Y-67125120D01*
X140308273Y-67278005D01*
X140385515Y-67310000D01*
X140308273Y-67341995D01*
X140079465Y-67494880D01*
X139884880Y-67689465D01*
X139731995Y-67918273D01*
X139626686Y-68172510D01*
X139573000Y-68442408D01*
X139573000Y-68717592D01*
X139626686Y-68987490D01*
X139731995Y-69241727D01*
X139884880Y-69470535D01*
X140079465Y-69665120D01*
X140308273Y-69818005D01*
X140385515Y-69850000D01*
X140308273Y-69881995D01*
X140079465Y-70034880D01*
X139884880Y-70229465D01*
X139731995Y-70458273D01*
X139626686Y-70712510D01*
X139573000Y-70982408D01*
X139573000Y-71257592D01*
X139626686Y-71527490D01*
X139731995Y-71781727D01*
X139884880Y-72010535D01*
X140079465Y-72205120D01*
X140308273Y-72358005D01*
X140385515Y-72390000D01*
X140308273Y-72421995D01*
X140079465Y-72574880D01*
X139884880Y-72769465D01*
X139731995Y-72998273D01*
X139626686Y-73252510D01*
X139573000Y-73522408D01*
X139573000Y-73797592D01*
X139626686Y-74067490D01*
X139731995Y-74321727D01*
X139884880Y-74550535D01*
X140079465Y-74745120D01*
X140308273Y-74898005D01*
X140385515Y-74930000D01*
X140308273Y-74961995D01*
X140079465Y-75114880D01*
X139884880Y-75309465D01*
X139731995Y-75538273D01*
X139626686Y-75792510D01*
X139573000Y-76062408D01*
X139573000Y-76337592D01*
X139626686Y-76607490D01*
X139731995Y-76861727D01*
X139884880Y-77090535D01*
X140079465Y-77285120D01*
X140308273Y-77438005D01*
X140562510Y-77543314D01*
X140832408Y-77597000D01*
X141107592Y-77597000D01*
X141377490Y-77543314D01*
X141631727Y-77438005D01*
X141860535Y-77285120D01*
X142055120Y-77090535D01*
X142208005Y-76861727D01*
X142240000Y-76784485D01*
X142271995Y-76861727D01*
X142424880Y-77090535D01*
X142619465Y-77285120D01*
X142848273Y-77438005D01*
X143102510Y-77543314D01*
X143372408Y-77597000D01*
X143647592Y-77597000D01*
X143917490Y-77543314D01*
X144171727Y-77438005D01*
X144400535Y-77285120D01*
X144595120Y-77090535D01*
X144748005Y-76861727D01*
X144853314Y-76607490D01*
X144907000Y-76337592D01*
X144907000Y-76062408D01*
X144853314Y-75792510D01*
X144748005Y-75538273D01*
X144595120Y-75309465D01*
X144400535Y-75114880D01*
X144171727Y-74961995D01*
X144094485Y-74930000D01*
X144171727Y-74898005D01*
X144400535Y-74745120D01*
X144595120Y-74550535D01*
X144748005Y-74321727D01*
X144853314Y-74067490D01*
X144907000Y-73797592D01*
X144907000Y-73522408D01*
X144853314Y-73252510D01*
X144748005Y-72998273D01*
X144595120Y-72769465D01*
X144400535Y-72574880D01*
X144171727Y-72421995D01*
X144094485Y-72390000D01*
X144171727Y-72358005D01*
X144400535Y-72205120D01*
X144595120Y-72010535D01*
X144748005Y-71781727D01*
X144853314Y-71527490D01*
X144907000Y-71257592D01*
X144907000Y-70982408D01*
X144853314Y-70712510D01*
X144748005Y-70458273D01*
X144595120Y-70229465D01*
X144400535Y-70034880D01*
X144171727Y-69881995D01*
X144094485Y-69850000D01*
X144171727Y-69818005D01*
X144400535Y-69665120D01*
X144595120Y-69470535D01*
X144748005Y-69241727D01*
X144853314Y-68987490D01*
X144907000Y-68717592D01*
X144907000Y-68442408D01*
X144853314Y-68172510D01*
X144748005Y-67918273D01*
X144595120Y-67689465D01*
X144400535Y-67494880D01*
X144171727Y-67341995D01*
X144094485Y-67310000D01*
X144171727Y-67278005D01*
X144400535Y-67125120D01*
X144595120Y-66930535D01*
X144748005Y-66701727D01*
X144853314Y-66447490D01*
X144907000Y-66177592D01*
X144907000Y-65902408D01*
X144853314Y-65632510D01*
X144748005Y-65378273D01*
X144595120Y-65149465D01*
X144400535Y-64954880D01*
X144171727Y-64801995D01*
X144094485Y-64770000D01*
X144171727Y-64738005D01*
X144400535Y-64585120D01*
X144595120Y-64390535D01*
X144748005Y-64161727D01*
X144853314Y-63907490D01*
X144907000Y-63637592D01*
X144907000Y-63362408D01*
X144853314Y-63092510D01*
X144748005Y-62838273D01*
X144595120Y-62609465D01*
X144400535Y-62414880D01*
X144171727Y-62261995D01*
X144094485Y-62230000D01*
X144171727Y-62198005D01*
X144400535Y-62045120D01*
X144595120Y-61850535D01*
X144748005Y-61621727D01*
X144853314Y-61367490D01*
X144907000Y-61097592D01*
X144907000Y-60822408D01*
X144853314Y-60552510D01*
X144748005Y-60298273D01*
X144595120Y-60069465D01*
X144400535Y-59874880D01*
X144171727Y-59721995D01*
X144094485Y-59690000D01*
X144171727Y-59658005D01*
X144400535Y-59505120D01*
X144595120Y-59310535D01*
X144748005Y-59081727D01*
X144853314Y-58827490D01*
X144907000Y-58557592D01*
X144907000Y-58282408D01*
X144870506Y-58098940D01*
X147432501Y-55536946D01*
X147432500Y-61866481D01*
X147428460Y-61907500D01*
X147432500Y-61948518D01*
X147444582Y-62071188D01*
X147492328Y-62228586D01*
X147569864Y-62373645D01*
X147674209Y-62500791D01*
X147706079Y-62526946D01*
X151780563Y-66601432D01*
X151806709Y-66633291D01*
X151933854Y-66737636D01*
X152078913Y-66815172D01*
X152236311Y-66862918D01*
X152358981Y-66875000D01*
X152358982Y-66875000D01*
X152400000Y-66879040D01*
X152441018Y-66875000D01*
X152755298Y-66875000D01*
X152826595Y-67008386D01*
X152937038Y-67142962D01*
X153071614Y-67253405D01*
X153225150Y-67335472D01*
X153391746Y-67386008D01*
X153565000Y-67403072D01*
X154240000Y-67403072D01*
X154413254Y-67386008D01*
X154579850Y-67335472D01*
X154733386Y-67253405D01*
X154867962Y-67142962D01*
X154940000Y-67055183D01*
X155012038Y-67142962D01*
X155146614Y-67253405D01*
X155300150Y-67335472D01*
X155466746Y-67386008D01*
X155640000Y-67403072D01*
X156315000Y-67403072D01*
X156488254Y-67386008D01*
X156654850Y-67335472D01*
X156808386Y-67253405D01*
X156942962Y-67142962D01*
X157053405Y-67008386D01*
X157124702Y-66875000D01*
X164228982Y-66875000D01*
X164270000Y-66879040D01*
X164311018Y-66875000D01*
X164311019Y-66875000D01*
X164433689Y-66862918D01*
X164591087Y-66815172D01*
X164736146Y-66737636D01*
X164863291Y-66633291D01*
X164889446Y-66601421D01*
X165830867Y-65660000D01*
X173111928Y-65660000D01*
X173124188Y-65784482D01*
X173160498Y-65904180D01*
X173219463Y-66014494D01*
X173298815Y-66111185D01*
X173395506Y-66190537D01*
X173505820Y-66249502D01*
X173625518Y-66285812D01*
X173750000Y-66298072D01*
X174864250Y-66295000D01*
X175023000Y-66136250D01*
X175023000Y-64687000D01*
X175277000Y-64687000D01*
X175277000Y-66136250D01*
X175435750Y-66295000D01*
X176550000Y-66298072D01*
X176674482Y-66285812D01*
X176794180Y-66249502D01*
X176904494Y-66190537D01*
X177001185Y-66111185D01*
X177080537Y-66014494D01*
X177139502Y-65904180D01*
X177175812Y-65784482D01*
X177188072Y-65660000D01*
X177185000Y-64845750D01*
X177026250Y-64687000D01*
X175277000Y-64687000D01*
X175023000Y-64687000D01*
X173273750Y-64687000D01*
X173115000Y-64845750D01*
X173111928Y-65660000D01*
X165830867Y-65660000D01*
X167192796Y-64298072D01*
X169150000Y-64298072D01*
X169274482Y-64285812D01*
X169394180Y-64249502D01*
X169504494Y-64190537D01*
X169601185Y-64111185D01*
X169680537Y-64014494D01*
X169739502Y-63904180D01*
X169775812Y-63784482D01*
X169788072Y-63660000D01*
X169788072Y-63313740D01*
X169965000Y-63313740D01*
X169965000Y-63606260D01*
X170022068Y-63893158D01*
X170134010Y-64163411D01*
X170296525Y-64406632D01*
X170503368Y-64613475D01*
X170746589Y-64775990D01*
X171016842Y-64887932D01*
X171303740Y-64945000D01*
X171596260Y-64945000D01*
X171883158Y-64887932D01*
X172153411Y-64775990D01*
X172396632Y-64613475D01*
X172603475Y-64406632D01*
X172765990Y-64163411D01*
X172877932Y-63893158D01*
X172935000Y-63606260D01*
X172935000Y-63460000D01*
X173111928Y-63460000D01*
X173115000Y-64274250D01*
X173273750Y-64433000D01*
X175023000Y-64433000D01*
X175023000Y-62983750D01*
X175277000Y-62983750D01*
X175277000Y-64433000D01*
X177026250Y-64433000D01*
X177185000Y-64274250D01*
X177188072Y-63460000D01*
X177182408Y-63402490D01*
X180175000Y-63402490D01*
X180175000Y-65297509D01*
X180203722Y-65589127D01*
X180317226Y-65963301D01*
X180501547Y-66308143D01*
X180749602Y-66610398D01*
X181051857Y-66858453D01*
X181396698Y-67042774D01*
X181770872Y-67156278D01*
X182160000Y-67194604D01*
X182549127Y-67156278D01*
X182923301Y-67042774D01*
X183268143Y-66858453D01*
X183570398Y-66610398D01*
X183617381Y-66553148D01*
X185286457Y-66553148D01*
X185562627Y-66971118D01*
X186107557Y-67261649D01*
X186698696Y-67440287D01*
X187313328Y-67500168D01*
X187927831Y-67438990D01*
X188518592Y-67259103D01*
X189057373Y-66971118D01*
X189333543Y-66553148D01*
X199286457Y-66553148D01*
X199562627Y-66971118D01*
X200107557Y-67261649D01*
X200698696Y-67440287D01*
X201313328Y-67500168D01*
X201927831Y-67438990D01*
X202518592Y-67259103D01*
X203057373Y-66971118D01*
X203333543Y-66553148D01*
X201310000Y-64529605D01*
X199286457Y-66553148D01*
X189333543Y-66553148D01*
X187310000Y-64529605D01*
X185286457Y-66553148D01*
X183617381Y-66553148D01*
X183818453Y-66308143D01*
X184002774Y-65963302D01*
X184116278Y-65589128D01*
X184145000Y-65297510D01*
X184145000Y-64353328D01*
X184159832Y-64353328D01*
X184221010Y-64967831D01*
X184400897Y-65558592D01*
X184688882Y-66097373D01*
X185106852Y-66373543D01*
X187130395Y-64350000D01*
X187489605Y-64350000D01*
X189513148Y-66373543D01*
X189931118Y-66097373D01*
X190221649Y-65552443D01*
X190400287Y-64961304D01*
X190459519Y-64353328D01*
X198159832Y-64353328D01*
X198221010Y-64967831D01*
X198400897Y-65558592D01*
X198688882Y-66097373D01*
X199106852Y-66373543D01*
X201130395Y-64350000D01*
X201489605Y-64350000D01*
X203513148Y-66373543D01*
X203931118Y-66097373D01*
X204221649Y-65552443D01*
X204400287Y-64961304D01*
X204460168Y-64346672D01*
X204398990Y-63732169D01*
X204219103Y-63141408D01*
X203931118Y-62602627D01*
X203513148Y-62326457D01*
X201489605Y-64350000D01*
X201130395Y-64350000D01*
X199106852Y-62326457D01*
X198688882Y-62602627D01*
X198398351Y-63147557D01*
X198219713Y-63738696D01*
X198159832Y-64353328D01*
X190459519Y-64353328D01*
X190460168Y-64346672D01*
X190398990Y-63732169D01*
X190219103Y-63141408D01*
X189931118Y-62602627D01*
X189513148Y-62326457D01*
X187489605Y-64350000D01*
X187130395Y-64350000D01*
X185106852Y-62326457D01*
X184688882Y-62602627D01*
X184398351Y-63147557D01*
X184219713Y-63738696D01*
X184159832Y-64353328D01*
X184145000Y-64353328D01*
X184145000Y-63402491D01*
X184116278Y-63110873D01*
X184002774Y-62736698D01*
X183818453Y-62391857D01*
X183617382Y-62146852D01*
X185286457Y-62146852D01*
X187310000Y-64170395D01*
X189333543Y-62146852D01*
X189057373Y-61728882D01*
X188512443Y-61438351D01*
X187921304Y-61259713D01*
X187306672Y-61199832D01*
X186692169Y-61261010D01*
X186101408Y-61440897D01*
X185562627Y-61728882D01*
X185286457Y-62146852D01*
X183617382Y-62146852D01*
X183570398Y-62089602D01*
X183268143Y-61841547D01*
X182923302Y-61657226D01*
X182549128Y-61543722D01*
X182160000Y-61505396D01*
X181770873Y-61543722D01*
X181396699Y-61657226D01*
X181051858Y-61841547D01*
X180749603Y-62089602D01*
X180501548Y-62391857D01*
X180317227Y-62736698D01*
X180203723Y-63110872D01*
X180175000Y-63402490D01*
X177182408Y-63402490D01*
X177175812Y-63335518D01*
X177139502Y-63215820D01*
X177080537Y-63105506D01*
X177001185Y-63008815D01*
X176904494Y-62929463D01*
X176794180Y-62870498D01*
X176674482Y-62834188D01*
X176550000Y-62821928D01*
X175435750Y-62825000D01*
X175277000Y-62983750D01*
X175023000Y-62983750D01*
X174864250Y-62825000D01*
X173750000Y-62821928D01*
X173625518Y-62834188D01*
X173505820Y-62870498D01*
X173395506Y-62929463D01*
X173298815Y-63008815D01*
X173219463Y-63105506D01*
X173160498Y-63215820D01*
X173124188Y-63335518D01*
X173111928Y-63460000D01*
X172935000Y-63460000D01*
X172935000Y-63313740D01*
X172877932Y-63026842D01*
X172765990Y-62756589D01*
X172603475Y-62513368D01*
X172396632Y-62306525D01*
X172153411Y-62144010D01*
X171883158Y-62032068D01*
X171596260Y-61975000D01*
X171303740Y-61975000D01*
X171016842Y-62032068D01*
X170746589Y-62144010D01*
X170503368Y-62306525D01*
X170296525Y-62513368D01*
X170134010Y-62756589D01*
X170022068Y-63026842D01*
X169965000Y-63313740D01*
X169788072Y-63313740D01*
X169788072Y-61702795D01*
X171055868Y-60435000D01*
X189669678Y-60435000D01*
X189683844Y-60469199D01*
X189884662Y-60769744D01*
X190140256Y-61025338D01*
X190440801Y-61226156D01*
X190774750Y-61364482D01*
X191129268Y-61435000D01*
X191490732Y-61435000D01*
X191845250Y-61364482D01*
X191879448Y-61350317D01*
X192217564Y-61688433D01*
X192243710Y-61720292D01*
X192275569Y-61746438D01*
X192275571Y-61746440D01*
X192296792Y-61763855D01*
X192370855Y-61824637D01*
X192515914Y-61902173D01*
X192673312Y-61949919D01*
X192795982Y-61962001D01*
X192795983Y-61962001D01*
X192837001Y-61966041D01*
X192878019Y-61962001D01*
X199408596Y-61962001D01*
X199286457Y-62146852D01*
X201310000Y-64170395D01*
X203333543Y-62146852D01*
X203211404Y-61962001D01*
X205205085Y-61962001D01*
X205049603Y-62089602D01*
X204801548Y-62391857D01*
X204617227Y-62736698D01*
X204503723Y-63110872D01*
X204475000Y-63402490D01*
X204475000Y-65297509D01*
X204503722Y-65589127D01*
X204617226Y-65963301D01*
X204801547Y-66308143D01*
X205049602Y-66610398D01*
X205351857Y-66858453D01*
X205696698Y-67042774D01*
X206070872Y-67156278D01*
X206460000Y-67194604D01*
X206849127Y-67156278D01*
X207223301Y-67042774D01*
X207568143Y-66858453D01*
X207870398Y-66610398D01*
X208118453Y-66308143D01*
X208302774Y-65963302D01*
X208416278Y-65589128D01*
X208445000Y-65297510D01*
X208445000Y-63402491D01*
X208416278Y-63110873D01*
X208302774Y-62736698D01*
X208118453Y-62391857D01*
X207870398Y-62089602D01*
X207568143Y-61841547D01*
X207398820Y-61751042D01*
X207436290Y-61720292D01*
X207462445Y-61688422D01*
X208841428Y-60309440D01*
X208873291Y-60283291D01*
X208895951Y-60255680D01*
X208895951Y-70465950D01*
X152442354Y-70465950D01*
X152420501Y-70463107D01*
X152378114Y-70465950D01*
X152367875Y-70465950D01*
X152346015Y-70468103D01*
X152291954Y-70471729D01*
X152282027Y-70474405D01*
X152271784Y-70475414D01*
X152219872Y-70491161D01*
X152167559Y-70505264D01*
X152158346Y-70509825D01*
X152148495Y-70512813D01*
X152100678Y-70538372D01*
X152052095Y-70562422D01*
X152043940Y-70568700D01*
X152034871Y-70573547D01*
X151992982Y-70607925D01*
X151950002Y-70641009D01*
X151943228Y-70648757D01*
X151935280Y-70655280D01*
X151900898Y-70697175D01*
X151886449Y-70713701D01*
X151880503Y-70722025D01*
X151853547Y-70754871D01*
X151843155Y-70774312D01*
X145713415Y-79355950D01*
X137845000Y-79355950D01*
X137845000Y-30552017D01*
X139568090Y-30552017D01*
X139609078Y-30824133D01*
X139702364Y-31083023D01*
X139764344Y-31198980D01*
X140004435Y-31265960D01*
X140790395Y-30480000D01*
X140004435Y-29694040D01*
X139764344Y-29761020D01*
X139647244Y-30010048D01*
X139580977Y-30277135D01*
X139568090Y-30552017D01*
X137845000Y-30552017D01*
X137845000Y-24784050D01*
X147049085Y-24784050D01*
X153184803Y-30919769D01*
G37*
%TD.AperFunction*%
D23*
X203559683Y-59030552D02*
X203545518Y-59064750D01*
X203475000Y-59419268D01*
X203475000Y-59780732D01*
X203545518Y-60135250D01*
X203610446Y-60292001D01*
X193182870Y-60292001D01*
X193060317Y-60169448D01*
X193074482Y-60135250D01*
X193145000Y-59780732D01*
X193145000Y-59419268D01*
X193074482Y-59064750D01*
X192936156Y-58730801D01*
X192735338Y-58430256D01*
X192479744Y-58174662D01*
X192179199Y-57973844D01*
X191845250Y-57835518D01*
X191490732Y-57765000D01*
X191129268Y-57765000D01*
X190774750Y-57835518D01*
X190440801Y-57973844D01*
X190140256Y-58174662D01*
X189884662Y-58430256D01*
X189683844Y-58730801D01*
X189669678Y-58765000D01*
X170751018Y-58765000D01*
X170709999Y-58760960D01*
X170668981Y-58765000D01*
X170546311Y-58777082D01*
X170388913Y-58824828D01*
X170243854Y-58902364D01*
X170116709Y-59006709D01*
X170090559Y-59038573D01*
X168307205Y-60821928D01*
X166350000Y-60821928D01*
X166225518Y-60834188D01*
X166105820Y-60870498D01*
X165995506Y-60929463D01*
X165898815Y-61008815D01*
X165819463Y-61105506D01*
X165760498Y-61215820D01*
X165724188Y-61335518D01*
X165711928Y-61460000D01*
X165711928Y-63417204D01*
X163924133Y-65205000D01*
X157124702Y-65205000D01*
X157053405Y-65071614D01*
X156942962Y-64937038D01*
X156808386Y-64826595D01*
X156654850Y-64744528D01*
X156488254Y-64693992D01*
X156315000Y-64676928D01*
X155640000Y-64676928D01*
X155466746Y-64693992D01*
X155300150Y-64744528D01*
X155146614Y-64826595D01*
X155012038Y-64937038D01*
X154940000Y-65024817D01*
X154867962Y-64937038D01*
X154733386Y-64826595D01*
X154579850Y-64744528D01*
X154413254Y-64693992D01*
X154240000Y-64676928D01*
X153565000Y-64676928D01*
X153391746Y-64693992D01*
X153225150Y-64744528D01*
X153071614Y-64826595D01*
X152937038Y-64937038D01*
X152826595Y-65071614D01*
X152755298Y-65205000D01*
X152745869Y-65205000D01*
X149102500Y-61561633D01*
X149102500Y-53557658D01*
X149187448Y-53531890D01*
X149315051Y-53463684D01*
X149426896Y-53371896D01*
X149518684Y-53260051D01*
X149586890Y-53132448D01*
X149622893Y-53013761D01*
X150295001Y-53685870D01*
X150295000Y-59648981D01*
X150290960Y-59690000D01*
X150295000Y-59731018D01*
X150307082Y-59853688D01*
X150354828Y-60011086D01*
X150432364Y-60156145D01*
X150536709Y-60283291D01*
X150568579Y-60309446D01*
X152676928Y-62417796D01*
X152676928Y-62705000D01*
X152693992Y-62878254D01*
X152744528Y-63044850D01*
X152826595Y-63198386D01*
X152937038Y-63332962D01*
X153071614Y-63443405D01*
X153225150Y-63525472D01*
X153391746Y-63576008D01*
X153565000Y-63593072D01*
X154240000Y-63593072D01*
X154413254Y-63576008D01*
X154579850Y-63525472D01*
X154733386Y-63443405D01*
X154867962Y-63332962D01*
X154940000Y-63245183D01*
X155012038Y-63332962D01*
X155146614Y-63443405D01*
X155300150Y-63525472D01*
X155466746Y-63576008D01*
X155640000Y-63593072D01*
X156315000Y-63593072D01*
X156488254Y-63576008D01*
X156654850Y-63525472D01*
X156808386Y-63443405D01*
X156942962Y-63332962D01*
X157053405Y-63198386D01*
X157135472Y-63044850D01*
X157186008Y-62878254D01*
X157203072Y-62705000D01*
X157203072Y-62185295D01*
X163074627Y-56313740D01*
X169965000Y-56313740D01*
X169965000Y-56606260D01*
X170022068Y-56893158D01*
X170134010Y-57163411D01*
X170296525Y-57406632D01*
X170503368Y-57613475D01*
X170746589Y-57775990D01*
X171016842Y-57887932D01*
X171303740Y-57945000D01*
X171596260Y-57945000D01*
X171883158Y-57887932D01*
X172153411Y-57775990D01*
X172396632Y-57613475D01*
X172603475Y-57406632D01*
X172765990Y-57163411D01*
X172877932Y-56893158D01*
X172935000Y-56606260D01*
X172935000Y-56313740D01*
X172877932Y-56026842D01*
X172765990Y-55756589D01*
X172603475Y-55513368D01*
X172396632Y-55306525D01*
X172153411Y-55144010D01*
X171883158Y-55032068D01*
X171596260Y-54975000D01*
X171303740Y-54975000D01*
X171016842Y-55032068D01*
X170746589Y-55144010D01*
X170503368Y-55306525D01*
X170296525Y-55513368D01*
X170134010Y-55756589D01*
X170022068Y-56026842D01*
X169965000Y-56313740D01*
X163074627Y-56313740D01*
X168095868Y-51292500D01*
X173301633Y-51292500D01*
X174315001Y-52305870D01*
X174315001Y-53121928D01*
X173750000Y-53121928D01*
X173625518Y-53134188D01*
X173505820Y-53170498D01*
X173395506Y-53229463D01*
X173298815Y-53308815D01*
X173219463Y-53405506D01*
X173160498Y-53515820D01*
X173124188Y-53635518D01*
X173111928Y-53760000D01*
X173111928Y-56560000D01*
X173124188Y-56684482D01*
X173160498Y-56804180D01*
X173219463Y-56914494D01*
X173298815Y-57011185D01*
X173395506Y-57090537D01*
X173505820Y-57149502D01*
X173625518Y-57185812D01*
X173750000Y-57198072D01*
X176550000Y-57198072D01*
X176674482Y-57185812D01*
X176794180Y-57149502D01*
X176904494Y-57090537D01*
X177001185Y-57011185D01*
X177080537Y-56914494D01*
X177139502Y-56804180D01*
X177175812Y-56684482D01*
X177188072Y-56560000D01*
X177188072Y-53760000D01*
X177175812Y-53635518D01*
X177139502Y-53515820D01*
X177080537Y-53405506D01*
X177001185Y-53308815D01*
X176904494Y-53229463D01*
X176794180Y-53170498D01*
X176674482Y-53134188D01*
X176550000Y-53121928D01*
X175985000Y-53121928D01*
X175985000Y-52001018D01*
X175989040Y-51960000D01*
X175972918Y-51796311D01*
X175925172Y-51638913D01*
X175847636Y-51493854D01*
X175769439Y-51398570D01*
X175769437Y-51398568D01*
X175743291Y-51366709D01*
X175711432Y-51340563D01*
X175432537Y-51061668D01*
X175445791Y-51050791D01*
X175471946Y-51018921D01*
X182740551Y-43750316D01*
X182774750Y-43764482D01*
X183129268Y-43835000D01*
X183490732Y-43835000D01*
X183845250Y-43764482D01*
X184179199Y-43626156D01*
X184479744Y-43425338D01*
X184735338Y-43169744D01*
X184936156Y-42869199D01*
X184950322Y-42835000D01*
X187364133Y-42835000D01*
X203559683Y-59030552D01*
%TA.AperFunction,Conductor*%
D24*
G36*
X203559683Y-59030552D02*
G01*
X203545518Y-59064750D01*
X203475000Y-59419268D01*
X203475000Y-59780732D01*
X203545518Y-60135250D01*
X203610446Y-60292001D01*
X193182870Y-60292001D01*
X193060317Y-60169448D01*
X193074482Y-60135250D01*
X193145000Y-59780732D01*
X193145000Y-59419268D01*
X193074482Y-59064750D01*
X192936156Y-58730801D01*
X192735338Y-58430256D01*
X192479744Y-58174662D01*
X192179199Y-57973844D01*
X191845250Y-57835518D01*
X191490732Y-57765000D01*
X191129268Y-57765000D01*
X190774750Y-57835518D01*
X190440801Y-57973844D01*
X190140256Y-58174662D01*
X189884662Y-58430256D01*
X189683844Y-58730801D01*
X189669678Y-58765000D01*
X170751018Y-58765000D01*
X170709999Y-58760960D01*
X170668981Y-58765000D01*
X170546311Y-58777082D01*
X170388913Y-58824828D01*
X170243854Y-58902364D01*
X170116709Y-59006709D01*
X170090559Y-59038573D01*
X168307205Y-60821928D01*
X166350000Y-60821928D01*
X166225518Y-60834188D01*
X166105820Y-60870498D01*
X165995506Y-60929463D01*
X165898815Y-61008815D01*
X165819463Y-61105506D01*
X165760498Y-61215820D01*
X165724188Y-61335518D01*
X165711928Y-61460000D01*
X165711928Y-63417204D01*
X163924133Y-65205000D01*
X157124702Y-65205000D01*
X157053405Y-65071614D01*
X156942962Y-64937038D01*
X156808386Y-64826595D01*
X156654850Y-64744528D01*
X156488254Y-64693992D01*
X156315000Y-64676928D01*
X155640000Y-64676928D01*
X155466746Y-64693992D01*
X155300150Y-64744528D01*
X155146614Y-64826595D01*
X155012038Y-64937038D01*
X154940000Y-65024817D01*
X154867962Y-64937038D01*
X154733386Y-64826595D01*
X154579850Y-64744528D01*
X154413254Y-64693992D01*
X154240000Y-64676928D01*
X153565000Y-64676928D01*
X153391746Y-64693992D01*
X153225150Y-64744528D01*
X153071614Y-64826595D01*
X152937038Y-64937038D01*
X152826595Y-65071614D01*
X152755298Y-65205000D01*
X152745869Y-65205000D01*
X149102500Y-61561633D01*
X149102500Y-53557658D01*
X149187448Y-53531890D01*
X149315051Y-53463684D01*
X149426896Y-53371896D01*
X149518684Y-53260051D01*
X149586890Y-53132448D01*
X149622893Y-53013761D01*
X150295001Y-53685870D01*
X150295000Y-59648981D01*
X150290960Y-59690000D01*
X150295000Y-59731018D01*
X150307082Y-59853688D01*
X150354828Y-60011086D01*
X150432364Y-60156145D01*
X150536709Y-60283291D01*
X150568579Y-60309446D01*
X152676928Y-62417796D01*
X152676928Y-62705000D01*
X152693992Y-62878254D01*
X152744528Y-63044850D01*
X152826595Y-63198386D01*
X152937038Y-63332962D01*
X153071614Y-63443405D01*
X153225150Y-63525472D01*
X153391746Y-63576008D01*
X153565000Y-63593072D01*
X154240000Y-63593072D01*
X154413254Y-63576008D01*
X154579850Y-63525472D01*
X154733386Y-63443405D01*
X154867962Y-63332962D01*
X154940000Y-63245183D01*
X155012038Y-63332962D01*
X155146614Y-63443405D01*
X155300150Y-63525472D01*
X155466746Y-63576008D01*
X155640000Y-63593072D01*
X156315000Y-63593072D01*
X156488254Y-63576008D01*
X156654850Y-63525472D01*
X156808386Y-63443405D01*
X156942962Y-63332962D01*
X157053405Y-63198386D01*
X157135472Y-63044850D01*
X157186008Y-62878254D01*
X157203072Y-62705000D01*
X157203072Y-62185295D01*
X163074627Y-56313740D01*
X169965000Y-56313740D01*
X169965000Y-56606260D01*
X170022068Y-56893158D01*
X170134010Y-57163411D01*
X170296525Y-57406632D01*
X170503368Y-57613475D01*
X170746589Y-57775990D01*
X171016842Y-57887932D01*
X171303740Y-57945000D01*
X171596260Y-57945000D01*
X171883158Y-57887932D01*
X172153411Y-57775990D01*
X172396632Y-57613475D01*
X172603475Y-57406632D01*
X172765990Y-57163411D01*
X172877932Y-56893158D01*
X172935000Y-56606260D01*
X172935000Y-56313740D01*
X172877932Y-56026842D01*
X172765990Y-55756589D01*
X172603475Y-55513368D01*
X172396632Y-55306525D01*
X172153411Y-55144010D01*
X171883158Y-55032068D01*
X171596260Y-54975000D01*
X171303740Y-54975000D01*
X171016842Y-55032068D01*
X170746589Y-55144010D01*
X170503368Y-55306525D01*
X170296525Y-55513368D01*
X170134010Y-55756589D01*
X170022068Y-56026842D01*
X169965000Y-56313740D01*
X163074627Y-56313740D01*
X168095868Y-51292500D01*
X173301633Y-51292500D01*
X174315001Y-52305870D01*
X174315001Y-53121928D01*
X173750000Y-53121928D01*
X173625518Y-53134188D01*
X173505820Y-53170498D01*
X173395506Y-53229463D01*
X173298815Y-53308815D01*
X173219463Y-53405506D01*
X173160498Y-53515820D01*
X173124188Y-53635518D01*
X173111928Y-53760000D01*
X173111928Y-56560000D01*
X173124188Y-56684482D01*
X173160498Y-56804180D01*
X173219463Y-56914494D01*
X173298815Y-57011185D01*
X173395506Y-57090537D01*
X173505820Y-57149502D01*
X173625518Y-57185812D01*
X173750000Y-57198072D01*
X176550000Y-57198072D01*
X176674482Y-57185812D01*
X176794180Y-57149502D01*
X176904494Y-57090537D01*
X177001185Y-57011185D01*
X177080537Y-56914494D01*
X177139502Y-56804180D01*
X177175812Y-56684482D01*
X177188072Y-56560000D01*
X177188072Y-53760000D01*
X177175812Y-53635518D01*
X177139502Y-53515820D01*
X177080537Y-53405506D01*
X177001185Y-53308815D01*
X176904494Y-53229463D01*
X176794180Y-53170498D01*
X176674482Y-53134188D01*
X176550000Y-53121928D01*
X175985000Y-53121928D01*
X175985000Y-52001018D01*
X175989040Y-51960000D01*
X175972918Y-51796311D01*
X175925172Y-51638913D01*
X175847636Y-51493854D01*
X175769439Y-51398570D01*
X175769437Y-51398568D01*
X175743291Y-51366709D01*
X175711432Y-51340563D01*
X175432537Y-51061668D01*
X175445791Y-51050791D01*
X175471946Y-51018921D01*
X182740551Y-43750316D01*
X182774750Y-43764482D01*
X183129268Y-43835000D01*
X183490732Y-43835000D01*
X183845250Y-43764482D01*
X184179199Y-43626156D01*
X184479744Y-43425338D01*
X184735338Y-43169744D01*
X184936156Y-42869199D01*
X184950322Y-42835000D01*
X187364133Y-42835000D01*
X203559683Y-59030552D01*
G37*
%TD.AperFunction*%
D23*
X152649253Y-48546200D02*
X152631110Y-48606009D01*
X152616928Y-48750000D01*
X152616928Y-48950000D01*
X152631110Y-49093991D01*
X152655684Y-49175000D01*
X152631110Y-49256009D01*
X152616928Y-49400000D01*
X152616928Y-49600000D01*
X152631110Y-49743991D01*
X152642350Y-49781045D01*
X152631132Y-49816117D01*
X152620000Y-49918250D01*
X152778750Y-50077000D01*
X152796259Y-50077000D01*
X152833104Y-50121896D01*
X152867349Y-50150000D01*
X152833104Y-50178104D01*
X152796259Y-50223000D01*
X152778750Y-50223000D01*
X152620000Y-50381750D01*
X152631132Y-50483883D01*
X152642350Y-50518955D01*
X152631110Y-50556009D01*
X152616928Y-50700000D01*
X152616928Y-50900000D01*
X152631110Y-51043991D01*
X152655684Y-51125000D01*
X152631110Y-51206009D01*
X152616928Y-51350000D01*
X152616928Y-51550000D01*
X152631110Y-51693991D01*
X152642350Y-51731045D01*
X152631132Y-51766117D01*
X152620000Y-51868250D01*
X152778750Y-52027000D01*
X152796259Y-52027000D01*
X152833104Y-52071896D01*
X152867349Y-52100000D01*
X152833104Y-52128104D01*
X152796259Y-52173000D01*
X152778750Y-52173000D01*
X152620000Y-52331750D01*
X152631132Y-52433883D01*
X152642350Y-52468955D01*
X152631110Y-52506009D01*
X152616928Y-52650000D01*
X152616928Y-52850000D01*
X152631110Y-52993991D01*
X152673110Y-53132448D01*
X152741316Y-53260051D01*
X152833104Y-53371896D01*
X152944949Y-53463684D01*
X153072552Y-53531890D01*
X153211009Y-53573890D01*
X153355000Y-53588072D01*
X153649705Y-53588072D01*
X154846928Y-54785296D01*
X154846928Y-55180000D01*
X154863992Y-55353254D01*
X154914528Y-55519850D01*
X154996595Y-55673386D01*
X155107038Y-55807962D01*
X155113594Y-55813342D01*
X155033815Y-55878815D01*
X154954463Y-55975506D01*
X154895498Y-56085820D01*
X154859188Y-56205518D01*
X154846928Y-56330000D01*
X154850000Y-56631750D01*
X155008750Y-56790500D01*
X156083000Y-56790500D01*
X156083000Y-56770500D01*
X156337000Y-56770500D01*
X156337000Y-56790500D01*
X157411250Y-56790500D01*
X157480000Y-56721750D01*
X157548750Y-56790500D01*
X158623000Y-56790500D01*
X158623000Y-56770500D01*
X158877000Y-56770500D01*
X158877000Y-56790500D01*
X158897000Y-56790500D01*
X158897000Y-57044500D01*
X158877000Y-57044500D01*
X158877000Y-57981250D01*
X158961191Y-58065441D01*
X156159705Y-60866928D01*
X155640000Y-60866928D01*
X155466746Y-60883992D01*
X155300150Y-60934528D01*
X155146614Y-61016595D01*
X155012038Y-61127038D01*
X154940000Y-61214817D01*
X154867962Y-61127038D01*
X154733386Y-61016595D01*
X154579850Y-60934528D01*
X154413254Y-60883992D01*
X154240000Y-60866928D01*
X153565000Y-60866928D01*
X153494718Y-60873850D01*
X151965000Y-59344133D01*
X151965000Y-57505000D01*
X154846928Y-57505000D01*
X154859188Y-57629482D01*
X154895498Y-57749180D01*
X154954463Y-57859494D01*
X155033815Y-57956185D01*
X155130506Y-58035537D01*
X155240820Y-58094502D01*
X155360518Y-58130812D01*
X155485000Y-58143072D01*
X155924250Y-58140000D01*
X156083000Y-57981250D01*
X156083000Y-57044500D01*
X156337000Y-57044500D01*
X156337000Y-57981250D01*
X156495750Y-58140000D01*
X156935000Y-58143072D01*
X157059482Y-58130812D01*
X157179180Y-58094502D01*
X157289494Y-58035537D01*
X157386185Y-57956185D01*
X157465537Y-57859494D01*
X157480000Y-57832436D01*
X157494463Y-57859494D01*
X157573815Y-57956185D01*
X157670506Y-58035537D01*
X157780820Y-58094502D01*
X157900518Y-58130812D01*
X158025000Y-58143072D01*
X158464250Y-58140000D01*
X158623000Y-57981250D01*
X158623000Y-57044500D01*
X157548750Y-57044500D01*
X157480000Y-57113250D01*
X157411250Y-57044500D01*
X156337000Y-57044500D01*
X156083000Y-57044500D01*
X155008750Y-57044500D01*
X154850000Y-57203250D01*
X154846928Y-57505000D01*
X151965000Y-57505000D01*
X151965000Y-53381018D01*
X151969040Y-53340000D01*
X151952918Y-53176311D01*
X151905172Y-53018913D01*
X151827636Y-52873854D01*
X151749439Y-52778570D01*
X151749437Y-52778568D01*
X151723291Y-52746709D01*
X151691432Y-52720563D01*
X150509445Y-51538578D01*
X150483291Y-51506709D01*
X150356146Y-51402364D01*
X150211087Y-51324828D01*
X150053689Y-51277082D01*
X149931019Y-51265000D01*
X149931018Y-51265000D01*
X149890000Y-51260960D01*
X149848982Y-51265000D01*
X149634700Y-51265000D01*
X149628890Y-51206009D01*
X149604316Y-51125000D01*
X149628890Y-51043991D01*
X149643072Y-50900000D01*
X149643072Y-50700000D01*
X149628890Y-50556009D01*
X149604316Y-50475000D01*
X149628890Y-50393991D01*
X149643072Y-50250000D01*
X149643072Y-50050000D01*
X149628890Y-49906009D01*
X149604316Y-49825000D01*
X149628890Y-49743991D01*
X149643072Y-49600000D01*
X149643072Y-49400000D01*
X149628890Y-49256009D01*
X149604316Y-49175000D01*
X149628890Y-49093991D01*
X149643072Y-48950000D01*
X149643072Y-48750000D01*
X149628890Y-48606009D01*
X149586890Y-48467552D01*
X149518684Y-48339949D01*
X149426896Y-48228104D01*
X149315051Y-48136316D01*
X149187448Y-48068110D01*
X149048991Y-48026110D01*
X148905000Y-48011928D01*
X148468874Y-48011928D01*
X148222758Y-47765812D01*
X148199738Y-47737762D01*
X148087820Y-47645913D01*
X147960133Y-47577663D01*
X147821585Y-47535635D01*
X147713605Y-47525000D01*
X147677500Y-47521444D01*
X147641395Y-47525000D01*
X144699045Y-47525000D01*
X144595120Y-47369465D01*
X144400535Y-47174880D01*
X144171727Y-47021995D01*
X144094485Y-46990000D01*
X144171727Y-46958005D01*
X144400535Y-46805120D01*
X144595120Y-46610535D01*
X144699045Y-46455000D01*
X150558054Y-46455000D01*
X152649253Y-48546200D01*
%TA.AperFunction,Conductor*%
D24*
G36*
X152649253Y-48546200D02*
G01*
X152631110Y-48606009D01*
X152616928Y-48750000D01*
X152616928Y-48950000D01*
X152631110Y-49093991D01*
X152655684Y-49175000D01*
X152631110Y-49256009D01*
X152616928Y-49400000D01*
X152616928Y-49600000D01*
X152631110Y-49743991D01*
X152642350Y-49781045D01*
X152631132Y-49816117D01*
X152620000Y-49918250D01*
X152778750Y-50077000D01*
X152796259Y-50077000D01*
X152833104Y-50121896D01*
X152867349Y-50150000D01*
X152833104Y-50178104D01*
X152796259Y-50223000D01*
X152778750Y-50223000D01*
X152620000Y-50381750D01*
X152631132Y-50483883D01*
X152642350Y-50518955D01*
X152631110Y-50556009D01*
X152616928Y-50700000D01*
X152616928Y-50900000D01*
X152631110Y-51043991D01*
X152655684Y-51125000D01*
X152631110Y-51206009D01*
X152616928Y-51350000D01*
X152616928Y-51550000D01*
X152631110Y-51693991D01*
X152642350Y-51731045D01*
X152631132Y-51766117D01*
X152620000Y-51868250D01*
X152778750Y-52027000D01*
X152796259Y-52027000D01*
X152833104Y-52071896D01*
X152867349Y-52100000D01*
X152833104Y-52128104D01*
X152796259Y-52173000D01*
X152778750Y-52173000D01*
X152620000Y-52331750D01*
X152631132Y-52433883D01*
X152642350Y-52468955D01*
X152631110Y-52506009D01*
X152616928Y-52650000D01*
X152616928Y-52850000D01*
X152631110Y-52993991D01*
X152673110Y-53132448D01*
X152741316Y-53260051D01*
X152833104Y-53371896D01*
X152944949Y-53463684D01*
X153072552Y-53531890D01*
X153211009Y-53573890D01*
X153355000Y-53588072D01*
X153649705Y-53588072D01*
X154846928Y-54785296D01*
X154846928Y-55180000D01*
X154863992Y-55353254D01*
X154914528Y-55519850D01*
X154996595Y-55673386D01*
X155107038Y-55807962D01*
X155113594Y-55813342D01*
X155033815Y-55878815D01*
X154954463Y-55975506D01*
X154895498Y-56085820D01*
X154859188Y-56205518D01*
X154846928Y-56330000D01*
X154850000Y-56631750D01*
X155008750Y-56790500D01*
X156083000Y-56790500D01*
X156083000Y-56770500D01*
X156337000Y-56770500D01*
X156337000Y-56790500D01*
X157411250Y-56790500D01*
X157480000Y-56721750D01*
X157548750Y-56790500D01*
X158623000Y-56790500D01*
X158623000Y-56770500D01*
X158877000Y-56770500D01*
X158877000Y-56790500D01*
X158897000Y-56790500D01*
X158897000Y-57044500D01*
X158877000Y-57044500D01*
X158877000Y-57981250D01*
X158961191Y-58065441D01*
X156159705Y-60866928D01*
X155640000Y-60866928D01*
X155466746Y-60883992D01*
X155300150Y-60934528D01*
X155146614Y-61016595D01*
X155012038Y-61127038D01*
X154940000Y-61214817D01*
X154867962Y-61127038D01*
X154733386Y-61016595D01*
X154579850Y-60934528D01*
X154413254Y-60883992D01*
X154240000Y-60866928D01*
X153565000Y-60866928D01*
X153494718Y-60873850D01*
X151965000Y-59344133D01*
X151965000Y-57505000D01*
X154846928Y-57505000D01*
X154859188Y-57629482D01*
X154895498Y-57749180D01*
X154954463Y-57859494D01*
X155033815Y-57956185D01*
X155130506Y-58035537D01*
X155240820Y-58094502D01*
X155360518Y-58130812D01*
X155485000Y-58143072D01*
X155924250Y-58140000D01*
X156083000Y-57981250D01*
X156083000Y-57044500D01*
X156337000Y-57044500D01*
X156337000Y-57981250D01*
X156495750Y-58140000D01*
X156935000Y-58143072D01*
X157059482Y-58130812D01*
X157179180Y-58094502D01*
X157289494Y-58035537D01*
X157386185Y-57956185D01*
X157465537Y-57859494D01*
X157480000Y-57832436D01*
X157494463Y-57859494D01*
X157573815Y-57956185D01*
X157670506Y-58035537D01*
X157780820Y-58094502D01*
X157900518Y-58130812D01*
X158025000Y-58143072D01*
X158464250Y-58140000D01*
X158623000Y-57981250D01*
X158623000Y-57044500D01*
X157548750Y-57044500D01*
X157480000Y-57113250D01*
X157411250Y-57044500D01*
X156337000Y-57044500D01*
X156083000Y-57044500D01*
X155008750Y-57044500D01*
X154850000Y-57203250D01*
X154846928Y-57505000D01*
X151965000Y-57505000D01*
X151965000Y-53381018D01*
X151969040Y-53340000D01*
X151952918Y-53176311D01*
X151905172Y-53018913D01*
X151827636Y-52873854D01*
X151749439Y-52778570D01*
X151749437Y-52778568D01*
X151723291Y-52746709D01*
X151691432Y-52720563D01*
X150509445Y-51538578D01*
X150483291Y-51506709D01*
X150356146Y-51402364D01*
X150211087Y-51324828D01*
X150053689Y-51277082D01*
X149931019Y-51265000D01*
X149931018Y-51265000D01*
X149890000Y-51260960D01*
X149848982Y-51265000D01*
X149634700Y-51265000D01*
X149628890Y-51206009D01*
X149604316Y-51125000D01*
X149628890Y-51043991D01*
X149643072Y-50900000D01*
X149643072Y-50700000D01*
X149628890Y-50556009D01*
X149604316Y-50475000D01*
X149628890Y-50393991D01*
X149643072Y-50250000D01*
X149643072Y-50050000D01*
X149628890Y-49906009D01*
X149604316Y-49825000D01*
X149628890Y-49743991D01*
X149643072Y-49600000D01*
X149643072Y-49400000D01*
X149628890Y-49256009D01*
X149604316Y-49175000D01*
X149628890Y-49093991D01*
X149643072Y-48950000D01*
X149643072Y-48750000D01*
X149628890Y-48606009D01*
X149586890Y-48467552D01*
X149518684Y-48339949D01*
X149426896Y-48228104D01*
X149315051Y-48136316D01*
X149187448Y-48068110D01*
X149048991Y-48026110D01*
X148905000Y-48011928D01*
X148468874Y-48011928D01*
X148222758Y-47765812D01*
X148199738Y-47737762D01*
X148087820Y-47645913D01*
X147960133Y-47577663D01*
X147821585Y-47535635D01*
X147713605Y-47525000D01*
X147677500Y-47521444D01*
X147641395Y-47525000D01*
X144699045Y-47525000D01*
X144595120Y-47369465D01*
X144400535Y-47174880D01*
X144171727Y-47021995D01*
X144094485Y-46990000D01*
X144171727Y-46958005D01*
X144400535Y-46805120D01*
X144595120Y-46610535D01*
X144699045Y-46455000D01*
X150558054Y-46455000D01*
X152649253Y-48546200D01*
G37*
%TD.AperFunction*%
D23*
X142271995Y-48921727D02*
X142424880Y-49150535D01*
X142619465Y-49345120D01*
X142848273Y-49498005D01*
X142925515Y-49530000D01*
X142848273Y-49561995D01*
X142619465Y-49714880D01*
X142424880Y-49909465D01*
X142271995Y-50138273D01*
X142242308Y-50209943D01*
X142237636Y-50196977D01*
X142175656Y-50081020D01*
X141935565Y-50014040D01*
X141149605Y-50800000D01*
X141935565Y-51585960D01*
X142175656Y-51518980D01*
X142239485Y-51383240D01*
X142271995Y-51461727D01*
X142424880Y-51690535D01*
X142619465Y-51885120D01*
X142848273Y-52038005D01*
X142925515Y-52070000D01*
X142848273Y-52101995D01*
X142619465Y-52254880D01*
X142424880Y-52449465D01*
X142271995Y-52678273D01*
X142240000Y-52755515D01*
X142208005Y-52678273D01*
X142055120Y-52449465D01*
X141860535Y-52254880D01*
X141631727Y-52101995D01*
X141560057Y-52072308D01*
X141573023Y-52067636D01*
X141688980Y-52005656D01*
X141755960Y-51765565D01*
X140970000Y-50979605D01*
X140955858Y-50993748D01*
X140776253Y-50814143D01*
X140790395Y-50800000D01*
X140776253Y-50785858D01*
X140955858Y-50606253D01*
X140970000Y-50620395D01*
X141755960Y-49834435D01*
X141688980Y-49594344D01*
X141553240Y-49530515D01*
X141631727Y-49498005D01*
X141860535Y-49345120D01*
X142055120Y-49150535D01*
X142208005Y-48921727D01*
X142240000Y-48844485D01*
X142271995Y-48921727D01*
%TA.AperFunction,Conductor*%
D24*
G36*
X142271995Y-48921727D02*
G01*
X142424880Y-49150535D01*
X142619465Y-49345120D01*
X142848273Y-49498005D01*
X142925515Y-49530000D01*
X142848273Y-49561995D01*
X142619465Y-49714880D01*
X142424880Y-49909465D01*
X142271995Y-50138273D01*
X142242308Y-50209943D01*
X142237636Y-50196977D01*
X142175656Y-50081020D01*
X141935565Y-50014040D01*
X141149605Y-50800000D01*
X141935565Y-51585960D01*
X142175656Y-51518980D01*
X142239485Y-51383240D01*
X142271995Y-51461727D01*
X142424880Y-51690535D01*
X142619465Y-51885120D01*
X142848273Y-52038005D01*
X142925515Y-52070000D01*
X142848273Y-52101995D01*
X142619465Y-52254880D01*
X142424880Y-52449465D01*
X142271995Y-52678273D01*
X142240000Y-52755515D01*
X142208005Y-52678273D01*
X142055120Y-52449465D01*
X141860535Y-52254880D01*
X141631727Y-52101995D01*
X141560057Y-52072308D01*
X141573023Y-52067636D01*
X141688980Y-52005656D01*
X141755960Y-51765565D01*
X140970000Y-50979605D01*
X140955858Y-50993748D01*
X140776253Y-50814143D01*
X140790395Y-50800000D01*
X140776253Y-50785858D01*
X140955858Y-50606253D01*
X140970000Y-50620395D01*
X141755960Y-49834435D01*
X141688980Y-49594344D01*
X141553240Y-49530515D01*
X141631727Y-49498005D01*
X141860535Y-49345120D01*
X142055120Y-49150535D01*
X142208005Y-48921727D01*
X142240000Y-48844485D01*
X142271995Y-48921727D01*
G37*
%TD.AperFunction*%
D23*
X154222010Y-47311457D02*
X154222010Y-48011928D01*
X154193875Y-48011928D01*
X151407759Y-45225813D01*
X151384738Y-45197762D01*
X151272820Y-45105913D01*
X151145133Y-45037663D01*
X151006585Y-44995635D01*
X150898605Y-44985000D01*
X150862500Y-44981444D01*
X150826395Y-44985000D01*
X144699045Y-44985000D01*
X144595120Y-44829465D01*
X144400535Y-44634880D01*
X144171727Y-44481995D01*
X144094485Y-44450000D01*
X144171727Y-44418005D01*
X144400535Y-44265120D01*
X144595120Y-44070535D01*
X144699045Y-43915000D01*
X150825554Y-43915000D01*
X154222010Y-47311457D01*
%TA.AperFunction,Conductor*%
D24*
G36*
X154222010Y-47311457D02*
G01*
X154222010Y-48011928D01*
X154193875Y-48011928D01*
X151407759Y-45225813D01*
X151384738Y-45197762D01*
X151272820Y-45105913D01*
X151145133Y-45037663D01*
X151006585Y-44995635D01*
X150898605Y-44985000D01*
X150862500Y-44981444D01*
X150826395Y-44985000D01*
X144699045Y-44985000D01*
X144595120Y-44829465D01*
X144400535Y-44634880D01*
X144171727Y-44481995D01*
X144094485Y-44450000D01*
X144171727Y-44418005D01*
X144400535Y-44265120D01*
X144595120Y-44070535D01*
X144699045Y-43915000D01*
X150825554Y-43915000D01*
X154222010Y-47311457D01*
G37*
%TD.AperFunction*%
D23*
X142271995Y-43841727D02*
X142424880Y-44070535D01*
X142619465Y-44265120D01*
X142848273Y-44418005D01*
X142925515Y-44450000D01*
X142848273Y-44481995D01*
X142619465Y-44634880D01*
X142424880Y-44829465D01*
X142271995Y-45058273D01*
X142242308Y-45129943D01*
X142237636Y-45116977D01*
X142175656Y-45001020D01*
X141935565Y-44934040D01*
X141149605Y-45720000D01*
X141935565Y-46505960D01*
X142175656Y-46438980D01*
X142239485Y-46303240D01*
X142271995Y-46381727D01*
X142424880Y-46610535D01*
X142619465Y-46805120D01*
X142848273Y-46958005D01*
X142925515Y-46990000D01*
X142848273Y-47021995D01*
X142619465Y-47174880D01*
X142424880Y-47369465D01*
X142271995Y-47598273D01*
X142240000Y-47675515D01*
X142208005Y-47598273D01*
X142055120Y-47369465D01*
X141860535Y-47174880D01*
X141631727Y-47021995D01*
X141560057Y-46992308D01*
X141573023Y-46987636D01*
X141688980Y-46925656D01*
X141755960Y-46685565D01*
X140970000Y-45899605D01*
X140955858Y-45913748D01*
X140776253Y-45734143D01*
X140790395Y-45720000D01*
X140776253Y-45705858D01*
X140955858Y-45526253D01*
X140970000Y-45540395D01*
X141755960Y-44754435D01*
X141688980Y-44514344D01*
X141553240Y-44450515D01*
X141631727Y-44418005D01*
X141860535Y-44265120D01*
X142055120Y-44070535D01*
X142208005Y-43841727D01*
X142240000Y-43764485D01*
X142271995Y-43841727D01*
%TA.AperFunction,Conductor*%
D24*
G36*
X142271995Y-43841727D02*
G01*
X142424880Y-44070535D01*
X142619465Y-44265120D01*
X142848273Y-44418005D01*
X142925515Y-44450000D01*
X142848273Y-44481995D01*
X142619465Y-44634880D01*
X142424880Y-44829465D01*
X142271995Y-45058273D01*
X142242308Y-45129943D01*
X142237636Y-45116977D01*
X142175656Y-45001020D01*
X141935565Y-44934040D01*
X141149605Y-45720000D01*
X141935565Y-46505960D01*
X142175656Y-46438980D01*
X142239485Y-46303240D01*
X142271995Y-46381727D01*
X142424880Y-46610535D01*
X142619465Y-46805120D01*
X142848273Y-46958005D01*
X142925515Y-46990000D01*
X142848273Y-47021995D01*
X142619465Y-47174880D01*
X142424880Y-47369465D01*
X142271995Y-47598273D01*
X142240000Y-47675515D01*
X142208005Y-47598273D01*
X142055120Y-47369465D01*
X141860535Y-47174880D01*
X141631727Y-47021995D01*
X141560057Y-46992308D01*
X141573023Y-46987636D01*
X141688980Y-46925656D01*
X141755960Y-46685565D01*
X140970000Y-45899605D01*
X140955858Y-45913748D01*
X140776253Y-45734143D01*
X140790395Y-45720000D01*
X140776253Y-45705858D01*
X140955858Y-45526253D01*
X140970000Y-45540395D01*
X141755960Y-44754435D01*
X141688980Y-44514344D01*
X141553240Y-44450515D01*
X141631727Y-44418005D01*
X141860535Y-44265120D01*
X142055120Y-44070535D01*
X142208005Y-43841727D01*
X142240000Y-43764485D01*
X142271995Y-43841727D01*
G37*
%TD.AperFunction*%
D23*
X157976822Y-43229173D02*
X157900518Y-43236688D01*
X157780820Y-43272998D01*
X157670506Y-43331963D01*
X157573815Y-43411315D01*
X157494463Y-43508006D01*
X157480000Y-43535064D01*
X157465537Y-43508006D01*
X157386185Y-43411315D01*
X157289494Y-43331963D01*
X157179180Y-43272998D01*
X157059482Y-43236688D01*
X156935000Y-43224428D01*
X156495750Y-43227500D01*
X156337000Y-43386250D01*
X156337000Y-44323000D01*
X157411250Y-44323000D01*
X157480000Y-44254250D01*
X157548750Y-44323000D01*
X158623000Y-44323000D01*
X158623000Y-44303000D01*
X158877000Y-44303000D01*
X158877000Y-44323000D01*
X158897000Y-44323000D01*
X158897000Y-44577000D01*
X158877000Y-44577000D01*
X158877000Y-44597000D01*
X158623000Y-44597000D01*
X158623000Y-44577000D01*
X157548750Y-44577000D01*
X157480000Y-44645750D01*
X157411250Y-44577000D01*
X156337000Y-44577000D01*
X156337000Y-44597000D01*
X156083000Y-44597000D01*
X156083000Y-44577000D01*
X155008750Y-44577000D01*
X154850000Y-44735750D01*
X154846928Y-45037500D01*
X154859188Y-45161982D01*
X154895498Y-45281680D01*
X154954463Y-45391994D01*
X155033815Y-45488685D01*
X155113594Y-45554158D01*
X155107038Y-45559538D01*
X154996595Y-45694114D01*
X154914528Y-45847650D01*
X154896506Y-45907060D01*
X152851946Y-43862500D01*
X154846928Y-43862500D01*
X154850000Y-44164250D01*
X155008750Y-44323000D01*
X156083000Y-44323000D01*
X156083000Y-43386250D01*
X155924250Y-43227500D01*
X155485000Y-43224428D01*
X155360518Y-43236688D01*
X155240820Y-43272998D01*
X155130506Y-43331963D01*
X155033815Y-43411315D01*
X154954463Y-43508006D01*
X154895498Y-43618320D01*
X154859188Y-43738018D01*
X154846928Y-43862500D01*
X152851946Y-43862500D01*
X151675259Y-42685813D01*
X151652238Y-42657762D01*
X151540320Y-42565913D01*
X151412633Y-42497663D01*
X151274085Y-42455635D01*
X151166105Y-42445000D01*
X151130000Y-42441444D01*
X151093895Y-42445000D01*
X144699045Y-42445000D01*
X144595120Y-42289465D01*
X144400535Y-42094880D01*
X144171727Y-41941995D01*
X144094485Y-41910000D01*
X144171727Y-41878005D01*
X144400535Y-41725120D01*
X144595120Y-41530535D01*
X144748005Y-41301727D01*
X144853314Y-41047490D01*
X144907000Y-40777592D01*
X144907000Y-40502408D01*
X144853314Y-40232510D01*
X144748005Y-39978273D01*
X144595120Y-39749465D01*
X144400535Y-39554880D01*
X144171727Y-39401995D01*
X144094485Y-39370000D01*
X144171727Y-39338005D01*
X144400535Y-39185120D01*
X144595120Y-38990535D01*
X144748005Y-38761727D01*
X144853314Y-38507490D01*
X144907000Y-38237592D01*
X144907000Y-37962408D01*
X144883845Y-37845999D01*
X152593648Y-37845999D01*
X157976822Y-43229173D01*
%TA.AperFunction,Conductor*%
D24*
G36*
X157976822Y-43229173D02*
G01*
X157900518Y-43236688D01*
X157780820Y-43272998D01*
X157670506Y-43331963D01*
X157573815Y-43411315D01*
X157494463Y-43508006D01*
X157480000Y-43535064D01*
X157465537Y-43508006D01*
X157386185Y-43411315D01*
X157289494Y-43331963D01*
X157179180Y-43272998D01*
X157059482Y-43236688D01*
X156935000Y-43224428D01*
X156495750Y-43227500D01*
X156337000Y-43386250D01*
X156337000Y-44323000D01*
X157411250Y-44323000D01*
X157480000Y-44254250D01*
X157548750Y-44323000D01*
X158623000Y-44323000D01*
X158623000Y-44303000D01*
X158877000Y-44303000D01*
X158877000Y-44323000D01*
X158897000Y-44323000D01*
X158897000Y-44577000D01*
X158877000Y-44577000D01*
X158877000Y-44597000D01*
X158623000Y-44597000D01*
X158623000Y-44577000D01*
X157548750Y-44577000D01*
X157480000Y-44645750D01*
X157411250Y-44577000D01*
X156337000Y-44577000D01*
X156337000Y-44597000D01*
X156083000Y-44597000D01*
X156083000Y-44577000D01*
X155008750Y-44577000D01*
X154850000Y-44735750D01*
X154846928Y-45037500D01*
X154859188Y-45161982D01*
X154895498Y-45281680D01*
X154954463Y-45391994D01*
X155033815Y-45488685D01*
X155113594Y-45554158D01*
X155107038Y-45559538D01*
X154996595Y-45694114D01*
X154914528Y-45847650D01*
X154896506Y-45907060D01*
X152851946Y-43862500D01*
X154846928Y-43862500D01*
X154850000Y-44164250D01*
X155008750Y-44323000D01*
X156083000Y-44323000D01*
X156083000Y-43386250D01*
X155924250Y-43227500D01*
X155485000Y-43224428D01*
X155360518Y-43236688D01*
X155240820Y-43272998D01*
X155130506Y-43331963D01*
X155033815Y-43411315D01*
X154954463Y-43508006D01*
X154895498Y-43618320D01*
X154859188Y-43738018D01*
X154846928Y-43862500D01*
X152851946Y-43862500D01*
X151675259Y-42685813D01*
X151652238Y-42657762D01*
X151540320Y-42565913D01*
X151412633Y-42497663D01*
X151274085Y-42455635D01*
X151166105Y-42445000D01*
X151130000Y-42441444D01*
X151093895Y-42445000D01*
X144699045Y-42445000D01*
X144595120Y-42289465D01*
X144400535Y-42094880D01*
X144171727Y-41941995D01*
X144094485Y-41910000D01*
X144171727Y-41878005D01*
X144400535Y-41725120D01*
X144595120Y-41530535D01*
X144748005Y-41301727D01*
X144853314Y-41047490D01*
X144907000Y-40777592D01*
X144907000Y-40502408D01*
X144853314Y-40232510D01*
X144748005Y-39978273D01*
X144595120Y-39749465D01*
X144400535Y-39554880D01*
X144171727Y-39401995D01*
X144094485Y-39370000D01*
X144171727Y-39338005D01*
X144400535Y-39185120D01*
X144595120Y-38990535D01*
X144748005Y-38761727D01*
X144853314Y-38507490D01*
X144907000Y-38237592D01*
X144907000Y-37962408D01*
X144883845Y-37845999D01*
X152593648Y-37845999D01*
X157976822Y-43229173D01*
G37*
%TD.AperFunction*%
D23*
X161082010Y-41754299D02*
X161082010Y-43689783D01*
X153674567Y-36282340D01*
X153645281Y-36246655D01*
X153502909Y-36129813D01*
X153340477Y-36042992D01*
X153164229Y-35989528D01*
X153026869Y-35975999D01*
X152980937Y-35971475D01*
X152935005Y-35975999D01*
X150013547Y-35975999D01*
X150031476Y-35916890D01*
X149910155Y-35687000D01*
X148717000Y-35687000D01*
X148717000Y-35707000D01*
X148463000Y-35707000D01*
X148463000Y-35687000D01*
X147269845Y-35687000D01*
X147148524Y-35916890D01*
X147166453Y-35975999D01*
X144849789Y-35975999D01*
X144853314Y-35967490D01*
X144907000Y-35697592D01*
X144907000Y-35422408D01*
X144853314Y-35152510D01*
X144766946Y-34944001D01*
X147246474Y-34944001D01*
X147193175Y-35055901D01*
X147148524Y-35203110D01*
X147269845Y-35433000D01*
X148463000Y-35433000D01*
X148463000Y-35413000D01*
X148717000Y-35413000D01*
X148717000Y-35433000D01*
X149910155Y-35433000D01*
X150031476Y-35203110D01*
X149986825Y-35055901D01*
X149861641Y-34793080D01*
X149687588Y-34559731D01*
X149471355Y-34364822D01*
X149354466Y-34295195D01*
X149536632Y-34173475D01*
X149743475Y-33966632D01*
X149751247Y-33955000D01*
X153282711Y-33955000D01*
X161082010Y-41754299D01*
%TA.AperFunction,Conductor*%
D24*
G36*
X161082010Y-41754299D02*
G01*
X161082010Y-43689783D01*
X153674567Y-36282340D01*
X153645281Y-36246655D01*
X153502909Y-36129813D01*
X153340477Y-36042992D01*
X153164229Y-35989528D01*
X153026869Y-35975999D01*
X152980937Y-35971475D01*
X152935005Y-35975999D01*
X150013547Y-35975999D01*
X150031476Y-35916890D01*
X149910155Y-35687000D01*
X148717000Y-35687000D01*
X148717000Y-35707000D01*
X148463000Y-35707000D01*
X148463000Y-35687000D01*
X147269845Y-35687000D01*
X147148524Y-35916890D01*
X147166453Y-35975999D01*
X144849789Y-35975999D01*
X144853314Y-35967490D01*
X144907000Y-35697592D01*
X144907000Y-35422408D01*
X144853314Y-35152510D01*
X144766946Y-34944001D01*
X147246474Y-34944001D01*
X147193175Y-35055901D01*
X147148524Y-35203110D01*
X147269845Y-35433000D01*
X148463000Y-35433000D01*
X148463000Y-35413000D01*
X148717000Y-35413000D01*
X148717000Y-35433000D01*
X149910155Y-35433000D01*
X150031476Y-35203110D01*
X149986825Y-35055901D01*
X149861641Y-34793080D01*
X149687588Y-34559731D01*
X149471355Y-34364822D01*
X149354466Y-34295195D01*
X149536632Y-34173475D01*
X149743475Y-33966632D01*
X149751247Y-33955000D01*
X153282711Y-33955000D01*
X161082010Y-41754299D01*
G37*
%TD.AperFunction*%
D23*
X142271995Y-38761727D02*
X142424880Y-38990535D01*
X142619465Y-39185120D01*
X142848273Y-39338005D01*
X142925515Y-39370000D01*
X142848273Y-39401995D01*
X142619465Y-39554880D01*
X142424880Y-39749465D01*
X142271995Y-39978273D01*
X142242308Y-40049943D01*
X142237636Y-40036977D01*
X142175656Y-39921020D01*
X141935565Y-39854040D01*
X141149605Y-40640000D01*
X141935565Y-41425960D01*
X142175656Y-41358980D01*
X142239485Y-41223240D01*
X142271995Y-41301727D01*
X142424880Y-41530535D01*
X142619465Y-41725120D01*
X142848273Y-41878005D01*
X142925515Y-41910000D01*
X142848273Y-41941995D01*
X142619465Y-42094880D01*
X142424880Y-42289465D01*
X142271995Y-42518273D01*
X142240000Y-42595515D01*
X142208005Y-42518273D01*
X142055120Y-42289465D01*
X141860535Y-42094880D01*
X141631727Y-41941995D01*
X141560057Y-41912308D01*
X141573023Y-41907636D01*
X141688980Y-41845656D01*
X141755960Y-41605565D01*
X140970000Y-40819605D01*
X140955858Y-40833748D01*
X140776253Y-40654143D01*
X140790395Y-40640000D01*
X140776253Y-40625858D01*
X140955858Y-40446253D01*
X140970000Y-40460395D01*
X141755960Y-39674435D01*
X141688980Y-39434344D01*
X141553240Y-39370515D01*
X141631727Y-39338005D01*
X141860535Y-39185120D01*
X142055120Y-38990535D01*
X142208005Y-38761727D01*
X142240000Y-38684485D01*
X142271995Y-38761727D01*
%TA.AperFunction,Conductor*%
D24*
G36*
X142271995Y-38761727D02*
G01*
X142424880Y-38990535D01*
X142619465Y-39185120D01*
X142848273Y-39338005D01*
X142925515Y-39370000D01*
X142848273Y-39401995D01*
X142619465Y-39554880D01*
X142424880Y-39749465D01*
X142271995Y-39978273D01*
X142242308Y-40049943D01*
X142237636Y-40036977D01*
X142175656Y-39921020D01*
X141935565Y-39854040D01*
X141149605Y-40640000D01*
X141935565Y-41425960D01*
X142175656Y-41358980D01*
X142239485Y-41223240D01*
X142271995Y-41301727D01*
X142424880Y-41530535D01*
X142619465Y-41725120D01*
X142848273Y-41878005D01*
X142925515Y-41910000D01*
X142848273Y-41941995D01*
X142619465Y-42094880D01*
X142424880Y-42289465D01*
X142271995Y-42518273D01*
X142240000Y-42595515D01*
X142208005Y-42518273D01*
X142055120Y-42289465D01*
X141860535Y-42094880D01*
X141631727Y-41941995D01*
X141560057Y-41912308D01*
X141573023Y-41907636D01*
X141688980Y-41845656D01*
X141755960Y-41605565D01*
X140970000Y-40819605D01*
X140955858Y-40833748D01*
X140776253Y-40654143D01*
X140790395Y-40640000D01*
X140776253Y-40625858D01*
X140955858Y-40446253D01*
X140970000Y-40460395D01*
X141755960Y-39674435D01*
X141688980Y-39434344D01*
X141553240Y-39370515D01*
X141631727Y-39338005D01*
X141860535Y-39185120D01*
X142055120Y-38990535D01*
X142208005Y-38761727D01*
X142240000Y-38684485D01*
X142271995Y-38761727D01*
G37*
%TD.AperFunction*%
D23*
X141163748Y-35545858D02*
X141149605Y-35560000D01*
X141163748Y-35574143D01*
X140984143Y-35753748D01*
X140970000Y-35739605D01*
X140955858Y-35753748D01*
X140776253Y-35574143D01*
X140790395Y-35560000D01*
X140776253Y-35545858D01*
X140955858Y-35366253D01*
X140970000Y-35380395D01*
X140984143Y-35366253D01*
X141163748Y-35545858D01*
%TA.AperFunction,Conductor*%
D24*
G36*
X141163748Y-35545858D02*
G01*
X141149605Y-35560000D01*
X141163748Y-35574143D01*
X140984143Y-35753748D01*
X140970000Y-35739605D01*
X140955858Y-35753748D01*
X140776253Y-35574143D01*
X140790395Y-35560000D01*
X140776253Y-35545858D01*
X140955858Y-35366253D01*
X140970000Y-35380395D01*
X140984143Y-35366253D01*
X141163748Y-35545858D01*
G37*
%TD.AperFunction*%
%TD*%
M02*
