%TF.GenerationSoftware,KiCad,Pcbnew,(5.1.10-1-10_14)*%
%TF.CreationDate,2021-10-26T14:16:26-07:00*%
%TF.ProjectId,adc,6164632e-6b69-4636-9164-5f7063625858,rev?*%
%TF.SameCoordinates,Original*%
%TF.FileFunction,Soldermask,Bot*%
%TF.FilePolarity,Negative*%
%FSLAX46Y46*%
G04 Gerber Fmt 4.6, Leading zero omitted, Abs format (unit mm)*
G04 Created by KiCad (PCBNEW (5.1.10-1-10_14)) date 2021-10-26 14:16:26*
%MOMM*%
%LPD*%
G01*
G04 APERTURE LIST*
%ADD10C,1.624000*%
%ADD11O,1.800000X1.800000*%
%ADD12C,1.800000*%
%ADD13O,2.800000X4.500000*%
%ADD14C,5.100000*%
%ADD15C,2.500000*%
G04 APERTURE END LIST*
D10*
%TO.C,J5*%
X140970000Y-27940000D03*
X143510000Y-27940000D03*
X140970000Y-30480000D03*
X143510000Y-30480000D03*
X140970000Y-33020000D03*
X143510000Y-33020000D03*
X140970000Y-35560000D03*
X143510000Y-35560000D03*
X140970000Y-38100000D03*
X143510000Y-38100000D03*
X140970000Y-40640000D03*
X143510000Y-40640000D03*
X140970000Y-43180000D03*
X143510000Y-43180000D03*
X140970000Y-45720000D03*
X143510000Y-45720000D03*
X140970000Y-48260000D03*
X143510000Y-48260000D03*
X140970000Y-50800000D03*
X143510000Y-50800000D03*
X140970000Y-53340000D03*
X143510000Y-53340000D03*
X140970000Y-55880000D03*
X143510000Y-55880000D03*
X140970000Y-58420000D03*
X143510000Y-58420000D03*
X140970000Y-60960000D03*
X143510000Y-60960000D03*
X140970000Y-63500000D03*
X143510000Y-63500000D03*
X140970000Y-66040000D03*
X143510000Y-66040000D03*
X140970000Y-68580000D03*
X143510000Y-68580000D03*
X140970000Y-71120000D03*
X143510000Y-71120000D03*
X140970000Y-73660000D03*
X143510000Y-73660000D03*
X140970000Y-76200000D03*
X143510000Y-76200000D03*
%TD*%
D11*
%TO.C,J8*%
X148590000Y-35560000D03*
X148590000Y-33020000D03*
G36*
G01*
X147690000Y-31330000D02*
X147690000Y-29630000D01*
G75*
G02*
X147740000Y-29580000I50000J0D01*
G01*
X149440000Y-29580000D01*
G75*
G02*
X149490000Y-29630000I0J-50000D01*
G01*
X149490000Y-31330000D01*
G75*
G02*
X149440000Y-31380000I-50000J0D01*
G01*
X147740000Y-31380000D01*
G75*
G02*
X147690000Y-31330000I0J50000D01*
G01*
G37*
%TD*%
D12*
%TO.C,J4*%
X171450000Y-45140000D03*
X171450000Y-38140000D03*
%TD*%
%TO.C,J3*%
X171450000Y-56460000D03*
X171450000Y-63460000D03*
%TD*%
D13*
%TO.C,J2*%
X182160000Y-37250000D03*
X206460000Y-37250000D03*
D14*
X187310000Y-37250000D03*
X201310000Y-37250000D03*
D15*
X183310000Y-42000000D03*
X197310000Y-42000000D03*
%TD*%
D13*
%TO.C,J1*%
X206460000Y-64350000D03*
X182160000Y-64350000D03*
D14*
X201310000Y-64350000D03*
X187310000Y-64350000D03*
D15*
X205310000Y-59600000D03*
X191310000Y-59600000D03*
%TD*%
M02*
