%TF.GenerationSoftware,KiCad,Pcbnew,(5.1.10-1-10_14)*%
%TF.CreationDate,2021-10-26T14:16:26-07:00*%
%TF.ProjectId,adc,6164632e-6b69-4636-9164-5f7063625858,rev?*%
%TF.SameCoordinates,Original*%
%TF.FileFunction,Soldermask,Top*%
%TF.FilePolarity,Negative*%
%FSLAX46Y46*%
G04 Gerber Fmt 4.6, Leading zero omitted, Abs format (unit mm)*
G04 Created by KiCad (PCBNEW (5.1.10-1-10_14)) date 2021-10-26 14:16:26*
%MOMM*%
%LPD*%
G01*
G04 APERTURE LIST*
%ADD10C,1.624000*%
%ADD11O,1.800000X1.800000*%
%ADD12C,1.800000*%
%ADD13O,2.800000X4.500000*%
%ADD14C,5.100000*%
%ADD15C,2.500000*%
%ADD16C,0.100000*%
G04 APERTURE END LIST*
D10*
%TO.C,J5*%
X140970000Y-27940000D03*
X143510000Y-27940000D03*
X140970000Y-30480000D03*
X143510000Y-30480000D03*
X140970000Y-33020000D03*
X143510000Y-33020000D03*
X140970000Y-35560000D03*
X143510000Y-35560000D03*
X140970000Y-38100000D03*
X143510000Y-38100000D03*
X140970000Y-40640000D03*
X143510000Y-40640000D03*
X140970000Y-43180000D03*
X143510000Y-43180000D03*
X140970000Y-45720000D03*
X143510000Y-45720000D03*
X140970000Y-48260000D03*
X143510000Y-48260000D03*
X140970000Y-50800000D03*
X143510000Y-50800000D03*
X140970000Y-53340000D03*
X143510000Y-53340000D03*
X140970000Y-55880000D03*
X143510000Y-55880000D03*
X140970000Y-58420000D03*
X143510000Y-58420000D03*
X140970000Y-60960000D03*
X143510000Y-60960000D03*
X140970000Y-63500000D03*
X143510000Y-63500000D03*
X140970000Y-66040000D03*
X143510000Y-66040000D03*
X140970000Y-68580000D03*
X143510000Y-68580000D03*
X140970000Y-71120000D03*
X143510000Y-71120000D03*
X140970000Y-73660000D03*
X143510000Y-73660000D03*
X140970000Y-76200000D03*
X143510000Y-76200000D03*
%TD*%
%TO.C,C6*%
G36*
G01*
X156713724Y-45087500D02*
X155706276Y-45087500D01*
G75*
G02*
X155435000Y-44816224I0J271276D01*
G01*
X155435000Y-44083776D01*
G75*
G02*
X155706276Y-43812500I271276J0D01*
G01*
X156713724Y-43812500D01*
G75*
G02*
X156985000Y-44083776I0J-271276D01*
G01*
X156985000Y-44816224D01*
G75*
G02*
X156713724Y-45087500I-271276J0D01*
G01*
G37*
G36*
G01*
X156713724Y-47162500D02*
X155706276Y-47162500D01*
G75*
G02*
X155435000Y-46891224I0J271276D01*
G01*
X155435000Y-46158776D01*
G75*
G02*
X155706276Y-45887500I271276J0D01*
G01*
X156713724Y-45887500D01*
G75*
G02*
X156985000Y-46158776I0J-271276D01*
G01*
X156985000Y-46891224D01*
G75*
G02*
X156713724Y-47162500I-271276J0D01*
G01*
G37*
%TD*%
%TO.C,C7*%
G36*
G01*
X158246276Y-56280000D02*
X159253724Y-56280000D01*
G75*
G02*
X159525000Y-56551276I0J-271276D01*
G01*
X159525000Y-57283724D01*
G75*
G02*
X159253724Y-57555000I-271276J0D01*
G01*
X158246276Y-57555000D01*
G75*
G02*
X157975000Y-57283724I0J271276D01*
G01*
X157975000Y-56551276D01*
G75*
G02*
X158246276Y-56280000I271276J0D01*
G01*
G37*
G36*
G01*
X158246276Y-54205000D02*
X159253724Y-54205000D01*
G75*
G02*
X159525000Y-54476276I0J-271276D01*
G01*
X159525000Y-55208724D01*
G75*
G02*
X159253724Y-55480000I-271276J0D01*
G01*
X158246276Y-55480000D01*
G75*
G02*
X157975000Y-55208724I0J271276D01*
G01*
X157975000Y-54476276D01*
G75*
G02*
X158246276Y-54205000I271276J0D01*
G01*
G37*
%TD*%
%TO.C,C5*%
G36*
G01*
X159253724Y-45087500D02*
X158246276Y-45087500D01*
G75*
G02*
X157975000Y-44816224I0J271276D01*
G01*
X157975000Y-44083776D01*
G75*
G02*
X158246276Y-43812500I271276J0D01*
G01*
X159253724Y-43812500D01*
G75*
G02*
X159525000Y-44083776I0J-271276D01*
G01*
X159525000Y-44816224D01*
G75*
G02*
X159253724Y-45087500I-271276J0D01*
G01*
G37*
G36*
G01*
X159253724Y-47162500D02*
X158246276Y-47162500D01*
G75*
G02*
X157975000Y-46891224I0J271276D01*
G01*
X157975000Y-46158776D01*
G75*
G02*
X158246276Y-45887500I271276J0D01*
G01*
X159253724Y-45887500D01*
G75*
G02*
X159525000Y-46158776I0J-271276D01*
G01*
X159525000Y-46891224D01*
G75*
G02*
X159253724Y-47162500I-271276J0D01*
G01*
G37*
%TD*%
%TO.C,C3*%
G36*
G01*
X161457500Y-50033724D02*
X161457500Y-49026276D01*
G75*
G02*
X161728776Y-48755000I271276J0D01*
G01*
X162461224Y-48755000D01*
G75*
G02*
X162732500Y-49026276I0J-271276D01*
G01*
X162732500Y-50033724D01*
G75*
G02*
X162461224Y-50305000I-271276J0D01*
G01*
X161728776Y-50305000D01*
G75*
G02*
X161457500Y-50033724I0J271276D01*
G01*
G37*
G36*
G01*
X159382500Y-50033724D02*
X159382500Y-49026276D01*
G75*
G02*
X159653776Y-48755000I271276J0D01*
G01*
X160386224Y-48755000D01*
G75*
G02*
X160657500Y-49026276I0J-271276D01*
G01*
X160657500Y-50033724D01*
G75*
G02*
X160386224Y-50305000I-271276J0D01*
G01*
X159653776Y-50305000D01*
G75*
G02*
X159382500Y-50033724I0J271276D01*
G01*
G37*
%TD*%
%TO.C,U1*%
G36*
G01*
X149055000Y-52625000D02*
X149055000Y-52875000D01*
G75*
G02*
X148930000Y-53000000I-125000J0D01*
G01*
X147605000Y-53000000D01*
G75*
G02*
X147480000Y-52875000I0J125000D01*
G01*
X147480000Y-52625000D01*
G75*
G02*
X147605000Y-52500000I125000J0D01*
G01*
X148930000Y-52500000D01*
G75*
G02*
X149055000Y-52625000I0J-125000D01*
G01*
G37*
G36*
G01*
X149055000Y-51975000D02*
X149055000Y-52225000D01*
G75*
G02*
X148930000Y-52350000I-125000J0D01*
G01*
X147605000Y-52350000D01*
G75*
G02*
X147480000Y-52225000I0J125000D01*
G01*
X147480000Y-51975000D01*
G75*
G02*
X147605000Y-51850000I125000J0D01*
G01*
X148930000Y-51850000D01*
G75*
G02*
X149055000Y-51975000I0J-125000D01*
G01*
G37*
G36*
G01*
X149055000Y-51325000D02*
X149055000Y-51575000D01*
G75*
G02*
X148930000Y-51700000I-125000J0D01*
G01*
X147605000Y-51700000D01*
G75*
G02*
X147480000Y-51575000I0J125000D01*
G01*
X147480000Y-51325000D01*
G75*
G02*
X147605000Y-51200000I125000J0D01*
G01*
X148930000Y-51200000D01*
G75*
G02*
X149055000Y-51325000I0J-125000D01*
G01*
G37*
G36*
G01*
X149055000Y-50675000D02*
X149055000Y-50925000D01*
G75*
G02*
X148930000Y-51050000I-125000J0D01*
G01*
X147605000Y-51050000D01*
G75*
G02*
X147480000Y-50925000I0J125000D01*
G01*
X147480000Y-50675000D01*
G75*
G02*
X147605000Y-50550000I125000J0D01*
G01*
X148930000Y-50550000D01*
G75*
G02*
X149055000Y-50675000I0J-125000D01*
G01*
G37*
G36*
G01*
X149055000Y-50025000D02*
X149055000Y-50275000D01*
G75*
G02*
X148930000Y-50400000I-125000J0D01*
G01*
X147605000Y-50400000D01*
G75*
G02*
X147480000Y-50275000I0J125000D01*
G01*
X147480000Y-50025000D01*
G75*
G02*
X147605000Y-49900000I125000J0D01*
G01*
X148930000Y-49900000D01*
G75*
G02*
X149055000Y-50025000I0J-125000D01*
G01*
G37*
G36*
G01*
X149055000Y-49375000D02*
X149055000Y-49625000D01*
G75*
G02*
X148930000Y-49750000I-125000J0D01*
G01*
X147605000Y-49750000D01*
G75*
G02*
X147480000Y-49625000I0J125000D01*
G01*
X147480000Y-49375000D01*
G75*
G02*
X147605000Y-49250000I125000J0D01*
G01*
X148930000Y-49250000D01*
G75*
G02*
X149055000Y-49375000I0J-125000D01*
G01*
G37*
G36*
G01*
X149055000Y-48725000D02*
X149055000Y-48975000D01*
G75*
G02*
X148930000Y-49100000I-125000J0D01*
G01*
X147605000Y-49100000D01*
G75*
G02*
X147480000Y-48975000I0J125000D01*
G01*
X147480000Y-48725000D01*
G75*
G02*
X147605000Y-48600000I125000J0D01*
G01*
X148930000Y-48600000D01*
G75*
G02*
X149055000Y-48725000I0J-125000D01*
G01*
G37*
G36*
G01*
X154780000Y-48725000D02*
X154780000Y-48975000D01*
G75*
G02*
X154655000Y-49100000I-125000J0D01*
G01*
X153330000Y-49100000D01*
G75*
G02*
X153205000Y-48975000I0J125000D01*
G01*
X153205000Y-48725000D01*
G75*
G02*
X153330000Y-48600000I125000J0D01*
G01*
X154655000Y-48600000D01*
G75*
G02*
X154780000Y-48725000I0J-125000D01*
G01*
G37*
G36*
G01*
X154780000Y-49375000D02*
X154780000Y-49625000D01*
G75*
G02*
X154655000Y-49750000I-125000J0D01*
G01*
X153330000Y-49750000D01*
G75*
G02*
X153205000Y-49625000I0J125000D01*
G01*
X153205000Y-49375000D01*
G75*
G02*
X153330000Y-49250000I125000J0D01*
G01*
X154655000Y-49250000D01*
G75*
G02*
X154780000Y-49375000I0J-125000D01*
G01*
G37*
G36*
G01*
X154780000Y-50025000D02*
X154780000Y-50275000D01*
G75*
G02*
X154655000Y-50400000I-125000J0D01*
G01*
X153330000Y-50400000D01*
G75*
G02*
X153205000Y-50275000I0J125000D01*
G01*
X153205000Y-50025000D01*
G75*
G02*
X153330000Y-49900000I125000J0D01*
G01*
X154655000Y-49900000D01*
G75*
G02*
X154780000Y-50025000I0J-125000D01*
G01*
G37*
G36*
G01*
X154780000Y-50675000D02*
X154780000Y-50925000D01*
G75*
G02*
X154655000Y-51050000I-125000J0D01*
G01*
X153330000Y-51050000D01*
G75*
G02*
X153205000Y-50925000I0J125000D01*
G01*
X153205000Y-50675000D01*
G75*
G02*
X153330000Y-50550000I125000J0D01*
G01*
X154655000Y-50550000D01*
G75*
G02*
X154780000Y-50675000I0J-125000D01*
G01*
G37*
G36*
G01*
X154780000Y-51325000D02*
X154780000Y-51575000D01*
G75*
G02*
X154655000Y-51700000I-125000J0D01*
G01*
X153330000Y-51700000D01*
G75*
G02*
X153205000Y-51575000I0J125000D01*
G01*
X153205000Y-51325000D01*
G75*
G02*
X153330000Y-51200000I125000J0D01*
G01*
X154655000Y-51200000D01*
G75*
G02*
X154780000Y-51325000I0J-125000D01*
G01*
G37*
G36*
G01*
X154780000Y-51975000D02*
X154780000Y-52225000D01*
G75*
G02*
X154655000Y-52350000I-125000J0D01*
G01*
X153330000Y-52350000D01*
G75*
G02*
X153205000Y-52225000I0J125000D01*
G01*
X153205000Y-51975000D01*
G75*
G02*
X153330000Y-51850000I125000J0D01*
G01*
X154655000Y-51850000D01*
G75*
G02*
X154780000Y-51975000I0J-125000D01*
G01*
G37*
G36*
G01*
X154780000Y-52625000D02*
X154780000Y-52875000D01*
G75*
G02*
X154655000Y-53000000I-125000J0D01*
G01*
X153330000Y-53000000D01*
G75*
G02*
X153205000Y-52875000I0J125000D01*
G01*
X153205000Y-52625000D01*
G75*
G02*
X153330000Y-52500000I125000J0D01*
G01*
X154655000Y-52500000D01*
G75*
G02*
X154780000Y-52625000I0J-125000D01*
G01*
G37*
%TD*%
D11*
%TO.C,J8*%
X148590000Y-35560000D03*
X148590000Y-33020000D03*
G36*
G01*
X147690000Y-31330000D02*
X147690000Y-29630000D01*
G75*
G02*
X147740000Y-29580000I50000J0D01*
G01*
X149440000Y-29580000D01*
G75*
G02*
X149490000Y-29630000I0J-50000D01*
G01*
X149490000Y-31330000D01*
G75*
G02*
X149440000Y-31380000I-50000J0D01*
G01*
X147740000Y-31380000D01*
G75*
G02*
X147690000Y-31330000I0J50000D01*
G01*
G37*
%TD*%
D12*
%TO.C,J4*%
X171450000Y-45140000D03*
X171450000Y-38140000D03*
G36*
G01*
X166300000Y-47840000D02*
X166300000Y-45040000D01*
G75*
G02*
X166350000Y-44990000I50000J0D01*
G01*
X169150000Y-44990000D01*
G75*
G02*
X169200000Y-45040000I0J-50000D01*
G01*
X169200000Y-47840000D01*
G75*
G02*
X169150000Y-47890000I-50000J0D01*
G01*
X166350000Y-47890000D01*
G75*
G02*
X166300000Y-47840000I0J50000D01*
G01*
G37*
G36*
G01*
X166300000Y-38140000D02*
X166300000Y-35940000D01*
G75*
G02*
X166350000Y-35890000I50000J0D01*
G01*
X169150000Y-35890000D01*
G75*
G02*
X169200000Y-35940000I0J-50000D01*
G01*
X169200000Y-38140000D01*
G75*
G02*
X169150000Y-38190000I-50000J0D01*
G01*
X166350000Y-38190000D01*
G75*
G02*
X166300000Y-38140000I0J50000D01*
G01*
G37*
G36*
G01*
X173700000Y-40140000D02*
X173700000Y-37940000D01*
G75*
G02*
X173750000Y-37890000I50000J0D01*
G01*
X176550000Y-37890000D01*
G75*
G02*
X176600000Y-37940000I0J-50000D01*
G01*
X176600000Y-40140000D01*
G75*
G02*
X176550000Y-40190000I-50000J0D01*
G01*
X173750000Y-40190000D01*
G75*
G02*
X173700000Y-40140000I0J50000D01*
G01*
G37*
%TD*%
%TO.C,J3*%
X171450000Y-56460000D03*
X171450000Y-63460000D03*
G36*
G01*
X176600000Y-53760000D02*
X176600000Y-56560000D01*
G75*
G02*
X176550000Y-56610000I-50000J0D01*
G01*
X173750000Y-56610000D01*
G75*
G02*
X173700000Y-56560000I0J50000D01*
G01*
X173700000Y-53760000D01*
G75*
G02*
X173750000Y-53710000I50000J0D01*
G01*
X176550000Y-53710000D01*
G75*
G02*
X176600000Y-53760000I0J-50000D01*
G01*
G37*
G36*
G01*
X176600000Y-63460000D02*
X176600000Y-65660000D01*
G75*
G02*
X176550000Y-65710000I-50000J0D01*
G01*
X173750000Y-65710000D01*
G75*
G02*
X173700000Y-65660000I0J50000D01*
G01*
X173700000Y-63460000D01*
G75*
G02*
X173750000Y-63410000I50000J0D01*
G01*
X176550000Y-63410000D01*
G75*
G02*
X176600000Y-63460000I0J-50000D01*
G01*
G37*
G36*
G01*
X169200000Y-61460000D02*
X169200000Y-63660000D01*
G75*
G02*
X169150000Y-63710000I-50000J0D01*
G01*
X166350000Y-63710000D01*
G75*
G02*
X166300000Y-63660000I0J50000D01*
G01*
X166300000Y-61460000D01*
G75*
G02*
X166350000Y-61410000I50000J0D01*
G01*
X169150000Y-61410000D01*
G75*
G02*
X169200000Y-61460000I0J-50000D01*
G01*
G37*
%TD*%
D13*
%TO.C,J2*%
X182160000Y-37250000D03*
X206460000Y-37250000D03*
D14*
X187310000Y-37250000D03*
X201310000Y-37250000D03*
D15*
X183310000Y-42000000D03*
X197310000Y-42000000D03*
%TD*%
D13*
%TO.C,J1*%
X206460000Y-64350000D03*
X182160000Y-64350000D03*
D14*
X201310000Y-64350000D03*
X187310000Y-64350000D03*
D15*
X205310000Y-59600000D03*
X191310000Y-59600000D03*
%TD*%
%TO.C,C8*%
G36*
G01*
X155706276Y-56280000D02*
X156713724Y-56280000D01*
G75*
G02*
X156985000Y-56551276I0J-271276D01*
G01*
X156985000Y-57283724D01*
G75*
G02*
X156713724Y-57555000I-271276J0D01*
G01*
X155706276Y-57555000D01*
G75*
G02*
X155435000Y-57283724I0J271276D01*
G01*
X155435000Y-56551276D01*
G75*
G02*
X155706276Y-56280000I271276J0D01*
G01*
G37*
G36*
G01*
X155706276Y-54205000D02*
X156713724Y-54205000D01*
G75*
G02*
X156985000Y-54476276I0J-271276D01*
G01*
X156985000Y-55208724D01*
G75*
G02*
X156713724Y-55480000I-271276J0D01*
G01*
X155706276Y-55480000D01*
G75*
G02*
X155435000Y-55208724I0J271276D01*
G01*
X155435000Y-54476276D01*
G75*
G02*
X155706276Y-54205000I271276J0D01*
G01*
G37*
%TD*%
%TO.C,C4*%
G36*
G01*
X161457500Y-52573724D02*
X161457500Y-51566276D01*
G75*
G02*
X161728776Y-51295000I271276J0D01*
G01*
X162461224Y-51295000D01*
G75*
G02*
X162732500Y-51566276I0J-271276D01*
G01*
X162732500Y-52573724D01*
G75*
G02*
X162461224Y-52845000I-271276J0D01*
G01*
X161728776Y-52845000D01*
G75*
G02*
X161457500Y-52573724I0J271276D01*
G01*
G37*
G36*
G01*
X159382500Y-52573724D02*
X159382500Y-51566276D01*
G75*
G02*
X159653776Y-51295000I271276J0D01*
G01*
X160386224Y-51295000D01*
G75*
G02*
X160657500Y-51566276I0J-271276D01*
G01*
X160657500Y-52573724D01*
G75*
G02*
X160386224Y-52845000I-271276J0D01*
G01*
X159653776Y-52845000D01*
G75*
G02*
X159382500Y-52573724I0J271276D01*
G01*
G37*
%TD*%
%TO.C,C2*%
G36*
G01*
X154540000Y-61726276D02*
X154540000Y-62733724D01*
G75*
G02*
X154268724Y-63005000I-271276J0D01*
G01*
X153536276Y-63005000D01*
G75*
G02*
X153265000Y-62733724I0J271276D01*
G01*
X153265000Y-61726276D01*
G75*
G02*
X153536276Y-61455000I271276J0D01*
G01*
X154268724Y-61455000D01*
G75*
G02*
X154540000Y-61726276I0J-271276D01*
G01*
G37*
G36*
G01*
X156615000Y-61726276D02*
X156615000Y-62733724D01*
G75*
G02*
X156343724Y-63005000I-271276J0D01*
G01*
X155611276Y-63005000D01*
G75*
G02*
X155340000Y-62733724I0J271276D01*
G01*
X155340000Y-61726276D01*
G75*
G02*
X155611276Y-61455000I271276J0D01*
G01*
X156343724Y-61455000D01*
G75*
G02*
X156615000Y-61726276I0J-271276D01*
G01*
G37*
%TD*%
%TO.C,C1*%
G36*
G01*
X154540000Y-65536276D02*
X154540000Y-66543724D01*
G75*
G02*
X154268724Y-66815000I-271276J0D01*
G01*
X153536276Y-66815000D01*
G75*
G02*
X153265000Y-66543724I0J271276D01*
G01*
X153265000Y-65536276D01*
G75*
G02*
X153536276Y-65265000I271276J0D01*
G01*
X154268724Y-65265000D01*
G75*
G02*
X154540000Y-65536276I0J-271276D01*
G01*
G37*
G36*
G01*
X156615000Y-65536276D02*
X156615000Y-66543724D01*
G75*
G02*
X156343724Y-66815000I-271276J0D01*
G01*
X155611276Y-66815000D01*
G75*
G02*
X155340000Y-66543724I0J271276D01*
G01*
X155340000Y-65536276D01*
G75*
G02*
X155611276Y-65265000I271276J0D01*
G01*
X156343724Y-65265000D01*
G75*
G02*
X156615000Y-65536276I0J-271276D01*
G01*
G37*
%TD*%
D16*
G36*
X154781165Y-52223374D02*
G01*
X154782000Y-52225000D01*
X154782000Y-52270090D01*
X154781990Y-52270286D01*
X154780074Y-52289734D01*
X154779998Y-52290119D01*
X154775759Y-52304094D01*
X154775609Y-52304456D01*
X154768721Y-52317342D01*
X154768503Y-52317668D01*
X154759237Y-52328960D01*
X154758960Y-52329237D01*
X154747425Y-52338703D01*
X154747267Y-52338820D01*
X154731650Y-52349256D01*
X154718069Y-52362838D01*
X154707397Y-52378811D01*
X154700047Y-52396557D01*
X154696299Y-52415401D01*
X154696300Y-52434606D01*
X154700049Y-52453449D01*
X154707400Y-52471195D01*
X154718073Y-52487167D01*
X154731655Y-52500748D01*
X154747267Y-52511180D01*
X154747425Y-52511297D01*
X154758960Y-52520763D01*
X154759237Y-52521040D01*
X154768503Y-52532332D01*
X154768721Y-52532658D01*
X154775609Y-52545544D01*
X154775759Y-52545906D01*
X154779998Y-52559881D01*
X154780074Y-52560266D01*
X154781990Y-52579714D01*
X154782000Y-52579910D01*
X154782000Y-52625000D01*
X154781000Y-52626732D01*
X154779000Y-52626732D01*
X154778010Y-52625196D01*
X154775628Y-52601009D01*
X154768628Y-52577934D01*
X154757263Y-52556670D01*
X154741967Y-52538033D01*
X154723330Y-52522737D01*
X154702066Y-52511372D01*
X154678991Y-52504372D01*
X154654906Y-52502000D01*
X153330094Y-52502000D01*
X153306009Y-52504372D01*
X153282934Y-52511372D01*
X153261670Y-52522737D01*
X153243033Y-52538033D01*
X153227737Y-52556670D01*
X153216372Y-52577934D01*
X153209372Y-52601009D01*
X153206990Y-52625196D01*
X153205825Y-52626822D01*
X153203835Y-52626626D01*
X153203000Y-52625000D01*
X153203000Y-52579910D01*
X153203010Y-52579714D01*
X153204926Y-52560266D01*
X153205002Y-52559881D01*
X153209241Y-52545906D01*
X153209391Y-52545544D01*
X153216279Y-52532658D01*
X153216497Y-52532332D01*
X153225763Y-52521040D01*
X153226040Y-52520763D01*
X153237575Y-52511297D01*
X153237733Y-52511180D01*
X153253350Y-52500744D01*
X153266931Y-52487162D01*
X153277603Y-52471189D01*
X153284953Y-52453443D01*
X153288701Y-52434599D01*
X153288700Y-52415394D01*
X153284951Y-52396551D01*
X153277600Y-52378805D01*
X153266927Y-52362833D01*
X153253345Y-52349252D01*
X153237733Y-52338820D01*
X153237575Y-52338703D01*
X153226040Y-52329237D01*
X153225763Y-52328960D01*
X153216497Y-52317668D01*
X153216279Y-52317342D01*
X153209391Y-52304456D01*
X153209241Y-52304094D01*
X153205002Y-52290119D01*
X153204926Y-52289734D01*
X153203010Y-52270286D01*
X153203000Y-52270090D01*
X153203000Y-52225000D01*
X153204000Y-52223268D01*
X153206000Y-52223268D01*
X153206990Y-52224804D01*
X153209372Y-52248991D01*
X153216372Y-52272066D01*
X153227737Y-52293330D01*
X153243033Y-52311967D01*
X153261670Y-52327263D01*
X153282934Y-52338628D01*
X153306009Y-52345628D01*
X153330094Y-52348000D01*
X154654906Y-52348000D01*
X154678991Y-52345628D01*
X154702066Y-52338628D01*
X154723330Y-52327263D01*
X154741967Y-52311967D01*
X154757263Y-52293330D01*
X154768628Y-52272066D01*
X154775628Y-52248991D01*
X154778010Y-52224804D01*
X154779175Y-52223178D01*
X154781165Y-52223374D01*
G37*
G36*
X149056165Y-52223374D02*
G01*
X149057000Y-52225000D01*
X149057000Y-52270090D01*
X149056990Y-52270286D01*
X149055074Y-52289734D01*
X149054998Y-52290119D01*
X149050759Y-52304094D01*
X149050609Y-52304456D01*
X149043721Y-52317342D01*
X149043503Y-52317668D01*
X149034237Y-52328960D01*
X149033960Y-52329237D01*
X149022425Y-52338703D01*
X149022267Y-52338820D01*
X149006650Y-52349256D01*
X148993069Y-52362838D01*
X148982397Y-52378811D01*
X148975047Y-52396557D01*
X148971299Y-52415401D01*
X148971300Y-52434606D01*
X148975049Y-52453449D01*
X148982400Y-52471195D01*
X148993073Y-52487167D01*
X149006655Y-52500748D01*
X149022267Y-52511180D01*
X149022425Y-52511297D01*
X149033960Y-52520763D01*
X149034237Y-52521040D01*
X149043503Y-52532332D01*
X149043721Y-52532658D01*
X149050609Y-52545544D01*
X149050759Y-52545906D01*
X149054998Y-52559881D01*
X149055074Y-52560266D01*
X149056990Y-52579714D01*
X149057000Y-52579910D01*
X149057000Y-52625000D01*
X149056000Y-52626732D01*
X149054000Y-52626732D01*
X149053010Y-52625196D01*
X149050628Y-52601009D01*
X149043628Y-52577934D01*
X149032263Y-52556670D01*
X149016967Y-52538033D01*
X148998330Y-52522737D01*
X148977066Y-52511372D01*
X148953991Y-52504372D01*
X148929906Y-52502000D01*
X147605094Y-52502000D01*
X147581009Y-52504372D01*
X147557934Y-52511372D01*
X147536670Y-52522737D01*
X147518033Y-52538033D01*
X147502737Y-52556670D01*
X147491372Y-52577934D01*
X147484372Y-52601009D01*
X147481990Y-52625196D01*
X147480825Y-52626822D01*
X147478835Y-52626626D01*
X147478000Y-52625000D01*
X147478000Y-52579910D01*
X147478010Y-52579714D01*
X147479926Y-52560266D01*
X147480002Y-52559881D01*
X147484241Y-52545906D01*
X147484391Y-52545544D01*
X147491279Y-52532658D01*
X147491497Y-52532332D01*
X147500763Y-52521040D01*
X147501040Y-52520763D01*
X147512575Y-52511297D01*
X147512733Y-52511180D01*
X147528350Y-52500744D01*
X147541931Y-52487162D01*
X147552603Y-52471189D01*
X147559953Y-52453443D01*
X147563701Y-52434599D01*
X147563700Y-52415394D01*
X147559951Y-52396551D01*
X147552600Y-52378805D01*
X147541927Y-52362833D01*
X147528345Y-52349252D01*
X147512733Y-52338820D01*
X147512575Y-52338703D01*
X147501040Y-52329237D01*
X147500763Y-52328960D01*
X147491497Y-52317668D01*
X147491279Y-52317342D01*
X147484391Y-52304456D01*
X147484241Y-52304094D01*
X147480002Y-52290119D01*
X147479926Y-52289734D01*
X147478010Y-52270286D01*
X147478000Y-52270090D01*
X147478000Y-52225000D01*
X147479000Y-52223268D01*
X147481000Y-52223268D01*
X147481990Y-52224804D01*
X147484372Y-52248991D01*
X147491372Y-52272066D01*
X147502737Y-52293330D01*
X147518033Y-52311967D01*
X147536670Y-52327263D01*
X147557934Y-52338628D01*
X147581009Y-52345628D01*
X147605094Y-52348000D01*
X148929906Y-52348000D01*
X148953991Y-52345628D01*
X148977066Y-52338628D01*
X148998330Y-52327263D01*
X149016967Y-52311967D01*
X149032263Y-52293330D01*
X149043628Y-52272066D01*
X149050628Y-52248991D01*
X149053010Y-52224804D01*
X149054175Y-52223178D01*
X149056165Y-52223374D01*
G37*
G36*
X154781165Y-51573374D02*
G01*
X154782000Y-51575000D01*
X154782000Y-51620090D01*
X154781990Y-51620286D01*
X154780074Y-51639734D01*
X154779998Y-51640119D01*
X154775759Y-51654094D01*
X154775609Y-51654456D01*
X154768721Y-51667342D01*
X154768503Y-51667668D01*
X154759237Y-51678960D01*
X154758960Y-51679237D01*
X154747425Y-51688703D01*
X154747267Y-51688820D01*
X154731650Y-51699256D01*
X154718069Y-51712838D01*
X154707397Y-51728811D01*
X154700047Y-51746557D01*
X154696299Y-51765401D01*
X154696300Y-51784606D01*
X154700049Y-51803449D01*
X154707400Y-51821195D01*
X154718073Y-51837167D01*
X154731655Y-51850748D01*
X154747267Y-51861180D01*
X154747425Y-51861297D01*
X154758960Y-51870763D01*
X154759237Y-51871040D01*
X154768503Y-51882332D01*
X154768721Y-51882658D01*
X154775609Y-51895544D01*
X154775759Y-51895906D01*
X154779998Y-51909881D01*
X154780074Y-51910266D01*
X154781990Y-51929714D01*
X154782000Y-51929910D01*
X154782000Y-51975000D01*
X154781000Y-51976732D01*
X154779000Y-51976732D01*
X154778010Y-51975196D01*
X154775628Y-51951009D01*
X154768628Y-51927934D01*
X154757263Y-51906670D01*
X154741967Y-51888033D01*
X154723330Y-51872737D01*
X154702066Y-51861372D01*
X154678991Y-51854372D01*
X154654906Y-51852000D01*
X153330094Y-51852000D01*
X153306009Y-51854372D01*
X153282934Y-51861372D01*
X153261670Y-51872737D01*
X153243033Y-51888033D01*
X153227737Y-51906670D01*
X153216372Y-51927934D01*
X153209372Y-51951009D01*
X153206990Y-51975196D01*
X153205825Y-51976822D01*
X153203835Y-51976626D01*
X153203000Y-51975000D01*
X153203000Y-51929910D01*
X153203010Y-51929714D01*
X153204926Y-51910266D01*
X153205002Y-51909881D01*
X153209241Y-51895906D01*
X153209391Y-51895544D01*
X153216279Y-51882658D01*
X153216497Y-51882332D01*
X153225763Y-51871040D01*
X153226040Y-51870763D01*
X153237575Y-51861297D01*
X153237733Y-51861180D01*
X153253350Y-51850744D01*
X153266931Y-51837162D01*
X153277603Y-51821189D01*
X153284953Y-51803443D01*
X153288701Y-51784599D01*
X153288700Y-51765394D01*
X153284951Y-51746551D01*
X153277600Y-51728805D01*
X153266927Y-51712833D01*
X153253345Y-51699252D01*
X153237733Y-51688820D01*
X153237575Y-51688703D01*
X153226040Y-51679237D01*
X153225763Y-51678960D01*
X153216497Y-51667668D01*
X153216279Y-51667342D01*
X153209391Y-51654456D01*
X153209241Y-51654094D01*
X153205002Y-51640119D01*
X153204926Y-51639734D01*
X153203010Y-51620286D01*
X153203000Y-51620090D01*
X153203000Y-51575000D01*
X153204000Y-51573268D01*
X153206000Y-51573268D01*
X153206990Y-51574804D01*
X153209372Y-51598991D01*
X153216372Y-51622066D01*
X153227737Y-51643330D01*
X153243033Y-51661967D01*
X153261670Y-51677263D01*
X153282934Y-51688628D01*
X153306009Y-51695628D01*
X153330094Y-51698000D01*
X154654906Y-51698000D01*
X154678991Y-51695628D01*
X154702066Y-51688628D01*
X154723330Y-51677263D01*
X154741967Y-51661967D01*
X154757263Y-51643330D01*
X154768628Y-51622066D01*
X154775628Y-51598991D01*
X154778010Y-51574804D01*
X154779175Y-51573178D01*
X154781165Y-51573374D01*
G37*
G36*
X149056165Y-51573374D02*
G01*
X149057000Y-51575000D01*
X149057000Y-51620090D01*
X149056990Y-51620286D01*
X149055074Y-51639734D01*
X149054998Y-51640119D01*
X149050759Y-51654094D01*
X149050609Y-51654456D01*
X149043721Y-51667342D01*
X149043503Y-51667668D01*
X149034237Y-51678960D01*
X149033960Y-51679237D01*
X149022425Y-51688703D01*
X149022267Y-51688820D01*
X149006650Y-51699256D01*
X148993069Y-51712838D01*
X148982397Y-51728811D01*
X148975047Y-51746557D01*
X148971299Y-51765401D01*
X148971300Y-51784606D01*
X148975049Y-51803449D01*
X148982400Y-51821195D01*
X148993073Y-51837167D01*
X149006655Y-51850748D01*
X149022267Y-51861180D01*
X149022425Y-51861297D01*
X149033960Y-51870763D01*
X149034237Y-51871040D01*
X149043503Y-51882332D01*
X149043721Y-51882658D01*
X149050609Y-51895544D01*
X149050759Y-51895906D01*
X149054998Y-51909881D01*
X149055074Y-51910266D01*
X149056990Y-51929714D01*
X149057000Y-51929910D01*
X149057000Y-51975000D01*
X149056000Y-51976732D01*
X149054000Y-51976732D01*
X149053010Y-51975196D01*
X149050628Y-51951009D01*
X149043628Y-51927934D01*
X149032263Y-51906670D01*
X149016967Y-51888033D01*
X148998330Y-51872737D01*
X148977066Y-51861372D01*
X148953991Y-51854372D01*
X148929906Y-51852000D01*
X147605094Y-51852000D01*
X147581009Y-51854372D01*
X147557934Y-51861372D01*
X147536670Y-51872737D01*
X147518033Y-51888033D01*
X147502737Y-51906670D01*
X147491372Y-51927934D01*
X147484372Y-51951009D01*
X147481990Y-51975196D01*
X147480825Y-51976822D01*
X147478835Y-51976626D01*
X147478000Y-51975000D01*
X147478000Y-51929910D01*
X147478010Y-51929714D01*
X147479926Y-51910266D01*
X147480002Y-51909881D01*
X147484241Y-51895906D01*
X147484391Y-51895544D01*
X147491279Y-51882658D01*
X147491497Y-51882332D01*
X147500763Y-51871040D01*
X147501040Y-51870763D01*
X147512575Y-51861297D01*
X147512733Y-51861180D01*
X147528350Y-51850744D01*
X147541931Y-51837162D01*
X147552603Y-51821189D01*
X147559953Y-51803443D01*
X147563701Y-51784599D01*
X147563700Y-51765394D01*
X147559951Y-51746551D01*
X147552600Y-51728805D01*
X147541927Y-51712833D01*
X147528345Y-51699252D01*
X147512733Y-51688820D01*
X147512575Y-51688703D01*
X147501040Y-51679237D01*
X147500763Y-51678960D01*
X147491497Y-51667668D01*
X147491279Y-51667342D01*
X147484391Y-51654456D01*
X147484241Y-51654094D01*
X147480002Y-51640119D01*
X147479926Y-51639734D01*
X147478010Y-51620286D01*
X147478000Y-51620090D01*
X147478000Y-51575000D01*
X147479000Y-51573268D01*
X147481000Y-51573268D01*
X147481990Y-51574804D01*
X147484372Y-51598991D01*
X147491372Y-51622066D01*
X147502737Y-51643330D01*
X147518033Y-51661967D01*
X147536670Y-51677263D01*
X147557934Y-51688628D01*
X147581009Y-51695628D01*
X147605094Y-51698000D01*
X148929906Y-51698000D01*
X148953991Y-51695628D01*
X148977066Y-51688628D01*
X148998330Y-51677263D01*
X149016967Y-51661967D01*
X149032263Y-51643330D01*
X149043628Y-51622066D01*
X149050628Y-51598991D01*
X149053010Y-51574804D01*
X149054175Y-51573178D01*
X149056165Y-51573374D01*
G37*
G36*
X154781165Y-50923374D02*
G01*
X154782000Y-50925000D01*
X154782000Y-50970090D01*
X154781990Y-50970286D01*
X154780074Y-50989734D01*
X154779998Y-50990119D01*
X154775759Y-51004094D01*
X154775609Y-51004456D01*
X154768721Y-51017342D01*
X154768503Y-51017668D01*
X154759237Y-51028960D01*
X154758960Y-51029237D01*
X154747425Y-51038703D01*
X154747267Y-51038820D01*
X154731650Y-51049256D01*
X154718069Y-51062838D01*
X154707397Y-51078811D01*
X154700047Y-51096557D01*
X154696299Y-51115401D01*
X154696300Y-51134606D01*
X154700049Y-51153449D01*
X154707400Y-51171195D01*
X154718073Y-51187167D01*
X154731655Y-51200748D01*
X154747267Y-51211180D01*
X154747425Y-51211297D01*
X154758960Y-51220763D01*
X154759237Y-51221040D01*
X154768503Y-51232332D01*
X154768721Y-51232658D01*
X154775609Y-51245544D01*
X154775759Y-51245906D01*
X154779998Y-51259881D01*
X154780074Y-51260266D01*
X154781990Y-51279714D01*
X154782000Y-51279910D01*
X154782000Y-51325000D01*
X154781000Y-51326732D01*
X154779000Y-51326732D01*
X154778010Y-51325196D01*
X154775628Y-51301009D01*
X154768628Y-51277934D01*
X154757263Y-51256670D01*
X154741967Y-51238033D01*
X154723330Y-51222737D01*
X154702066Y-51211372D01*
X154678991Y-51204372D01*
X154654906Y-51202000D01*
X153330094Y-51202000D01*
X153306009Y-51204372D01*
X153282934Y-51211372D01*
X153261670Y-51222737D01*
X153243033Y-51238033D01*
X153227737Y-51256670D01*
X153216372Y-51277934D01*
X153209372Y-51301009D01*
X153206990Y-51325196D01*
X153205825Y-51326822D01*
X153203835Y-51326626D01*
X153203000Y-51325000D01*
X153203000Y-51279910D01*
X153203010Y-51279714D01*
X153204926Y-51260266D01*
X153205002Y-51259881D01*
X153209241Y-51245906D01*
X153209391Y-51245544D01*
X153216279Y-51232658D01*
X153216497Y-51232332D01*
X153225763Y-51221040D01*
X153226040Y-51220763D01*
X153237575Y-51211297D01*
X153237733Y-51211180D01*
X153253350Y-51200744D01*
X153266931Y-51187162D01*
X153277603Y-51171189D01*
X153284953Y-51153443D01*
X153288701Y-51134599D01*
X153288700Y-51115394D01*
X153284951Y-51096551D01*
X153277600Y-51078805D01*
X153266927Y-51062833D01*
X153253345Y-51049252D01*
X153237733Y-51038820D01*
X153237575Y-51038703D01*
X153226040Y-51029237D01*
X153225763Y-51028960D01*
X153216497Y-51017668D01*
X153216279Y-51017342D01*
X153209391Y-51004456D01*
X153209241Y-51004094D01*
X153205002Y-50990119D01*
X153204926Y-50989734D01*
X153203010Y-50970286D01*
X153203000Y-50970090D01*
X153203000Y-50925000D01*
X153204000Y-50923268D01*
X153206000Y-50923268D01*
X153206990Y-50924804D01*
X153209372Y-50948991D01*
X153216372Y-50972066D01*
X153227737Y-50993330D01*
X153243033Y-51011967D01*
X153261670Y-51027263D01*
X153282934Y-51038628D01*
X153306009Y-51045628D01*
X153330094Y-51048000D01*
X154654906Y-51048000D01*
X154678991Y-51045628D01*
X154702066Y-51038628D01*
X154723330Y-51027263D01*
X154741967Y-51011967D01*
X154757263Y-50993330D01*
X154768628Y-50972066D01*
X154775628Y-50948991D01*
X154778010Y-50924804D01*
X154779175Y-50923178D01*
X154781165Y-50923374D01*
G37*
G36*
X149056165Y-50923374D02*
G01*
X149057000Y-50925000D01*
X149057000Y-50970090D01*
X149056990Y-50970286D01*
X149055074Y-50989734D01*
X149054998Y-50990119D01*
X149050759Y-51004094D01*
X149050609Y-51004456D01*
X149043721Y-51017342D01*
X149043503Y-51017668D01*
X149034237Y-51028960D01*
X149033960Y-51029237D01*
X149022425Y-51038703D01*
X149022267Y-51038820D01*
X149006650Y-51049256D01*
X148993069Y-51062838D01*
X148982397Y-51078811D01*
X148975047Y-51096557D01*
X148971299Y-51115401D01*
X148971300Y-51134606D01*
X148975049Y-51153449D01*
X148982400Y-51171195D01*
X148993073Y-51187167D01*
X149006655Y-51200748D01*
X149022267Y-51211180D01*
X149022425Y-51211297D01*
X149033960Y-51220763D01*
X149034237Y-51221040D01*
X149043503Y-51232332D01*
X149043721Y-51232658D01*
X149050609Y-51245544D01*
X149050759Y-51245906D01*
X149054998Y-51259881D01*
X149055074Y-51260266D01*
X149056990Y-51279714D01*
X149057000Y-51279910D01*
X149057000Y-51325000D01*
X149056000Y-51326732D01*
X149054000Y-51326732D01*
X149053010Y-51325196D01*
X149050628Y-51301009D01*
X149043628Y-51277934D01*
X149032263Y-51256670D01*
X149016967Y-51238033D01*
X148998330Y-51222737D01*
X148977066Y-51211372D01*
X148953991Y-51204372D01*
X148929906Y-51202000D01*
X147605094Y-51202000D01*
X147581009Y-51204372D01*
X147557934Y-51211372D01*
X147536670Y-51222737D01*
X147518033Y-51238033D01*
X147502737Y-51256670D01*
X147491372Y-51277934D01*
X147484372Y-51301009D01*
X147481990Y-51325196D01*
X147480825Y-51326822D01*
X147478835Y-51326626D01*
X147478000Y-51325000D01*
X147478000Y-51279910D01*
X147478010Y-51279714D01*
X147479926Y-51260266D01*
X147480002Y-51259881D01*
X147484241Y-51245906D01*
X147484391Y-51245544D01*
X147491279Y-51232658D01*
X147491497Y-51232332D01*
X147500763Y-51221040D01*
X147501040Y-51220763D01*
X147512575Y-51211297D01*
X147512733Y-51211180D01*
X147528350Y-51200744D01*
X147541931Y-51187162D01*
X147552603Y-51171189D01*
X147559953Y-51153443D01*
X147563701Y-51134599D01*
X147563700Y-51115394D01*
X147559951Y-51096551D01*
X147552600Y-51078805D01*
X147541927Y-51062833D01*
X147528345Y-51049252D01*
X147512733Y-51038820D01*
X147512575Y-51038703D01*
X147501040Y-51029237D01*
X147500763Y-51028960D01*
X147491497Y-51017668D01*
X147491279Y-51017342D01*
X147484391Y-51004456D01*
X147484241Y-51004094D01*
X147480002Y-50990119D01*
X147479926Y-50989734D01*
X147478010Y-50970286D01*
X147478000Y-50970090D01*
X147478000Y-50925000D01*
X147479000Y-50923268D01*
X147481000Y-50923268D01*
X147481990Y-50924804D01*
X147484372Y-50948991D01*
X147491372Y-50972066D01*
X147502737Y-50993330D01*
X147518033Y-51011967D01*
X147536670Y-51027263D01*
X147557934Y-51038628D01*
X147581009Y-51045628D01*
X147605094Y-51048000D01*
X148929906Y-51048000D01*
X148953991Y-51045628D01*
X148977066Y-51038628D01*
X148998330Y-51027263D01*
X149016967Y-51011967D01*
X149032263Y-50993330D01*
X149043628Y-50972066D01*
X149050628Y-50948991D01*
X149053010Y-50924804D01*
X149054175Y-50923178D01*
X149056165Y-50923374D01*
G37*
G36*
X154781165Y-50273374D02*
G01*
X154782000Y-50275000D01*
X154782000Y-50320090D01*
X154781990Y-50320286D01*
X154780074Y-50339734D01*
X154779998Y-50340119D01*
X154775759Y-50354094D01*
X154775609Y-50354456D01*
X154768721Y-50367342D01*
X154768503Y-50367668D01*
X154759237Y-50378960D01*
X154758960Y-50379237D01*
X154747425Y-50388703D01*
X154747267Y-50388820D01*
X154731650Y-50399256D01*
X154718069Y-50412838D01*
X154707397Y-50428811D01*
X154700047Y-50446557D01*
X154696299Y-50465401D01*
X154696300Y-50484606D01*
X154700049Y-50503449D01*
X154707400Y-50521195D01*
X154718073Y-50537167D01*
X154731655Y-50550748D01*
X154747267Y-50561180D01*
X154747425Y-50561297D01*
X154758960Y-50570763D01*
X154759237Y-50571040D01*
X154768503Y-50582332D01*
X154768721Y-50582658D01*
X154775609Y-50595544D01*
X154775759Y-50595906D01*
X154779998Y-50609881D01*
X154780074Y-50610266D01*
X154781990Y-50629714D01*
X154782000Y-50629910D01*
X154782000Y-50675000D01*
X154781000Y-50676732D01*
X154779000Y-50676732D01*
X154778010Y-50675196D01*
X154775628Y-50651009D01*
X154768628Y-50627934D01*
X154757263Y-50606670D01*
X154741967Y-50588033D01*
X154723330Y-50572737D01*
X154702066Y-50561372D01*
X154678991Y-50554372D01*
X154654906Y-50552000D01*
X153330094Y-50552000D01*
X153306009Y-50554372D01*
X153282934Y-50561372D01*
X153261670Y-50572737D01*
X153243033Y-50588033D01*
X153227737Y-50606670D01*
X153216372Y-50627934D01*
X153209372Y-50651009D01*
X153206990Y-50675196D01*
X153205825Y-50676822D01*
X153203835Y-50676626D01*
X153203000Y-50675000D01*
X153203000Y-50629910D01*
X153203010Y-50629714D01*
X153204926Y-50610266D01*
X153205002Y-50609881D01*
X153209241Y-50595906D01*
X153209391Y-50595544D01*
X153216279Y-50582658D01*
X153216497Y-50582332D01*
X153225763Y-50571040D01*
X153226040Y-50570763D01*
X153237575Y-50561297D01*
X153237733Y-50561180D01*
X153253350Y-50550744D01*
X153266931Y-50537162D01*
X153277603Y-50521189D01*
X153284953Y-50503443D01*
X153288701Y-50484599D01*
X153288700Y-50465394D01*
X153284951Y-50446551D01*
X153277600Y-50428805D01*
X153266927Y-50412833D01*
X153253345Y-50399252D01*
X153237733Y-50388820D01*
X153237575Y-50388703D01*
X153226040Y-50379237D01*
X153225763Y-50378960D01*
X153216497Y-50367668D01*
X153216279Y-50367342D01*
X153209391Y-50354456D01*
X153209241Y-50354094D01*
X153205002Y-50340119D01*
X153204926Y-50339734D01*
X153203010Y-50320286D01*
X153203000Y-50320090D01*
X153203000Y-50275000D01*
X153204000Y-50273268D01*
X153206000Y-50273268D01*
X153206990Y-50274804D01*
X153209372Y-50298991D01*
X153216372Y-50322066D01*
X153227737Y-50343330D01*
X153243033Y-50361967D01*
X153261670Y-50377263D01*
X153282934Y-50388628D01*
X153306009Y-50395628D01*
X153330094Y-50398000D01*
X154654906Y-50398000D01*
X154678991Y-50395628D01*
X154702066Y-50388628D01*
X154723330Y-50377263D01*
X154741967Y-50361967D01*
X154757263Y-50343330D01*
X154768628Y-50322066D01*
X154775628Y-50298991D01*
X154778010Y-50274804D01*
X154779175Y-50273178D01*
X154781165Y-50273374D01*
G37*
G36*
X149056165Y-50273374D02*
G01*
X149057000Y-50275000D01*
X149057000Y-50320090D01*
X149056990Y-50320286D01*
X149055074Y-50339734D01*
X149054998Y-50340119D01*
X149050759Y-50354094D01*
X149050609Y-50354456D01*
X149043721Y-50367342D01*
X149043503Y-50367668D01*
X149034237Y-50378960D01*
X149033960Y-50379237D01*
X149022425Y-50388703D01*
X149022267Y-50388820D01*
X149006650Y-50399256D01*
X148993069Y-50412838D01*
X148982397Y-50428811D01*
X148975047Y-50446557D01*
X148971299Y-50465401D01*
X148971300Y-50484606D01*
X148975049Y-50503449D01*
X148982400Y-50521195D01*
X148993073Y-50537167D01*
X149006655Y-50550748D01*
X149022267Y-50561180D01*
X149022425Y-50561297D01*
X149033960Y-50570763D01*
X149034237Y-50571040D01*
X149043503Y-50582332D01*
X149043721Y-50582658D01*
X149050609Y-50595544D01*
X149050759Y-50595906D01*
X149054998Y-50609881D01*
X149055074Y-50610266D01*
X149056990Y-50629714D01*
X149057000Y-50629910D01*
X149057000Y-50675000D01*
X149056000Y-50676732D01*
X149054000Y-50676732D01*
X149053010Y-50675196D01*
X149050628Y-50651009D01*
X149043628Y-50627934D01*
X149032263Y-50606670D01*
X149016967Y-50588033D01*
X148998330Y-50572737D01*
X148977066Y-50561372D01*
X148953991Y-50554372D01*
X148929906Y-50552000D01*
X147605094Y-50552000D01*
X147581009Y-50554372D01*
X147557934Y-50561372D01*
X147536670Y-50572737D01*
X147518033Y-50588033D01*
X147502737Y-50606670D01*
X147491372Y-50627934D01*
X147484372Y-50651009D01*
X147481990Y-50675196D01*
X147480825Y-50676822D01*
X147478835Y-50676626D01*
X147478000Y-50675000D01*
X147478000Y-50629910D01*
X147478010Y-50629714D01*
X147479926Y-50610266D01*
X147480002Y-50609881D01*
X147484241Y-50595906D01*
X147484391Y-50595544D01*
X147491279Y-50582658D01*
X147491497Y-50582332D01*
X147500763Y-50571040D01*
X147501040Y-50570763D01*
X147512575Y-50561297D01*
X147512733Y-50561180D01*
X147528350Y-50550744D01*
X147541931Y-50537162D01*
X147552603Y-50521189D01*
X147559953Y-50503443D01*
X147563701Y-50484599D01*
X147563700Y-50465394D01*
X147559951Y-50446551D01*
X147552600Y-50428805D01*
X147541927Y-50412833D01*
X147528345Y-50399252D01*
X147512733Y-50388820D01*
X147512575Y-50388703D01*
X147501040Y-50379237D01*
X147500763Y-50378960D01*
X147491497Y-50367668D01*
X147491279Y-50367342D01*
X147484391Y-50354456D01*
X147484241Y-50354094D01*
X147480002Y-50340119D01*
X147479926Y-50339734D01*
X147478010Y-50320286D01*
X147478000Y-50320090D01*
X147478000Y-50275000D01*
X147479000Y-50273268D01*
X147481000Y-50273268D01*
X147481990Y-50274804D01*
X147484372Y-50298991D01*
X147491372Y-50322066D01*
X147502737Y-50343330D01*
X147518033Y-50361967D01*
X147536670Y-50377263D01*
X147557934Y-50388628D01*
X147581009Y-50395628D01*
X147605094Y-50398000D01*
X148929906Y-50398000D01*
X148953991Y-50395628D01*
X148977066Y-50388628D01*
X148998330Y-50377263D01*
X149016967Y-50361967D01*
X149032263Y-50343330D01*
X149043628Y-50322066D01*
X149050628Y-50298991D01*
X149053010Y-50274804D01*
X149054175Y-50273178D01*
X149056165Y-50273374D01*
G37*
G36*
X149056165Y-49623374D02*
G01*
X149057000Y-49625000D01*
X149057000Y-49670090D01*
X149056990Y-49670286D01*
X149055074Y-49689734D01*
X149054998Y-49690119D01*
X149050759Y-49704094D01*
X149050609Y-49704456D01*
X149043721Y-49717342D01*
X149043503Y-49717668D01*
X149034237Y-49728960D01*
X149033960Y-49729237D01*
X149022425Y-49738703D01*
X149022267Y-49738820D01*
X149006650Y-49749256D01*
X148993069Y-49762838D01*
X148982397Y-49778811D01*
X148975047Y-49796557D01*
X148971299Y-49815401D01*
X148971300Y-49834606D01*
X148975049Y-49853449D01*
X148982400Y-49871195D01*
X148993073Y-49887167D01*
X149006655Y-49900748D01*
X149022267Y-49911180D01*
X149022425Y-49911297D01*
X149033960Y-49920763D01*
X149034237Y-49921040D01*
X149043503Y-49932332D01*
X149043721Y-49932658D01*
X149050609Y-49945544D01*
X149050759Y-49945906D01*
X149054998Y-49959881D01*
X149055074Y-49960266D01*
X149056990Y-49979714D01*
X149057000Y-49979910D01*
X149057000Y-50025000D01*
X149056000Y-50026732D01*
X149054000Y-50026732D01*
X149053010Y-50025196D01*
X149050628Y-50001009D01*
X149043628Y-49977934D01*
X149032263Y-49956670D01*
X149016967Y-49938033D01*
X148998330Y-49922737D01*
X148977066Y-49911372D01*
X148953991Y-49904372D01*
X148929906Y-49902000D01*
X147605094Y-49902000D01*
X147581009Y-49904372D01*
X147557934Y-49911372D01*
X147536670Y-49922737D01*
X147518033Y-49938033D01*
X147502737Y-49956670D01*
X147491372Y-49977934D01*
X147484372Y-50001009D01*
X147481990Y-50025196D01*
X147480825Y-50026822D01*
X147478835Y-50026626D01*
X147478000Y-50025000D01*
X147478000Y-49979910D01*
X147478010Y-49979714D01*
X147479926Y-49960266D01*
X147480002Y-49959881D01*
X147484241Y-49945906D01*
X147484391Y-49945544D01*
X147491279Y-49932658D01*
X147491497Y-49932332D01*
X147500763Y-49921040D01*
X147501040Y-49920763D01*
X147512575Y-49911297D01*
X147512733Y-49911180D01*
X147528350Y-49900744D01*
X147541931Y-49887162D01*
X147552603Y-49871189D01*
X147559953Y-49853443D01*
X147563701Y-49834599D01*
X147563700Y-49815394D01*
X147559951Y-49796551D01*
X147552600Y-49778805D01*
X147541927Y-49762833D01*
X147528345Y-49749252D01*
X147512733Y-49738820D01*
X147512575Y-49738703D01*
X147501040Y-49729237D01*
X147500763Y-49728960D01*
X147491497Y-49717668D01*
X147491279Y-49717342D01*
X147484391Y-49704456D01*
X147484241Y-49704094D01*
X147480002Y-49690119D01*
X147479926Y-49689734D01*
X147478010Y-49670286D01*
X147478000Y-49670090D01*
X147478000Y-49625000D01*
X147479000Y-49623268D01*
X147481000Y-49623268D01*
X147481990Y-49624804D01*
X147484372Y-49648991D01*
X147491372Y-49672066D01*
X147502737Y-49693330D01*
X147518033Y-49711967D01*
X147536670Y-49727263D01*
X147557934Y-49738628D01*
X147581009Y-49745628D01*
X147605094Y-49748000D01*
X148929906Y-49748000D01*
X148953991Y-49745628D01*
X148977066Y-49738628D01*
X148998330Y-49727263D01*
X149016967Y-49711967D01*
X149032263Y-49693330D01*
X149043628Y-49672066D01*
X149050628Y-49648991D01*
X149053010Y-49624804D01*
X149054175Y-49623178D01*
X149056165Y-49623374D01*
G37*
G36*
X154781165Y-49623374D02*
G01*
X154782000Y-49625000D01*
X154782000Y-49670090D01*
X154781990Y-49670286D01*
X154780074Y-49689734D01*
X154779998Y-49690119D01*
X154775759Y-49704094D01*
X154775609Y-49704456D01*
X154768721Y-49717342D01*
X154768503Y-49717668D01*
X154759237Y-49728960D01*
X154758960Y-49729237D01*
X154747425Y-49738703D01*
X154747267Y-49738820D01*
X154731650Y-49749256D01*
X154718069Y-49762838D01*
X154707397Y-49778811D01*
X154700047Y-49796557D01*
X154696299Y-49815401D01*
X154696300Y-49834606D01*
X154700049Y-49853449D01*
X154707400Y-49871195D01*
X154718073Y-49887167D01*
X154731655Y-49900748D01*
X154747267Y-49911180D01*
X154747425Y-49911297D01*
X154758960Y-49920763D01*
X154759237Y-49921040D01*
X154768503Y-49932332D01*
X154768721Y-49932658D01*
X154775609Y-49945544D01*
X154775759Y-49945906D01*
X154779998Y-49959881D01*
X154780074Y-49960266D01*
X154781990Y-49979714D01*
X154782000Y-49979910D01*
X154782000Y-50025000D01*
X154781000Y-50026732D01*
X154779000Y-50026732D01*
X154778010Y-50025196D01*
X154775628Y-50001009D01*
X154768628Y-49977934D01*
X154757263Y-49956670D01*
X154741967Y-49938033D01*
X154723330Y-49922737D01*
X154702066Y-49911372D01*
X154678991Y-49904372D01*
X154654906Y-49902000D01*
X153330094Y-49902000D01*
X153306009Y-49904372D01*
X153282934Y-49911372D01*
X153261670Y-49922737D01*
X153243033Y-49938033D01*
X153227737Y-49956670D01*
X153216372Y-49977934D01*
X153209372Y-50001009D01*
X153206990Y-50025196D01*
X153205825Y-50026822D01*
X153203835Y-50026626D01*
X153203000Y-50025000D01*
X153203000Y-49979910D01*
X153203010Y-49979714D01*
X153204926Y-49960266D01*
X153205002Y-49959881D01*
X153209241Y-49945906D01*
X153209391Y-49945544D01*
X153216279Y-49932658D01*
X153216497Y-49932332D01*
X153225763Y-49921040D01*
X153226040Y-49920763D01*
X153237575Y-49911297D01*
X153237733Y-49911180D01*
X153253350Y-49900744D01*
X153266931Y-49887162D01*
X153277603Y-49871189D01*
X153284953Y-49853443D01*
X153288701Y-49834599D01*
X153288700Y-49815394D01*
X153284951Y-49796551D01*
X153277600Y-49778805D01*
X153266927Y-49762833D01*
X153253345Y-49749252D01*
X153237733Y-49738820D01*
X153237575Y-49738703D01*
X153226040Y-49729237D01*
X153225763Y-49728960D01*
X153216497Y-49717668D01*
X153216279Y-49717342D01*
X153209391Y-49704456D01*
X153209241Y-49704094D01*
X153205002Y-49690119D01*
X153204926Y-49689734D01*
X153203010Y-49670286D01*
X153203000Y-49670090D01*
X153203000Y-49625000D01*
X153204000Y-49623268D01*
X153206000Y-49623268D01*
X153206990Y-49624804D01*
X153209372Y-49648991D01*
X153216372Y-49672066D01*
X153227737Y-49693330D01*
X153243033Y-49711967D01*
X153261670Y-49727263D01*
X153282934Y-49738628D01*
X153306009Y-49745628D01*
X153330094Y-49748000D01*
X154654906Y-49748000D01*
X154678991Y-49745628D01*
X154702066Y-49738628D01*
X154723330Y-49727263D01*
X154741967Y-49711967D01*
X154757263Y-49693330D01*
X154768628Y-49672066D01*
X154775628Y-49648991D01*
X154778010Y-49624804D01*
X154779175Y-49623178D01*
X154781165Y-49623374D01*
G37*
G36*
X154781165Y-48973374D02*
G01*
X154782000Y-48975000D01*
X154782000Y-49020090D01*
X154781990Y-49020286D01*
X154780074Y-49039734D01*
X154779998Y-49040119D01*
X154775759Y-49054094D01*
X154775609Y-49054456D01*
X154768721Y-49067342D01*
X154768503Y-49067668D01*
X154759237Y-49078960D01*
X154758960Y-49079237D01*
X154747425Y-49088703D01*
X154747267Y-49088820D01*
X154731650Y-49099256D01*
X154718069Y-49112838D01*
X154707397Y-49128811D01*
X154700047Y-49146557D01*
X154696299Y-49165401D01*
X154696300Y-49184606D01*
X154700049Y-49203449D01*
X154707400Y-49221195D01*
X154718073Y-49237167D01*
X154731655Y-49250748D01*
X154747267Y-49261180D01*
X154747425Y-49261297D01*
X154758960Y-49270763D01*
X154759237Y-49271040D01*
X154768503Y-49282332D01*
X154768721Y-49282658D01*
X154775609Y-49295544D01*
X154775759Y-49295906D01*
X154779998Y-49309881D01*
X154780074Y-49310266D01*
X154781990Y-49329714D01*
X154782000Y-49329910D01*
X154782000Y-49375000D01*
X154781000Y-49376732D01*
X154779000Y-49376732D01*
X154778010Y-49375196D01*
X154775628Y-49351009D01*
X154768628Y-49327934D01*
X154757263Y-49306670D01*
X154741967Y-49288033D01*
X154723330Y-49272737D01*
X154702066Y-49261372D01*
X154678991Y-49254372D01*
X154654906Y-49252000D01*
X153330094Y-49252000D01*
X153306009Y-49254372D01*
X153282934Y-49261372D01*
X153261670Y-49272737D01*
X153243033Y-49288033D01*
X153227737Y-49306670D01*
X153216372Y-49327934D01*
X153209372Y-49351009D01*
X153206990Y-49375196D01*
X153205825Y-49376822D01*
X153203835Y-49376626D01*
X153203000Y-49375000D01*
X153203000Y-49329910D01*
X153203010Y-49329714D01*
X153204926Y-49310266D01*
X153205002Y-49309881D01*
X153209241Y-49295906D01*
X153209391Y-49295544D01*
X153216279Y-49282658D01*
X153216497Y-49282332D01*
X153225763Y-49271040D01*
X153226040Y-49270763D01*
X153237575Y-49261297D01*
X153237733Y-49261180D01*
X153253350Y-49250744D01*
X153266931Y-49237162D01*
X153277603Y-49221189D01*
X153284953Y-49203443D01*
X153288701Y-49184599D01*
X153288700Y-49165394D01*
X153284951Y-49146551D01*
X153277600Y-49128805D01*
X153266927Y-49112833D01*
X153253345Y-49099252D01*
X153237733Y-49088820D01*
X153237575Y-49088703D01*
X153226040Y-49079237D01*
X153225763Y-49078960D01*
X153216497Y-49067668D01*
X153216279Y-49067342D01*
X153209391Y-49054456D01*
X153209241Y-49054094D01*
X153205002Y-49040119D01*
X153204926Y-49039734D01*
X153203010Y-49020286D01*
X153203000Y-49020090D01*
X153203000Y-48975000D01*
X153204000Y-48973268D01*
X153206000Y-48973268D01*
X153206990Y-48974804D01*
X153209372Y-48998991D01*
X153216372Y-49022066D01*
X153227737Y-49043330D01*
X153243033Y-49061967D01*
X153261670Y-49077263D01*
X153282934Y-49088628D01*
X153306009Y-49095628D01*
X153330094Y-49098000D01*
X154654906Y-49098000D01*
X154678991Y-49095628D01*
X154702066Y-49088628D01*
X154723330Y-49077263D01*
X154741967Y-49061967D01*
X154757263Y-49043330D01*
X154768628Y-49022066D01*
X154775628Y-48998991D01*
X154778010Y-48974804D01*
X154779175Y-48973178D01*
X154781165Y-48973374D01*
G37*
G36*
X149056165Y-48973374D02*
G01*
X149057000Y-48975000D01*
X149057000Y-49020090D01*
X149056990Y-49020286D01*
X149055074Y-49039734D01*
X149054998Y-49040119D01*
X149050759Y-49054094D01*
X149050609Y-49054456D01*
X149043721Y-49067342D01*
X149043503Y-49067668D01*
X149034237Y-49078960D01*
X149033960Y-49079237D01*
X149022425Y-49088703D01*
X149022267Y-49088820D01*
X149006650Y-49099256D01*
X148993069Y-49112838D01*
X148982397Y-49128811D01*
X148975047Y-49146557D01*
X148971299Y-49165401D01*
X148971300Y-49184606D01*
X148975049Y-49203449D01*
X148982400Y-49221195D01*
X148993073Y-49237167D01*
X149006655Y-49250748D01*
X149022267Y-49261180D01*
X149022425Y-49261297D01*
X149033960Y-49270763D01*
X149034237Y-49271040D01*
X149043503Y-49282332D01*
X149043721Y-49282658D01*
X149050609Y-49295544D01*
X149050759Y-49295906D01*
X149054998Y-49309881D01*
X149055074Y-49310266D01*
X149056990Y-49329714D01*
X149057000Y-49329910D01*
X149057000Y-49375000D01*
X149056000Y-49376732D01*
X149054000Y-49376732D01*
X149053010Y-49375196D01*
X149050628Y-49351009D01*
X149043628Y-49327934D01*
X149032263Y-49306670D01*
X149016967Y-49288033D01*
X148998330Y-49272737D01*
X148977066Y-49261372D01*
X148953991Y-49254372D01*
X148929906Y-49252000D01*
X147605094Y-49252000D01*
X147581009Y-49254372D01*
X147557934Y-49261372D01*
X147536670Y-49272737D01*
X147518033Y-49288033D01*
X147502737Y-49306670D01*
X147491372Y-49327934D01*
X147484372Y-49351009D01*
X147481990Y-49375196D01*
X147480825Y-49376822D01*
X147478835Y-49376626D01*
X147478000Y-49375000D01*
X147478000Y-49329910D01*
X147478010Y-49329714D01*
X147479926Y-49310266D01*
X147480002Y-49309881D01*
X147484241Y-49295906D01*
X147484391Y-49295544D01*
X147491279Y-49282658D01*
X147491497Y-49282332D01*
X147500763Y-49271040D01*
X147501040Y-49270763D01*
X147512575Y-49261297D01*
X147512733Y-49261180D01*
X147528350Y-49250744D01*
X147541931Y-49237162D01*
X147552603Y-49221189D01*
X147559953Y-49203443D01*
X147563701Y-49184599D01*
X147563700Y-49165394D01*
X147559951Y-49146551D01*
X147552600Y-49128805D01*
X147541927Y-49112833D01*
X147528345Y-49099252D01*
X147512733Y-49088820D01*
X147512575Y-49088703D01*
X147501040Y-49079237D01*
X147500763Y-49078960D01*
X147491497Y-49067668D01*
X147491279Y-49067342D01*
X147484391Y-49054456D01*
X147484241Y-49054094D01*
X147480002Y-49040119D01*
X147479926Y-49039734D01*
X147478010Y-49020286D01*
X147478000Y-49020090D01*
X147478000Y-48975000D01*
X147479000Y-48973268D01*
X147481000Y-48973268D01*
X147481990Y-48974804D01*
X147484372Y-48998991D01*
X147491372Y-49022066D01*
X147502737Y-49043330D01*
X147518033Y-49061967D01*
X147536670Y-49077263D01*
X147557934Y-49088628D01*
X147581009Y-49095628D01*
X147605094Y-49098000D01*
X148929906Y-49098000D01*
X148953991Y-49095628D01*
X148977066Y-49088628D01*
X148998330Y-49077263D01*
X149016967Y-49061967D01*
X149032263Y-49043330D01*
X149043628Y-49022066D01*
X149050628Y-48998991D01*
X149053010Y-48974804D01*
X149054175Y-48973178D01*
X149056165Y-48973374D01*
G37*
M02*
