%TF.GenerationSoftware,KiCad,Pcbnew,(5.1.10-1-10_14)*%
%TF.CreationDate,2021-10-26T14:16:26-07:00*%
%TF.ProjectId,adc,6164632e-6b69-4636-9164-5f7063625858,rev?*%
%TF.SameCoordinates,Original*%
%TF.FileFunction,Legend,Top*%
%TF.FilePolarity,Positive*%
%FSLAX46Y46*%
G04 Gerber Fmt 4.6, Leading zero omitted, Abs format (unit mm)*
G04 Created by KiCad (PCBNEW (5.1.10-1-10_14)) date 2021-10-26 14:16:26*
%MOMM*%
%LPD*%
G01*
G04 APERTURE LIST*
%ADD10C,0.152400*%
%ADD11C,0.150000*%
%ADD12C,0.120000*%
G04 APERTURE END LIST*
D10*
X179505428Y-54643866D02*
X179892476Y-54643866D01*
X179428019Y-54876095D02*
X179698952Y-54063295D01*
X179969885Y-54876095D01*
X180356933Y-54876095D02*
X180279523Y-54837390D01*
X180240819Y-54759980D01*
X180240819Y-54063295D01*
X180976209Y-54837390D02*
X180898800Y-54876095D01*
X180743980Y-54876095D01*
X180666571Y-54837390D01*
X180627866Y-54759980D01*
X180627866Y-54450342D01*
X180666571Y-54372933D01*
X180743980Y-54334228D01*
X180898800Y-54334228D01*
X180976209Y-54372933D01*
X181014914Y-54450342D01*
X181014914Y-54527752D01*
X180627866Y-54605161D01*
X181711600Y-54837390D02*
X181634190Y-54876095D01*
X181479371Y-54876095D01*
X181401961Y-54837390D01*
X181363257Y-54798685D01*
X181324552Y-54721276D01*
X181324552Y-54489047D01*
X181363257Y-54411638D01*
X181401961Y-54372933D01*
X181479371Y-54334228D01*
X181634190Y-54334228D01*
X181711600Y-54372933D01*
X182563104Y-54063295D02*
X182834038Y-54876095D01*
X183104971Y-54063295D01*
X183685542Y-54837390D02*
X183608133Y-54876095D01*
X183453314Y-54876095D01*
X183375904Y-54837390D01*
X183337200Y-54759980D01*
X183337200Y-54450342D01*
X183375904Y-54372933D01*
X183453314Y-54334228D01*
X183608133Y-54334228D01*
X183685542Y-54372933D01*
X183724247Y-54450342D01*
X183724247Y-54527752D01*
X183337200Y-54605161D01*
X184072590Y-54876095D02*
X184072590Y-54334228D01*
X184072590Y-54489047D02*
X184111295Y-54411638D01*
X184150000Y-54372933D01*
X184227409Y-54334228D01*
X184304819Y-54334228D01*
X184924095Y-54837390D02*
X184846685Y-54876095D01*
X184691866Y-54876095D01*
X184614457Y-54837390D01*
X184575752Y-54798685D01*
X184537047Y-54721276D01*
X184537047Y-54489047D01*
X184575752Y-54411638D01*
X184614457Y-54372933D01*
X184691866Y-54334228D01*
X184846685Y-54334228D01*
X184924095Y-54372933D01*
X185272438Y-54876095D02*
X185272438Y-54334228D01*
X185272438Y-54489047D02*
X185311142Y-54411638D01*
X185349847Y-54372933D01*
X185427257Y-54334228D01*
X185504666Y-54334228D01*
X186123942Y-54334228D02*
X186123942Y-54876095D01*
X185775600Y-54334228D02*
X185775600Y-54759980D01*
X185814304Y-54837390D01*
X185891714Y-54876095D01*
X186007828Y-54876095D01*
X186085238Y-54837390D01*
X186123942Y-54798685D01*
X186433580Y-54334228D02*
X186627104Y-54876095D01*
X186820628Y-54334228D02*
X186627104Y-54876095D01*
X186549695Y-55069619D01*
X186510990Y-55108323D01*
X186433580Y-55147028D01*
X187091561Y-54837390D02*
X187168971Y-54876095D01*
X187323790Y-54876095D01*
X187401200Y-54837390D01*
X187439904Y-54759980D01*
X187439904Y-54721276D01*
X187401200Y-54643866D01*
X187323790Y-54605161D01*
X187207676Y-54605161D01*
X187130266Y-54566457D01*
X187091561Y-54489047D01*
X187091561Y-54450342D01*
X187130266Y-54372933D01*
X187207676Y-54334228D01*
X187323790Y-54334228D01*
X187401200Y-54372933D01*
X187749542Y-54837390D02*
X187826952Y-54876095D01*
X187981771Y-54876095D01*
X188059180Y-54837390D01*
X188097885Y-54759980D01*
X188097885Y-54721276D01*
X188059180Y-54643866D01*
X187981771Y-54605161D01*
X187865657Y-54605161D01*
X187788247Y-54566457D01*
X187749542Y-54489047D01*
X187749542Y-54450342D01*
X187788247Y-54372933D01*
X187865657Y-54334228D01*
X187981771Y-54334228D01*
X188059180Y-54372933D01*
X188755866Y-54837390D02*
X188678457Y-54876095D01*
X188523638Y-54876095D01*
X188446228Y-54837390D01*
X188407523Y-54759980D01*
X188407523Y-54450342D01*
X188446228Y-54372933D01*
X188523638Y-54334228D01*
X188678457Y-54334228D01*
X188755866Y-54372933D01*
X188794571Y-54450342D01*
X188794571Y-54527752D01*
X188407523Y-54605161D01*
X180434342Y-56015466D02*
X180821390Y-56015466D01*
X180356933Y-56247695D02*
X180627866Y-55434895D01*
X180898800Y-56247695D01*
X181169733Y-56247695D02*
X181169733Y-55705828D01*
X181169733Y-55860647D02*
X181208438Y-55783238D01*
X181247142Y-55744533D01*
X181324552Y-55705828D01*
X181401961Y-55705828D01*
X181595485Y-55705828D02*
X181789009Y-56247695D01*
X181982533Y-55705828D02*
X181789009Y-56247695D01*
X181711600Y-56441219D01*
X181672895Y-56479923D01*
X181595485Y-56518628D01*
X182640514Y-56247695D02*
X182640514Y-55821942D01*
X182601809Y-55744533D01*
X182524400Y-55705828D01*
X182369580Y-55705828D01*
X182292171Y-55744533D01*
X182640514Y-56208990D02*
X182563104Y-56247695D01*
X182369580Y-56247695D01*
X182292171Y-56208990D01*
X182253466Y-56131580D01*
X182253466Y-56054171D01*
X182292171Y-55976761D01*
X182369580Y-55938057D01*
X182563104Y-55938057D01*
X182640514Y-55899352D01*
X184072590Y-55473600D02*
X183995180Y-55434895D01*
X183879066Y-55434895D01*
X183762952Y-55473600D01*
X183685542Y-55551009D01*
X183646838Y-55628419D01*
X183608133Y-55783238D01*
X183608133Y-55899352D01*
X183646838Y-56054171D01*
X183685542Y-56131580D01*
X183762952Y-56208990D01*
X183879066Y-56247695D01*
X183956476Y-56247695D01*
X184072590Y-56208990D01*
X184111295Y-56170285D01*
X184111295Y-55899352D01*
X183956476Y-55899352D01*
X184575752Y-56247695D02*
X184498342Y-56208990D01*
X184459638Y-56170285D01*
X184420933Y-56092876D01*
X184420933Y-55860647D01*
X184459638Y-55783238D01*
X184498342Y-55744533D01*
X184575752Y-55705828D01*
X184691866Y-55705828D01*
X184769276Y-55744533D01*
X184807980Y-55783238D01*
X184846685Y-55860647D01*
X184846685Y-56092876D01*
X184807980Y-56170285D01*
X184769276Y-56208990D01*
X184691866Y-56247695D01*
X184575752Y-56247695D01*
X185543371Y-55705828D02*
X185543371Y-56247695D01*
X185195028Y-55705828D02*
X185195028Y-56131580D01*
X185233733Y-56208990D01*
X185311142Y-56247695D01*
X185427257Y-56247695D01*
X185504666Y-56208990D01*
X185543371Y-56170285D01*
X185814304Y-55705828D02*
X186123942Y-55705828D01*
X185930419Y-55434895D02*
X185930419Y-56131580D01*
X185969123Y-56208990D01*
X186046533Y-56247695D01*
X186123942Y-56247695D01*
X186743219Y-56247695D02*
X186743219Y-55821942D01*
X186704514Y-55744533D01*
X186627104Y-55705828D01*
X186472285Y-55705828D01*
X186394876Y-55744533D01*
X186743219Y-56208990D02*
X186665809Y-56247695D01*
X186472285Y-56247695D01*
X186394876Y-56208990D01*
X186356171Y-56131580D01*
X186356171Y-56054171D01*
X186394876Y-55976761D01*
X186472285Y-55938057D01*
X186665809Y-55938057D01*
X186743219Y-55899352D01*
X187130266Y-56247695D02*
X187130266Y-55705828D01*
X187130266Y-55783238D02*
X187168971Y-55744533D01*
X187246380Y-55705828D01*
X187362495Y-55705828D01*
X187439904Y-55744533D01*
X187478609Y-55821942D01*
X187478609Y-56247695D01*
X187478609Y-55821942D02*
X187517314Y-55744533D01*
X187594723Y-55705828D01*
X187710838Y-55705828D01*
X187788247Y-55744533D01*
X187826952Y-55821942D01*
X187826952Y-56247695D01*
X179350609Y-57619295D02*
X179350609Y-56806495D01*
X179350609Y-57193542D02*
X179815066Y-57193542D01*
X179815066Y-57619295D02*
X179815066Y-56806495D01*
X180202114Y-57619295D02*
X180202114Y-56806495D01*
X180473047Y-57387066D01*
X180743980Y-56806495D01*
X180743980Y-57619295D01*
X181595485Y-57541885D02*
X181556780Y-57580590D01*
X181440666Y-57619295D01*
X181363257Y-57619295D01*
X181247142Y-57580590D01*
X181169733Y-57503180D01*
X181131028Y-57425771D01*
X181092323Y-57270952D01*
X181092323Y-57154838D01*
X181131028Y-57000019D01*
X181169733Y-56922609D01*
X181247142Y-56845200D01*
X181363257Y-56806495D01*
X181440666Y-56806495D01*
X181556780Y-56845200D01*
X181595485Y-56883904D01*
X182563104Y-57193542D02*
X182834038Y-57193542D01*
X182950152Y-57619295D02*
X182563104Y-57619295D01*
X182563104Y-56806495D01*
X182950152Y-56806495D01*
X183724247Y-57619295D02*
X183259790Y-57619295D01*
X183492019Y-57619295D02*
X183492019Y-56806495D01*
X183414609Y-56922609D01*
X183337200Y-57000019D01*
X183259790Y-57038723D01*
X184459638Y-56806495D02*
X184072590Y-56806495D01*
X184033885Y-57193542D01*
X184072590Y-57154838D01*
X184150000Y-57116133D01*
X184343523Y-57116133D01*
X184420933Y-57154838D01*
X184459638Y-57193542D01*
X184498342Y-57270952D01*
X184498342Y-57464476D01*
X184459638Y-57541885D01*
X184420933Y-57580590D01*
X184343523Y-57619295D01*
X184150000Y-57619295D01*
X184072590Y-57580590D01*
X184033885Y-57541885D01*
X185233733Y-56806495D02*
X184846685Y-56806495D01*
X184807980Y-57193542D01*
X184846685Y-57154838D01*
X184924095Y-57116133D01*
X185117619Y-57116133D01*
X185195028Y-57154838D01*
X185233733Y-57193542D01*
X185272438Y-57270952D01*
X185272438Y-57464476D01*
X185233733Y-57541885D01*
X185195028Y-57580590D01*
X185117619Y-57619295D01*
X184924095Y-57619295D01*
X184846685Y-57580590D01*
X184807980Y-57541885D01*
X186201352Y-56883904D02*
X186240057Y-56845200D01*
X186317466Y-56806495D01*
X186510990Y-56806495D01*
X186588400Y-56845200D01*
X186627104Y-56883904D01*
X186665809Y-56961314D01*
X186665809Y-57038723D01*
X186627104Y-57154838D01*
X186162647Y-57619295D01*
X186665809Y-57619295D01*
X187168971Y-56806495D02*
X187246380Y-56806495D01*
X187323790Y-56845200D01*
X187362495Y-56883904D01*
X187401200Y-56961314D01*
X187439904Y-57116133D01*
X187439904Y-57309657D01*
X187401200Y-57464476D01*
X187362495Y-57541885D01*
X187323790Y-57580590D01*
X187246380Y-57619295D01*
X187168971Y-57619295D01*
X187091561Y-57580590D01*
X187052857Y-57541885D01*
X187014152Y-57464476D01*
X186975447Y-57309657D01*
X186975447Y-57116133D01*
X187014152Y-56961314D01*
X187052857Y-56883904D01*
X187091561Y-56845200D01*
X187168971Y-56806495D01*
X187749542Y-56883904D02*
X187788247Y-56845200D01*
X187865657Y-56806495D01*
X188059180Y-56806495D01*
X188136590Y-56845200D01*
X188175295Y-56883904D01*
X188214000Y-56961314D01*
X188214000Y-57038723D01*
X188175295Y-57154838D01*
X187710838Y-57619295D01*
X188214000Y-57619295D01*
X188988095Y-57619295D02*
X188523638Y-57619295D01*
X188755866Y-57619295D02*
X188755866Y-56806495D01*
X188678457Y-56922609D01*
X188601047Y-57000019D01*
X188523638Y-57038723D01*
D11*
%TO.C,J5*%
X138430000Y-78740000D02*
X146050000Y-78740000D01*
X146050000Y-78740000D02*
X146050000Y-25400000D01*
X146050000Y-25400000D02*
X138430000Y-25400000D01*
X138430000Y-25400000D02*
X138430000Y-49530000D01*
X138430000Y-78740000D02*
X138430000Y-55880000D01*
D12*
X138430000Y-55880000D02*
X138430000Y-54610000D01*
%TO.C,C6*%
X155475000Y-45748752D02*
X155475000Y-45226248D01*
X156945000Y-45748752D02*
X156945000Y-45226248D01*
%TO.C,C7*%
X159485000Y-55618748D02*
X159485000Y-56141252D01*
X158015000Y-55618748D02*
X158015000Y-56141252D01*
%TO.C,C5*%
X158015000Y-45748752D02*
X158015000Y-45226248D01*
X159485000Y-45748752D02*
X159485000Y-45226248D01*
%TO.C,C3*%
X160796248Y-48795000D02*
X161318752Y-48795000D01*
X160796248Y-50265000D02*
X161318752Y-50265000D01*
%TO.C,U1*%
X151130000Y-48190000D02*
X148930000Y-48190000D01*
X151130000Y-48190000D02*
X153330000Y-48190000D01*
X151130000Y-53410000D02*
X148930000Y-53410000D01*
X151130000Y-53410000D02*
X154730000Y-53410000D01*
%TO.C,J8*%
X147260000Y-36890000D02*
X149920000Y-36890000D01*
X147260000Y-31750000D02*
X147260000Y-36890000D01*
X149920000Y-31750000D02*
X149920000Y-36890000D01*
X147260000Y-31750000D02*
X149920000Y-31750000D01*
X147260000Y-30480000D02*
X147260000Y-29150000D01*
X147260000Y-29150000D02*
X148590000Y-29150000D01*
%TO.C,J4*%
X168350000Y-35740000D02*
X168350000Y-34540000D01*
X168350000Y-34540000D02*
X168850000Y-34540000D01*
X168850000Y-34540000D02*
X168850000Y-32040000D01*
X168850000Y-32040000D02*
X174050000Y-32040000D01*
X174050000Y-32040000D02*
X174050000Y-34540000D01*
X174050000Y-34540000D02*
X174550000Y-34540000D01*
X174550000Y-34540000D02*
X174550000Y-37740000D01*
X174550000Y-40340000D02*
X174550000Y-49240000D01*
X174550000Y-49240000D02*
X168350000Y-49240000D01*
X168350000Y-49240000D02*
X168350000Y-48040000D01*
X168350000Y-44840000D02*
X168350000Y-38340000D01*
X168350000Y-35740000D02*
X166350000Y-35740000D01*
X168350000Y-38340000D02*
X166350000Y-38340000D01*
%TO.C,J3*%
X174550000Y-65860000D02*
X174550000Y-67060000D01*
X174550000Y-67060000D02*
X174050000Y-67060000D01*
X174050000Y-67060000D02*
X174050000Y-69560000D01*
X174050000Y-69560000D02*
X168850000Y-69560000D01*
X168850000Y-69560000D02*
X168850000Y-67060000D01*
X168850000Y-67060000D02*
X168350000Y-67060000D01*
X168350000Y-67060000D02*
X168350000Y-63860000D01*
X168350000Y-61260000D02*
X168350000Y-52360000D01*
X168350000Y-52360000D02*
X174550000Y-52360000D01*
X174550000Y-52360000D02*
X174550000Y-53560000D01*
X174550000Y-56760000D02*
X174550000Y-63260000D01*
X174550000Y-65860000D02*
X176550000Y-65860000D01*
X174550000Y-63260000D02*
X176550000Y-63260000D01*
D11*
%TO.C,J2*%
X181310000Y-42000000D02*
X180610000Y-42000000D01*
X199310000Y-42000000D02*
X208010000Y-42000000D01*
X195310000Y-42000000D02*
X185310000Y-42000000D01*
X180610000Y-31750000D02*
X180610000Y-42000000D01*
X208010000Y-31750000D02*
X208010000Y-42000000D01*
X208010000Y-31750000D02*
X180610000Y-31750000D01*
%TO.C,J1*%
X207310000Y-59600000D02*
X208010000Y-59600000D01*
X189310000Y-59600000D02*
X180610000Y-59600000D01*
X193310000Y-59600000D02*
X203310000Y-59600000D01*
X208010000Y-69850000D02*
X208010000Y-59600000D01*
X180610000Y-69850000D02*
X180610000Y-59600000D01*
X180610000Y-69850000D02*
X208010000Y-69850000D01*
D12*
%TO.C,C8*%
X156945000Y-55618748D02*
X156945000Y-56141252D01*
X155475000Y-55618748D02*
X155475000Y-56141252D01*
%TO.C,C4*%
X160796248Y-51335000D02*
X161318752Y-51335000D01*
X160796248Y-52805000D02*
X161318752Y-52805000D01*
%TO.C,C2*%
X155201252Y-62965000D02*
X154678748Y-62965000D01*
X155201252Y-61495000D02*
X154678748Y-61495000D01*
%TO.C,C1*%
X155201252Y-66775000D02*
X154678748Y-66775000D01*
X155201252Y-65305000D02*
X154678748Y-65305000D01*
%TO.C,J5*%
D11*
X146986666Y-26122380D02*
X146986666Y-26836666D01*
X146939047Y-26979523D01*
X146843809Y-27074761D01*
X146700952Y-27122380D01*
X146605714Y-27122380D01*
X147939047Y-26122380D02*
X147462857Y-26122380D01*
X147415238Y-26598571D01*
X147462857Y-26550952D01*
X147558095Y-26503333D01*
X147796190Y-26503333D01*
X147891428Y-26550952D01*
X147939047Y-26598571D01*
X147986666Y-26693809D01*
X147986666Y-26931904D01*
X147939047Y-27027142D01*
X147891428Y-27074761D01*
X147796190Y-27122380D01*
X147558095Y-27122380D01*
X147462857Y-27074761D01*
X147415238Y-27027142D01*
%TO.C,C6*%
X156043333Y-42267142D02*
X155995714Y-42314761D01*
X155852857Y-42362380D01*
X155757619Y-42362380D01*
X155614761Y-42314761D01*
X155519523Y-42219523D01*
X155471904Y-42124285D01*
X155424285Y-41933809D01*
X155424285Y-41790952D01*
X155471904Y-41600476D01*
X155519523Y-41505238D01*
X155614761Y-41410000D01*
X155757619Y-41362380D01*
X155852857Y-41362380D01*
X155995714Y-41410000D01*
X156043333Y-41457619D01*
X156900476Y-41362380D02*
X156710000Y-41362380D01*
X156614761Y-41410000D01*
X156567142Y-41457619D01*
X156471904Y-41600476D01*
X156424285Y-41790952D01*
X156424285Y-42171904D01*
X156471904Y-42267142D01*
X156519523Y-42314761D01*
X156614761Y-42362380D01*
X156805238Y-42362380D01*
X156900476Y-42314761D01*
X156948095Y-42267142D01*
X156995714Y-42171904D01*
X156995714Y-41933809D01*
X156948095Y-41838571D01*
X156900476Y-41790952D01*
X156805238Y-41743333D01*
X156614761Y-41743333D01*
X156519523Y-41790952D01*
X156471904Y-41838571D01*
X156424285Y-41933809D01*
%TO.C,C7*%
X158583333Y-60047142D02*
X158535714Y-60094761D01*
X158392857Y-60142380D01*
X158297619Y-60142380D01*
X158154761Y-60094761D01*
X158059523Y-59999523D01*
X158011904Y-59904285D01*
X157964285Y-59713809D01*
X157964285Y-59570952D01*
X158011904Y-59380476D01*
X158059523Y-59285238D01*
X158154761Y-59190000D01*
X158297619Y-59142380D01*
X158392857Y-59142380D01*
X158535714Y-59190000D01*
X158583333Y-59237619D01*
X158916666Y-59142380D02*
X159583333Y-59142380D01*
X159154761Y-60142380D01*
%TO.C,C5*%
X158583333Y-42267142D02*
X158535714Y-42314761D01*
X158392857Y-42362380D01*
X158297619Y-42362380D01*
X158154761Y-42314761D01*
X158059523Y-42219523D01*
X158011904Y-42124285D01*
X157964285Y-41933809D01*
X157964285Y-41790952D01*
X158011904Y-41600476D01*
X158059523Y-41505238D01*
X158154761Y-41410000D01*
X158297619Y-41362380D01*
X158392857Y-41362380D01*
X158535714Y-41410000D01*
X158583333Y-41457619D01*
X159488095Y-41362380D02*
X159011904Y-41362380D01*
X158964285Y-41838571D01*
X159011904Y-41790952D01*
X159107142Y-41743333D01*
X159345238Y-41743333D01*
X159440476Y-41790952D01*
X159488095Y-41838571D01*
X159535714Y-41933809D01*
X159535714Y-42171904D01*
X159488095Y-42267142D01*
X159440476Y-42314761D01*
X159345238Y-42362380D01*
X159107142Y-42362380D01*
X159011904Y-42314761D01*
X158964285Y-42267142D01*
%TO.C,C3*%
X163663333Y-49887142D02*
X163615714Y-49934761D01*
X163472857Y-49982380D01*
X163377619Y-49982380D01*
X163234761Y-49934761D01*
X163139523Y-49839523D01*
X163091904Y-49744285D01*
X163044285Y-49553809D01*
X163044285Y-49410952D01*
X163091904Y-49220476D01*
X163139523Y-49125238D01*
X163234761Y-49030000D01*
X163377619Y-48982380D01*
X163472857Y-48982380D01*
X163615714Y-49030000D01*
X163663333Y-49077619D01*
X163996666Y-48982380D02*
X164615714Y-48982380D01*
X164282380Y-49363333D01*
X164425238Y-49363333D01*
X164520476Y-49410952D01*
X164568095Y-49458571D01*
X164615714Y-49553809D01*
X164615714Y-49791904D01*
X164568095Y-49887142D01*
X164520476Y-49934761D01*
X164425238Y-49982380D01*
X164139523Y-49982380D01*
X164044285Y-49934761D01*
X163996666Y-49887142D01*
%TO.C,U1*%
X150368095Y-53702380D02*
X150368095Y-54511904D01*
X150415714Y-54607142D01*
X150463333Y-54654761D01*
X150558571Y-54702380D01*
X150749047Y-54702380D01*
X150844285Y-54654761D01*
X150891904Y-54607142D01*
X150939523Y-54511904D01*
X150939523Y-53702380D01*
X151939523Y-54702380D02*
X151368095Y-54702380D01*
X151653809Y-54702380D02*
X151653809Y-53702380D01*
X151558571Y-53845238D01*
X151463333Y-53940476D01*
X151368095Y-53988095D01*
%TO.C,J8*%
X150796666Y-29932380D02*
X150796666Y-30646666D01*
X150749047Y-30789523D01*
X150653809Y-30884761D01*
X150510952Y-30932380D01*
X150415714Y-30932380D01*
X151415714Y-30360952D02*
X151320476Y-30313333D01*
X151272857Y-30265714D01*
X151225238Y-30170476D01*
X151225238Y-30122857D01*
X151272857Y-30027619D01*
X151320476Y-29980000D01*
X151415714Y-29932380D01*
X151606190Y-29932380D01*
X151701428Y-29980000D01*
X151749047Y-30027619D01*
X151796666Y-30122857D01*
X151796666Y-30170476D01*
X151749047Y-30265714D01*
X151701428Y-30313333D01*
X151606190Y-30360952D01*
X151415714Y-30360952D01*
X151320476Y-30408571D01*
X151272857Y-30456190D01*
X151225238Y-30551428D01*
X151225238Y-30741904D01*
X151272857Y-30837142D01*
X151320476Y-30884761D01*
X151415714Y-30932380D01*
X151606190Y-30932380D01*
X151701428Y-30884761D01*
X151749047Y-30837142D01*
X151796666Y-30741904D01*
X151796666Y-30551428D01*
X151749047Y-30456190D01*
X151701428Y-30408571D01*
X151606190Y-30360952D01*
%TO.C,J4*%
X174926666Y-32472380D02*
X174926666Y-33186666D01*
X174879047Y-33329523D01*
X174783809Y-33424761D01*
X174640952Y-33472380D01*
X174545714Y-33472380D01*
X175831428Y-32805714D02*
X175831428Y-33472380D01*
X175593333Y-32424761D02*
X175355238Y-33139047D01*
X175974285Y-33139047D01*
%TO.C,J3*%
X174926666Y-68032380D02*
X174926666Y-68746666D01*
X174879047Y-68889523D01*
X174783809Y-68984761D01*
X174640952Y-69032380D01*
X174545714Y-69032380D01*
X175307619Y-68032380D02*
X175926666Y-68032380D01*
X175593333Y-68413333D01*
X175736190Y-68413333D01*
X175831428Y-68460952D01*
X175879047Y-68508571D01*
X175926666Y-68603809D01*
X175926666Y-68841904D01*
X175879047Y-68937142D01*
X175831428Y-68984761D01*
X175736190Y-69032380D01*
X175450476Y-69032380D01*
X175355238Y-68984761D01*
X175307619Y-68937142D01*
%TO.C,J2*%
X206676666Y-42632380D02*
X206676666Y-43346666D01*
X206629047Y-43489523D01*
X206533809Y-43584761D01*
X206390952Y-43632380D01*
X206295714Y-43632380D01*
X207105238Y-42727619D02*
X207152857Y-42680000D01*
X207248095Y-42632380D01*
X207486190Y-42632380D01*
X207581428Y-42680000D01*
X207629047Y-42727619D01*
X207676666Y-42822857D01*
X207676666Y-42918095D01*
X207629047Y-43060952D01*
X207057619Y-43632380D01*
X207676666Y-43632380D01*
%TO.C,J1*%
X206676666Y-56602380D02*
X206676666Y-57316666D01*
X206629047Y-57459523D01*
X206533809Y-57554761D01*
X206390952Y-57602380D01*
X206295714Y-57602380D01*
X207676666Y-57602380D02*
X207105238Y-57602380D01*
X207390952Y-57602380D02*
X207390952Y-56602380D01*
X207295714Y-56745238D01*
X207200476Y-56840476D01*
X207105238Y-56888095D01*
%TO.C,C8*%
X156043333Y-60047142D02*
X155995714Y-60094761D01*
X155852857Y-60142380D01*
X155757619Y-60142380D01*
X155614761Y-60094761D01*
X155519523Y-59999523D01*
X155471904Y-59904285D01*
X155424285Y-59713809D01*
X155424285Y-59570952D01*
X155471904Y-59380476D01*
X155519523Y-59285238D01*
X155614761Y-59190000D01*
X155757619Y-59142380D01*
X155852857Y-59142380D01*
X155995714Y-59190000D01*
X156043333Y-59237619D01*
X156614761Y-59570952D02*
X156519523Y-59523333D01*
X156471904Y-59475714D01*
X156424285Y-59380476D01*
X156424285Y-59332857D01*
X156471904Y-59237619D01*
X156519523Y-59190000D01*
X156614761Y-59142380D01*
X156805238Y-59142380D01*
X156900476Y-59190000D01*
X156948095Y-59237619D01*
X156995714Y-59332857D01*
X156995714Y-59380476D01*
X156948095Y-59475714D01*
X156900476Y-59523333D01*
X156805238Y-59570952D01*
X156614761Y-59570952D01*
X156519523Y-59618571D01*
X156471904Y-59666190D01*
X156424285Y-59761428D01*
X156424285Y-59951904D01*
X156471904Y-60047142D01*
X156519523Y-60094761D01*
X156614761Y-60142380D01*
X156805238Y-60142380D01*
X156900476Y-60094761D01*
X156948095Y-60047142D01*
X156995714Y-59951904D01*
X156995714Y-59761428D01*
X156948095Y-59666190D01*
X156900476Y-59618571D01*
X156805238Y-59570952D01*
%TO.C,C4*%
X163663333Y-52427142D02*
X163615714Y-52474761D01*
X163472857Y-52522380D01*
X163377619Y-52522380D01*
X163234761Y-52474761D01*
X163139523Y-52379523D01*
X163091904Y-52284285D01*
X163044285Y-52093809D01*
X163044285Y-51950952D01*
X163091904Y-51760476D01*
X163139523Y-51665238D01*
X163234761Y-51570000D01*
X163377619Y-51522380D01*
X163472857Y-51522380D01*
X163615714Y-51570000D01*
X163663333Y-51617619D01*
X164520476Y-51855714D02*
X164520476Y-52522380D01*
X164282380Y-51474761D02*
X164044285Y-52189047D01*
X164663333Y-52189047D01*
%TO.C,C2*%
X154773333Y-64267142D02*
X154725714Y-64314761D01*
X154582857Y-64362380D01*
X154487619Y-64362380D01*
X154344761Y-64314761D01*
X154249523Y-64219523D01*
X154201904Y-64124285D01*
X154154285Y-63933809D01*
X154154285Y-63790952D01*
X154201904Y-63600476D01*
X154249523Y-63505238D01*
X154344761Y-63410000D01*
X154487619Y-63362380D01*
X154582857Y-63362380D01*
X154725714Y-63410000D01*
X154773333Y-63457619D01*
X155154285Y-63457619D02*
X155201904Y-63410000D01*
X155297142Y-63362380D01*
X155535238Y-63362380D01*
X155630476Y-63410000D01*
X155678095Y-63457619D01*
X155725714Y-63552857D01*
X155725714Y-63648095D01*
X155678095Y-63790952D01*
X155106666Y-64362380D01*
X155725714Y-64362380D01*
%TO.C,C1*%
X154773333Y-68077142D02*
X154725714Y-68124761D01*
X154582857Y-68172380D01*
X154487619Y-68172380D01*
X154344761Y-68124761D01*
X154249523Y-68029523D01*
X154201904Y-67934285D01*
X154154285Y-67743809D01*
X154154285Y-67600952D01*
X154201904Y-67410476D01*
X154249523Y-67315238D01*
X154344761Y-67220000D01*
X154487619Y-67172380D01*
X154582857Y-67172380D01*
X154725714Y-67220000D01*
X154773333Y-67267619D01*
X155725714Y-68172380D02*
X155154285Y-68172380D01*
X155440000Y-68172380D02*
X155440000Y-67172380D01*
X155344761Y-67315238D01*
X155249523Y-67410476D01*
X155154285Y-67458095D01*
%TD*%
M02*
