M48
; DRILL file {KiCad (5.1.10-1-10_14)} date Tuesday, October 26, 2021 at 02:16:34 PM
; FORMAT={-:-/ absolute / inch / decimal}
; #@! TF.CreationDate,2021-10-26T14:16:34-07:00
; #@! TF.GenerationSoftware,Kicad,Pcbnew,(5.1.10-1-10_14)
FMAT,2
INCH
T1C0.0118
T2C0.0354
T3C0.0394
T4C0.0472
T5C0.0984
T6C0.0669
T7C0.0984
%
G90
G05
T1
X5.75Y-1.75
X5.75Y-1.85
X5.85Y-1.75
X5.85Y-1.85
X5.9Y-2.15
X5.9Y-2.2
X5.9Y-2.25
X5.9Y-2.3
X5.9Y-2.35
X5.9Y-2.4
X5.95Y-1.75
X5.95Y-2.45
X6.0Y-1.8
X6.0Y-2.5
X6.2Y-1.7
X6.3Y-1.65
T2
X5.55Y-1.1
X5.55Y-1.2
X5.55Y-1.3
X5.55Y-1.4
X5.55Y-1.5
X5.55Y-1.6
X5.55Y-1.7
X5.55Y-1.8
X5.55Y-1.9
X5.55Y-2.0
X5.55Y-2.1
X5.55Y-2.2
X5.55Y-2.3
X5.55Y-2.4
X5.55Y-2.5
X5.55Y-2.6
X5.55Y-2.7
X5.55Y-2.8
X5.55Y-2.9
X5.55Y-3.0
X5.65Y-1.1
X5.65Y-1.2
X5.65Y-1.3
X5.65Y-1.4
X5.65Y-1.5
X5.65Y-1.6
X5.65Y-1.7
X5.65Y-1.8
X5.65Y-1.9
X5.65Y-2.0
X5.65Y-2.1
X5.65Y-2.2
X5.65Y-2.3
X5.65Y-2.4
X5.65Y-2.5
X5.65Y-2.6
X5.65Y-2.7
X5.65Y-2.8
X5.65Y-2.9
X5.65Y-3.0
T3
X5.85Y-1.2
X5.85Y-1.3
X5.85Y-1.4
T4
X7.2169Y-1.6535
X7.5319Y-2.3465
X7.7681Y-1.6535
X8.0831Y-2.3465
T5
X7.3744Y-1.4665
X7.3744Y-2.5335
X7.9256Y-1.4665
X7.9256Y-2.5335
T6
X6.75Y-1.5016
X6.75Y-1.7772
X6.75Y-2.2228
X6.75Y-2.4984
T7
G00X7.1717Y-1.4331
M15
G01X7.1717Y-1.5
M16
G05
G00X7.1717Y-2.5669
M15
G01X7.1717Y-2.5
M16
G05
G00X8.1283Y-1.4331
M15
G01X8.1283Y-1.5
M16
G05
G00X8.1283Y-2.5669
M15
G01X8.1283Y-2.5
M16
G05
T0
M30
